<?xml version="1.0" standalone="no"?>
<!DOCTYPE svg PUBLIC "-//W3C//DTD SVG 1.1//EN" "http://www.w3.org/Graphics/SVG/1.1/DTD/svg11.dtd" >
<svg xmlns="http://www.w3.org/2000/svg" xmlns:xlink="http://www.w3.org/1999/xlink" version="1.1">
<metadata>
Created by FontForge 20161003 at Wed Jul 25 19:07:27 2018
 By www-data
(c) 2015 Apple Inc. All rights reserved.
</metadata>
<defs>
<font id="SFCompactDisplayBold" horiz-adv-x="1800" >
  <font-face 
    font-family="SFCompactDisplayBold"
    font-weight="700"
    font-stretch="normal"
    units-per-em="2048"
    panose-1="2 11 5 4 3 2 2 6 2 4"
    ascent="1638"
    descent="-410"
    x-height="1064"
    cap-height="1365"
    bbox="-539 -531 2436 2116"
    underline-thickness="50"
    underline-position="-150"
    unicode-range="U+0020-1F189"
  />
<missing-glyph horiz-adv-x="2048" 
d="M100 -494v212h1848v-212h-1848zM100 -48v212h1848v-212h-1848zM100 399v212h1848v-212h-1848zM100 845v212h1848v-212h-1848zM100 1292v212h1848v-212h-1848zM100 1738v212h1848v-212h-1848z" />
    <glyph glyph-name=".notdef" horiz-adv-x="2048" 
d="M100 -494v212h1848v-212h-1848zM100 -48v212h1848v-212h-1848zM100 399v212h1848v-212h-1848zM100 845v212h1848v-212h-1848zM100 1292v212h1848v-212h-1848zM100 1738v212h1848v-212h-1848z" />
    <glyph glyph-name=".null" horiz-adv-x="0" 
 />
    <glyph glyph-name="nonmarkingreturn" horiz-adv-x="0" 
 />
    <glyph glyph-name="space" unicode=" " horiz-adv-x="402" 
 />
    <glyph glyph-name="exclam" unicode="!" horiz-adv-x="565" 
d="M128 1365h309l-33 -948h-244zM124 127q0 64 46 105t113 41t112.5 -41t45.5 -105q0 -65 -45.5 -106t-112.5 -41t-113 41t-46 106z" />
    <glyph glyph-name="quotedbl" unicode="&#x22;" horiz-adv-x="852" 
d="M98 1365h260l-34 -513h-193zM494 1365h260l-33 -513h-193z" />
    <glyph glyph-name="numbersign" unicode="#" horiz-adv-x="1237" 
d="M1174 812h-207l-49 -244h198l-39 -204h-200l-72 -364h-212l72 364h-218l-74 -364h-211l72 364h-194l39 204h196l49 244h-188l39 204h190l69 349h214l-71 -349h219l69 349h213l-70 -349h204zM521 834l-58 -288h259l57 288h-258z" />
    <glyph glyph-name="dollar" unicode="$" horiz-adv-x="1212" 
d="M358 1013q0 -115 145 -166q20 -7 36 -11v352q-81 -10 -131 -56t-50 -119zM887 383q0 67 -42 112t-135 72q-7 2 -23 6v-379q90 8 145 58t55 131zM688 -129h-154l1 125q-115 9 -203.5 46t-140 93t-77.5 121t-27 137h237q5 -78 60 -131.5t155 -66.5v406l-84 20
q-70 16 -128.5 44.5t-107.5 73t-76.5 110t-27.5 146.5q0 170 117 270.5t304 118.5v129h154v-130q183 -19 296.5 -124t116.5 -262h-232q-2 70 -51 123.5t-133 66.5v-382l83 -19q80 -18 142 -46.5t112.5 -73t77 -110t26.5 -150.5q0 -176 -118.5 -282.5t-321.5 -125.5v-127z
" />
    <glyph glyph-name="percent" unicode="%" horiz-adv-x="1556" 
d="M1133 356v-46q0 -73 22 -112t60 -39t60.5 39t22.5 112v46q0 73 -22.5 111.5t-60.5 38.5t-60 -38.5t-22 -111.5zM922 309v47q0 147 79 235.5t215 88.5t214 -88t78 -236v-47q0 -145 -78.5 -235t-215.5 -90q-135 0 -213.5 89t-78.5 236zM260 1077v-46q0 -73 22 -112t60 -39
t60.5 39t22.5 112v46q0 73 -22.5 111.5t-60.5 38.5t-60 -38.5t-22 -111.5zM49 1030v47q0 147 79 235.5t215 88.5t214 -88t78 -236v-47q0 -145 -78.5 -235t-215.5 -90q-135 0 -213.5 89t-78.5 236zM361 -1h-217l559 717l493 649h217l-549 -703z" />
    <glyph glyph-name="ampersand" unicode="&#x26;" horiz-adv-x="1362" 
d="M1066 0l-105 112q-78 -68 -188 -104t-232 -36q-215 0 -345 104t-130 279q0 84 33.5 153.5t86.5 117.5t131 92q40 22 62 32q-84 87 -126.5 157.5t-42.5 153.5q0 137 110.5 226.5t274.5 89.5q100 0 184.5 -34.5t139.5 -107.5t55 -170q0 -63 -22 -117t-64 -97t-86.5 -74.5
t-103.5 -63.5l260 -282q48 87 48 267v70h228v-86q0 -262 -114 -418l252 -264h-306zM468 588q-147 -82 -147 -211q0 -97 71 -151.5t176 -54.5q70 0 138.5 24.5t111.5 71.5l-313 340q-21 -10 -37 -19zM571 840q86 45 130.5 92.5t44.5 114.5t-42.5 107.5t-107.5 40.5
q-66 0 -108.5 -41.5t-42.5 -106.5q0 -47 28 -92t98 -115z" />
    <glyph glyph-name="quotesingle" unicode="'" horiz-adv-x="455" 
d="M98 1365h260l-34 -513h-193z" />
    <glyph glyph-name="parenleft" unicode="(" horiz-adv-x="686" 
d="M377 1363h259q-35 -40 -71.5 -104t-75.5 -161.5t-64 -236.5t-25 -293q0 -104 10 -199.5t32.5 -178.5t41 -142t52.5 -128t49 -97t48 -85h-265q-46 56 -85.5 125t-80.5 170.5t-65 239.5t-24 293q0 127 17 238t40.5 187.5t63 152.5t69 119t74.5 100z" />
    <glyph glyph-name="parenright" unicode=")" horiz-adv-x="686" 
d="M50 1363h257q45 -57 75 -100t70 -119t63.5 -152.5t40.5 -187.5t17 -238q0 -155 -24 -293t-65.5 -239.5t-81.5 -170.5t-86 -125h-264q38 65 58.5 103.5t58.5 126t59.5 165.5t38.5 194.5t17 240.5q0 154 -24.5 293t-63.5 236.5t-75 161.5t-71 104z" />
    <glyph glyph-name="asterisk" unicode="*" horiz-adv-x="930" 
d="M551 704h-171l29 227l-184 -138l-86 149l211 89l-211 89l86 149l186 -143l-31 233h171l-31 -233l187 143l85 -148l-212 -90l212 -89l-85 -149l-186 139z" />
    <glyph glyph-name="plus" unicode="+" horiz-adv-x="1185" 
d="M714 441v-419h-243v419h-391v238h391v405h243v-405h392v-238h-392z" />
    <glyph glyph-name="comma" unicode="," horiz-adv-x="456" 
d="M230 -268h-214l92 485h269z" />
    <glyph glyph-name="hyphen" unicode="&#x2011;" horiz-adv-x="788" 
d="M709 435h-630v250h630v-250z" />
    <glyph glyph-name="hyphen" unicode="-" horiz-adv-x="788" 
d="M709 435h-630v250h630v-250z" />
    <glyph glyph-name="period" unicode="." horiz-adv-x="543" 
d="M109 141q0 67 48 115t115 48q68 0 115.5 -48t47.5 -115t-48 -115t-115 -48t-115 48t-48 115z" />
    <glyph glyph-name="slash" unicode="/" horiz-adv-x="685" 
d="M239 -289h-253l460 1726h252z" />
    <glyph glyph-name="zero" unicode="0" horiz-adv-x="1198" 
d="M364 728v-90q0 -209 63 -319t172 -110t172 110t63 319v90q0 208 -63 318t-172 110t-172 -109.5t-63 -318.5zM75 637v92q0 302 139.5 482t387.5 180q249 0 385 -179t136 -483v-92q0 -192 -57.5 -339.5t-178 -235.5t-290.5 -88q-249 0 -385.5 180t-136.5 483z" />
    <glyph glyph-name="one" unicode="1" horiz-adv-x="847" 
d="M693 0h-286v1095h-11q-26 -14 -150 -95t-162 -108v262q41 30 166 110.5t163 100.5h280v-1365z" />
    <glyph glyph-name="two" unicode="2" horiz-adv-x="1148" 
d="M363 952h-273v15q0 180 134 302t349 122q209 0 337.5 -107t128.5 -277q0 -111 -54.5 -203.5t-186.5 -232.5l-297 -329v-9h562v-233h-954v179l492 528q78 81 115 142.5t37 129.5q0 82 -54.5 132t-138.5 50q-88 0 -142.5 -56t-54.5 -136v-17z" />
    <glyph glyph-name="three" unicode="3" horiz-adv-x="1172" 
d="M423 593v220h141q94 0 151.5 51t57.5 132q-1 76 -57.5 125t-147.5 49q-94 0 -148 -55t-57 -127h-270q5 176 133 289.5t352 113.5q206 0 341 -100t137 -256q1 -69 -22.5 -128t-61 -96t-79.5 -59.5t-83 -28.5v-11q50 -4 99 -25.5t92 -60t70 -102t28 -141.5
q1 -121 -71.5 -215.5t-193.5 -144.5t-267 -50q-122 0 -218 33t-155.5 90.5t-91 131t-33.5 157.5h266q8 -82 71.5 -134.5t167.5 -52.5q109 0 173.5 56.5t63.5 143.5t-64.5 141t-175.5 54h-148z" />
    <glyph glyph-name="four" unicode="4" horiz-adv-x="1213" 
d="M586 1365h411v-887h164v-231h-164v-247h-271v247h-660v232q191 362 520 886zM324 478h402v673h-11q-234 -369 -391 -670v-3z" />
    <glyph glyph-name="five" unicode="5" horiz-adv-x="1213" 
d="M108 372h266q12 -79 76.5 -125t162.5 -46q97 0 170 69t73 181q0 110 -69 179t-173 69q-89 0 -148 -41t-85 -96h-255l63 804h850v-231h-620l-33 -337h11q29 43 106.5 80t185.5 37q120 0 222 -53.5t165 -158t63 -239.5q0 -222 -149 -356t-384 -134q-227 0 -359.5 114
t-138.5 284z" />
    <glyph glyph-name="six" unicode="6" horiz-adv-x="1177" 
d="M1077 1022h-270q-7 56 -60 99.5t-133 43.5q-128 0 -198.5 -127.5t-68.5 -336.5h1h11q33 79 113.5 137.5t205.5 58.5q114 0 210.5 -50t158.5 -153t62 -241q0 -149 -67.5 -259t-180 -165t-252.5 -55q-250 0 -390 175q-143 179 -143 506q0 352 145.5 543t399.5 191
q105 0 192.5 -33.5t142.5 -87.5t86 -117.5t35 -128.5zM381 441q0 -111 65.5 -176t162.5 -65q96 0 160.5 64t64.5 177q0 112 -65.5 177t-160.5 65q-98 0 -162.5 -66t-64.5 -176z" />
    <glyph glyph-name="seven" unicode="7" horiz-adv-x="1110" 
d="M70 1365h955v-238l-553 -1127h-304l572 1124v8h-670v233z" />
    <glyph glyph-name="eight" unicode="8" horiz-adv-x="1225" 
d="M613 179q108 0 179 60.5t71 156.5q0 97 -71 158t-179 61q-107 0 -178.5 -61.5t-71.5 -157.5t71.5 -156.5t178.5 -60.5zM613 807q90 0 148.5 53t58.5 137q0 83 -58.5 135t-148.5 52q-89 0 -148 -52.5t-59 -134.5q0 -83 59 -136.5t148 -53.5zM611 -26q-244 0 -390 111.5
t-146 290.5q0 77 27 140.5t71 103t92 63t99 33.5v9q-102 31 -168 107t-66 198q0 158 133 259.5t350 101.5t350.5 -101.5t133.5 -259.5q0 -123 -67 -198.5t-168 -106.5v-9q51 -10 99 -34t92 -63.5t70.5 -102t26.5 -139.5q0 -179 -147.5 -291t-391.5 -112z" />
    <glyph glyph-name="nine" unicode="9" horiz-adv-x="1177" 
d="M95 352h269q10 -62 65.5 -107t139.5 -45q71 0 125.5 38t85.5 104t45.5 148t11.5 177h-14q-26 -81 -109.5 -138.5t-215.5 -57.5q-84 0 -159.5 29.5t-134.5 84t-93.5 140.5t-34.5 191q0 147 69.5 256.5t180 163.5t244.5 54q255 0 396.5 -174.5t141.5 -517.5
q0 -338 -143 -530.5t-402 -192.5q-110 0 -200.5 34.5t-146.5 90.5t-86.5 121t-34.5 131zM805 921q0 115 -63.5 179.5t-163.5 64.5q-96 0 -161.5 -64t-65.5 -177t63.5 -176.5t160.5 -63.5t163.5 67.5t66.5 169.5z" />
    <glyph glyph-name="colon" unicode=":" horiz-adv-x="567" 
d="M119 141q0 67 47.5 115t115.5 48q67 0 115 -48t48 -115t-48 -115t-115 -48t-115 48t-48 115zM119 813q0 67 47.5 115t115.5 48q67 0 115 -48t48 -115t-48 -115t-115 -48t-115 48t-48 115z" />
    <glyph glyph-name="semicolon" unicode=";" horiz-adv-x="565" 
d="M273 -314h-214l89 541h273zM123 813q0 67 47.5 115t115.5 48q67 0 115 -48t48 -115t-48 -115t-115 -48t-115 48t-48 115z" />
    <glyph glyph-name="less" unicode="&#x3c;" horiz-adv-x="1185" 
d="M124 439v180l933 512v-280l-607 -310v-12l607 -303v-276z" />
    <glyph glyph-name="equal" unicode="=" horiz-adv-x="1185" 
d="M1067 224h-948v221h948v-221zM1067 657h-948v222h948v-222z" />
    <glyph glyph-name="greater" unicode="&#x3e;" horiz-adv-x="1185" 
d="M1057 619v-180l-933 -489v276l607 303v12l-607 310v280z" />
    <glyph glyph-name="question" unicode="?" horiz-adv-x="982" 
d="M39 983q-4 107 34 188.5t105 128t147.5 69.5t171.5 23q123 0 222 -39t162 -124t63 -204q0 -62 -16 -112.5t-49 -90t-61 -63.5t-74 -56q-99 -69 -130.5 -108t-31.5 -116v-51h-252l-2 56q-8 108 38 186t138 140q44 30 65.5 47t45.5 42t33.5 51.5t9.5 59.5q0 80 -51 120.5
t-126 40.5q-87 0 -134.5 -52.5t-48.5 -135.5h-259zM301 127q0 64 46 105t113 41t113 -41t46 -105q0 -65 -46 -106t-113 -41t-113 41t-46 106z" />
    <glyph glyph-name="at" unicode="@" horiz-adv-x="1717" 
d="M1280 133q-93 0 -162.5 40t-87.5 106h-9q-19 -65 -82.5 -105t-147.5 -40q-130 0 -205.5 88.5t-75.5 239.5v113q0 145 76.5 233t207.5 88q89 0 142.5 -41.5t69.5 -97.5h8v125h190v-498q0 -48 28.5 -75t73.5 -27q65 0 111 82.5t46 241.5v29q0 110 -40 207.5t-112.5 171
t-181.5 116.5t-240 43h-9q-272 0 -440.5 -172t-168.5 -458v-38q0 -125 32 -227.5t87.5 -173.5t131.5 -119.5t162.5 -71t182.5 -22.5h9q185 0 284 43v-157q-93 -42 -294 -42h-9q-163 0 -302 50t-242.5 144t-162 240.5t-58.5 329.5v51q0 232 100.5 410t279 274t408.5 96h8
q175 0 319.5 -56.5t237 -152.5t143 -219t50.5 -260v-49q0 -205 -97 -332.5t-261 -127.5zM716 492q0 -192 140 -192q138 0 138 180v83q0 86 -39.5 129.5t-100.5 43.5q-64 0 -101 -47t-37 -142v-55z" />
    <glyph glyph-name="A" unicode="A" horiz-adv-x="1273" 
d="M305 0h-291l452 1365h344l450 -1365h-308l-101 339h-444zM637 1093h-13l-160 -541h331z" />
    <glyph glyph-name="B" unicode="B" horiz-adv-x="1266" 
d="M141 0v1365h581q186 0 297.5 -90t111.5 -245q0 -121 -65.5 -197.5t-171.5 -101.5v-13q129 -12 217 -98t88 -234q0 -180 -132 -283t-343 -103h-583zM428 1153v-351h172q247 0 247 178q0 80 -51 126.5t-143 46.5h-225zM428 606v-393h193q148 0 216 48.5t68 144.5
q0 94 -61 147t-175 53h-241z" />
    <glyph glyph-name="C" unicode="C" horiz-adv-x="1286" 
d="M380 757v-154q0 -186 74.5 -286t211.5 -100q119 0 190 72t73 186h278v-30q0 -208 -153 -339.5t-390 -131.5q-275 0 -426.5 168t-151.5 462v153q0 296 151.5 465t426.5 169q238 0 390.5 -134.5t152.5 -349.5v-29h-278q-2 120 -73 195t-190 75q-137 0 -211.5 -101.5
t-74.5 -289.5z" />
    <glyph glyph-name="D" unicode="D" horiz-adv-x="1336" 
d="M141 1365h511q308 0 460 -175t152 -503q0 -330 -153 -508.5t-459 -178.5h-511v1365zM431 1131v-897h179q84 0 147 22t111.5 72.5t73.5 139t25 213.5q0 215 -83.5 332.5t-273.5 117.5h-179z" />
    <glyph glyph-name="E" unicode="E" horiz-adv-x="1133" 
d="M1032 234v-234h-891v1365h891v-234h-604v-332h568v-218h-568v-347h604z" />
    <glyph glyph-name="F" unicode="F" horiz-adv-x="1077" 
d="M431 0h-290v1365h883v-236h-593v-364h541v-231h-541v-534z" />
    <glyph glyph-name="G" unicode="G" horiz-adv-x="1311" 
d="M1223 924h-282q-12 102 -82.5 164t-185.5 62q-141 0 -218 -97.5t-77 -275.5v-174q0 -119 30 -203.5t99 -134.5t174 -50q123 0 196 67.5t73 168.5v78h-267v211h542v-270q0 -100 -36 -189t-103 -158t-173.5 -109t-237.5 -40q-149 0 -262.5 46t-184.5 130.5t-106.5 198
t-35.5 253.5v178q0 279 155 445t433 166q126 0 229.5 -37.5t171.5 -102t106 -148.5t42 -179z" />
    <glyph glyph-name="H" unicode="H" horiz-adv-x="1412" 
d="M1271 0h-290v577h-550v-577h-290v1365h290v-550h550v550h290v-1365z" />
    <glyph glyph-name="I" unicode="I" horiz-adv-x="572" 
d="M431 0h-290v1365h290v-1365z" />
    <glyph glyph-name="J" unicode="J" horiz-adv-x="1083" 
d="M26 405h278q2 -81 48 -128t130 -47q93 0 136.5 55.5t43.5 166.5v913h290v-917q0 -231 -123 -352.5t-345 -121.5q-112 0 -200.5 35t-144 95t-84.5 137t-29 164z" />
    <glyph glyph-name="K" unicode="K" horiz-adv-x="1273" 
d="M1260 1365l-483 -589l503 -776h-346l-369 584l-134 -154v-430h-290v1365h290v-601h13l501 601h315z" />
    <glyph glyph-name="L" unicode="L" horiz-adv-x="1025" 
d="M1000 245v-245h-859v1365h290v-1120h569z" />
    <glyph glyph-name="M" unicode="M" horiz-adv-x="1640" 
d="M402 0h-258v1365h296l377 -846h9l377 846h294v-1365h-261v884h-12l-314 -702h-181l-315 702h-12v-884z" />
    <glyph glyph-name="N" unicode="N" horiz-adv-x="1385" 
d="M410 0h-269v1365h237l587 -876h10v876h269v-1365h-236l-588 882h-10v-882z" />
    <glyph glyph-name="O" unicode="O" horiz-adv-x="1358" 
d="M381 766v-174q0 -185 81.5 -282t216.5 -97q136 0 217 96.5t81 282.5v174q0 186 -81.5 286t-216.5 100t-216.5 -100.5t-81.5 -285.5zM86 593v170q0 292 158 460t436 168t435 -168.5t157 -459.5v-170q0 -289 -157.5 -454t-436.5 -165q-278 0 -435 165t-157 454z" />
    <glyph glyph-name="P" unicode="P" horiz-adv-x="1207" 
d="M141 1365h556q218 0 342.5 -130.5t124.5 -330.5q0 -201 -125 -329t-345 -128h-264v-447h-289v1365zM429 1138v-467h153q142 0 215 53t73 180q0 112 -61.5 173t-171.5 61h-208z" />
    <glyph glyph-name="Q" unicode="Q" horiz-adv-x="1361" 
d="M89 599v165q0 289 160 458t432 169t432.5 -169.5t160.5 -457.5v-165q0 -311 -186 -480l170 -251h-283l-95 139q-93 -33 -199 -33q-272 0 -432 168.5t-160 456.5zM373 766v-172q0 -192 82.5 -294t217.5 -105q40 0 76 14l-148 215h261l63 -85q65 99 65 255v172
q0 187 -85 287t-224 100q-138 0 -223 -100t-85 -287z" />
    <glyph glyph-name="R" unicode="R" horiz-adv-x="1270" 
d="M697 1365q120 0 214 -33.5t152.5 -92.5t89 -137.5t30.5 -172.5q0 -65 -16.5 -122.5t-41.5 -98.5t-59 -75t-66 -54.5t-64 -33.5l274 -545h-322l-237 502h-225v-502h-285v1365h556zM426 715h225q110 0 172 54t62 155q0 105 -63.5 161.5t-166.5 56.5h-229v-427z" />
    <glyph glyph-name="S" unicode="S" horiz-adv-x="1217" 
d="M59 392h278q6 -81 77.5 -136t194.5 -55q118 0 182.5 48.5t64.5 129.5q0 68 -50 106.5t-158 62.5l-205 47q-76 16 -137 44.5t-110.5 73.5t-77 112t-27.5 151q0 130 69.5 226t185.5 143.5t262 47.5q228 0 369.5 -113.5t143.5 -295.5h-270q-6 78 -69 131.5t-175 53.5
q-105 0 -166 -46t-61 -125q0 -119 186 -157l207 -46q81 -17 143 -44.5t115.5 -72t82 -113t28.5 -158.5q0 -201 -146.5 -317t-400.5 -116q-116 0 -209 25t-152.5 66t-99.5 96.5t-57 112.5t-18 118z" />
    <glyph glyph-name="T" unicode="T" horiz-adv-x="1083" 
d="M686 0h-289v1125h-383v240h1055v-240h-383v-1125z" />
    <glyph glyph-name="U" unicode="U" horiz-adv-x="1367" 
d="M414 1365v-862q0 -135 73.5 -209.5t196.5 -74.5q122 0 195.5 74.5t73.5 209.5v862h289v-902q0 -221 -150 -355t-408 -134t-408 134t-150 355v902h288z" />
    <glyph glyph-name="V" unicode="V" horiz-adv-x="1261" 
d="M809 0h-353l-449 1365h335l292 -1044h12l288 1044h321z" />
    <glyph glyph-name="W" unicode="W" horiz-adv-x="1762" 
d="M630 0h-268l-357 1365h306l201 -955h11l236 955h246l235 -955h12l200 955h305l-357 -1365h-267l-246 921h-10z" />
    <glyph glyph-name="X" unicode="X" horiz-adv-x="1197" 
d="M1210 1365l-431 -684l425 -681h-330l-280 472h-13l-280 -472h-313l418 688l-416 677h341l271 -481h13l269 481h326z" />
    <glyph glyph-name="Y" unicode="Y" horiz-adv-x="1165" 
d="M727 0h-289v505l-457 860h319l281 -573h10l282 573h311l-457 -853v-512z" />
    <glyph glyph-name="Z" unicode="Z" horiz-adv-x="1183" 
d="M84 0v188l646 931v11h-630v235h980v-187l-644 -931v-12h664v-235h-1016z" />
    <glyph glyph-name="bracketleft" unicode="[" horiz-adv-x="730" 
d="M113 1365h546v-206h-277v-1182h290v-205h-559v1593z" />
    <glyph glyph-name="backslash" unicode="\" horiz-adv-x="685" 
d="M698 -289h-252l-460 1726h253z" />
    <glyph glyph-name="bracketright" unicode="]" horiz-adv-x="730" 
d="M70 1365h547v-1593h-559v205h290v1182h-278v206z" />
    <glyph glyph-name="asciicircum" unicode="^" horiz-adv-x="897" 
d="M861 795h-244l-164 348h-11l-168 -348h-238l294 570h240z" />
    <glyph glyph-name="underscore" unicode="_" horiz-adv-x="856" 
d="M883 -318h-910v215h910v-215z" />
    <glyph glyph-name="grave" unicode="`" horiz-adv-x="948" 
d="M689 1189h-196l-254 294h243z" />
    <glyph glyph-name="a" unicode="a" horiz-adv-x="1102" 
d="M708 129q-33 -64 -104 -104.5t-181 -40.5q-157 0 -253.5 87t-96.5 236q0 146 98.5 230t280.5 84h256v94q0 75 -43.5 115.5t-121.5 40.5q-76 0 -120 -37.5t-48 -99.5h-263q3 70 27.5 129.5t73.5 109.5t135 78.5t200 28.5q127 0 223.5 -37.5t155 -121.5t58.5 -206v-715
h-265v129h-12zM516 186q81 0 136.5 45.5t55.5 116.5v110h-189q-81 0 -124 -35.5t-43 -95.5q0 -67 48 -104t116 -37z" />
    <glyph glyph-name="b" unicode="b" horiz-adv-x="1215" 
d="M728 -13q-111 0 -190 47t-118 131h-12v-165h-278v1437h282v-530h12q35 76 117.5 123t187.5 47q184 0 292.5 -129.5t108.5 -368.5v-92q0 -236 -108.5 -368t-293.5 -132zM633 209q95 0 151.5 74.5t56.5 212.5v72q0 137 -57 211.5t-151 74.5q-103 0 -162.5 -73.5
t-59.5 -212.5v-71q0 -139 59.5 -213.5t162.5 -74.5z" />
    <glyph glyph-name="c" unicode="c" horiz-adv-x="1080" 
d="M83 495v85q0 226 129 364.5t351 138.5q199 0 319.5 -110t125.5 -274h-258q-10 68 -58 115t-117 47q-97 0 -153 -76t-56 -208v-80q0 -137 56.5 -215.5t153.5 -78.5q81 0 125 42.5t53 109.5h258q-15 -182 -135.5 -278t-314.5 -96q-222 0 -350.5 138.5t-128.5 375.5z" />
    <glyph glyph-name="d" unicode="d" horiz-adv-x="1213" 
d="M488 1077q107 0 187 -46.5t115 -124.5h11v531h282v-1437h-278v165h-11q-37 -83 -117.5 -130.5t-188.5 -47.5q-190 0 -296.5 134t-106.5 368v88q0 231 108 365.5t295 134.5zM584 854q-95 0 -152.5 -73.5t-57.5 -212.5v-72q0 -139 58 -212.5t154 -73.5q100 0 158.5 74
t58.5 211v73q0 134 -59.5 210t-159.5 76z" />
    <glyph glyph-name="e" unicode="e" horiz-adv-x="1117" 
d="M572 -19q-224 0 -356.5 133.5t-132.5 376.5v93q0 234 131.5 366.5t346.5 132.5q219 0 347 -137t128 -368v-105h-677v-32q0 -113 59.5 -180.5t155.5 -67.5q77 0 128.5 35.5t65.5 98.5h259q-7 -52 -27 -101t-58 -94t-88.5 -78t-123 -53t-158.5 -20zM359 645h406v2
q0 100 -56 165t-146 65q-91 0 -147.5 -65.5t-56.5 -164.5v-2z" />
    <glyph glyph-name="f" unicode="f" horiz-adv-x="758" 
d="M212 0v847h-154v217h154v105q0 161 86.5 231.5t277.5 70.5q52 0 122 -7v-198q-28 4 -66 4q-76 0 -111.5 -28t-35.5 -96v-82h204v-217h-198v-847h-279z" />
    <glyph glyph-name="g" unicode="g" horiz-adv-x="1208" 
d="M583 -191q103 0 160 57t57 161v156h-12q-30 -73 -110.5 -120.5t-188.5 -47.5q-184 0 -293 130t-109 371v62q0 239 108.5 369t293.5 130q107 0 188 -47.5t114 -124.5h12v159h278v-1057q0 -85 -29.5 -154.5t-78 -114.5t-114 -75.5t-135.5 -43.5t-145 -13q-223 0 -341 91
t-128 234h271q13 -55 67 -88.5t135 -33.5zM590 855q-100 0 -157 -74t-57 -211v-61q0 -137 57 -211.5t157 -74.5q98 0 154 74.5t56 211.5v61q0 134 -57 209.5t-153 75.5z" />
    <glyph glyph-name="h" unicode="h" horiz-adv-x="1204" 
d="M130 0v1437h281v-532h12q31 68 107.5 121.5t196.5 53.5q165 0 264.5 -102.5t99.5 -292.5v-685h-281v622q0 113 -55 166.5t-143 53.5q-94 0 -147.5 -61.5t-53.5 -162.5v-618h-281z" />
    <glyph glyph-name="i" unicode="i" horiz-adv-x="554" 
d="M137 0v1064h281v-1064h-281zM121 1329q0 63 45 103.5t111 40.5t111.5 -40.5t45.5 -103.5q0 -64 -45.5 -104.5t-111.5 -40.5t-111 40.5t-45 104.5z" />
    <glyph glyph-name="j" unicode="j" horiz-adv-x="554" 
d="M121 1329q0 63 45 103.5t111 40.5t111.5 -40.5t45.5 -103.5q0 -64 -45.5 -104.5t-111.5 -40.5t-111 40.5t-45 104.5zM417 1064v-1076q0 -178 -96.5 -265t-265.5 -87q-74 0 -112 8v200q19 -4 57 -4q70 0 103.5 35.5t33.5 115.5v1073h280z" />
    <glyph glyph-name="k" unicode="k" horiz-adv-x="1100" 
d="M409 361v-361h-281v1437h281v-804h13l332 431h324l-382 -459l408 -605h-331l-293 445z" />
    <glyph glyph-name="l" unicode="l" horiz-adv-x="550" 
d="M134 0v1437h282v-1437h-282z" />
    <glyph glyph-name="m" unicode="m" horiz-adv-x="1791" 
d="M126 0v1064h274v-157h14q25 69 97 121t184 52q118 0 193.5 -49.5t102.5 -135.5h12q28 75 112.5 130t210.5 55q161 0 252.5 -96t91.5 -256v-728h-281v647q0 98 -47.5 149t-128.5 51q-84 0 -132 -54.5t-48 -154.5v-638h-270v638q0 107 -48.5 158t-129.5 51q-78 0 -128 -52
t-50 -155v-640h-281z" />
    <glyph glyph-name="n" unicode="n" horiz-adv-x="1200" 
d="M126 0v1064h274v-159h12q30 68 109 121.5t200 53.5q166 0 265 -102.5t99 -292.5v-685h-281v622q0 113 -55.5 166.5t-141.5 53.5q-94 0 -147 -61.5t-53 -162.5v-618h-281z" />
    <glyph glyph-name="o" unicode="o" horiz-adv-x="1151" 
d="M577 1083q231 0 361 -141t130 -369v-75q0 -239 -128.5 -378t-362.5 -139q-235 0 -364.5 139t-129.5 377v75q0 227 131 369t363 142zM576 868q-104 0 -156 -81.5t-52 -212.5v-82q0 -83 20.5 -147t68.5 -106t119 -42q105 0 156.5 83t51.5 212v82q0 132 -52 213t-156 81z
" />
    <glyph glyph-name="p" unicode="p" horiz-adv-x="1207" 
d="M720 -13q-104 0 -181.5 45.5t-116.5 123.5h-12v-508h-282v1416h278v-160h12q40 80 119.5 126.5t185.5 46.5q181 0 290 -131.5t109 -368.5v-89q0 -237 -109 -369t-293 -132zM627 209q94 0 150 75t56 215v69q0 137 -55.5 212t-153.5 75t-157 -76.5t-59 -209.5v-70
q0 -135 59 -212.5t160 -77.5z" />
    <glyph glyph-name="q" unicode="q" horiz-adv-x="1212" 
d="M85 576q0 236 107.5 368.5t291.5 132.5q112 0 193 -46t118 -126h11v159h278v-1417h-282v514h-11q-31 -77 -113.5 -125.5t-195.5 -48.5q-183 0 -290 133.5t-107 373.5v82zM585 854q-98 0 -154.5 -75.5t-56.5 -212.5v-65q0 -138 57 -215.5t155 -77.5q100 0 159 78t59 215
v65q0 135 -59 211.5t-160 76.5z" />
    <glyph glyph-name="r" unicode="r" horiz-adv-x="785" 
d="M126 0v1064h282v-150h12q21 63 84.5 114t161.5 51q55 0 87 -8v-242q-33 11 -108 11q-230 0 -230 -244v-596h-289z" />
    <glyph glyph-name="s" unicode="s" horiz-adv-x="1041" 
d="M92 746q0 86 35 152.5t96.5 106t137.5 59t164 19.5q190 0 301 -87.5t111 -238.5h-248q-6 56 -46.5 95t-123.5 39q-73 0 -116.5 -32.5t-43.5 -86.5q0 -17 5 -31t16.5 -25.5t22.5 -20.5t32 -17t35 -13t41 -10.5t40.5 -8.5t43.5 -8t41 -7q79 -14 136 -34.5t103.5 -54.5
t70.5 -86.5t24 -123.5q0 -165 -121.5 -258t-337.5 -93q-207 0 -324 88t-117 232h273q8 -58 56 -92.5t127 -34.5q83 0 127.5 35t44.5 87q0 16 -4 29.5t-14 24.5t-20 19.5t-28.5 16t-31.5 12.5t-38 11t-39.5 9t-44 8.5t-43.5 8.5q-78 16 -135 38t-106.5 57.5t-75.5 89.5
t-26 126z" />
    <glyph glyph-name="t" unicode="t" horiz-adv-x="775" 
d="M213 1064v251h273v-251h205v-217h-205v-504q0 -75 35 -104.5t116 -29.5q46 0 58 2v-207q-47 -9 -126 -9q-199 0 -280.5 70.5t-81.5 236.5v545h-152v217h158z" />
    <glyph glyph-name="u" unicode="u" horiz-adv-x="1196" 
d="M1070 1064v-1064h-274v158h-13q-28 -71 -106 -122.5t-201 -51.5q-166 0 -263.5 97t-97.5 281v702h282v-628q0 -117 54.5 -166t138.5 -49q87 0 143 56.5t56 161.5v625h281z" />
    <glyph glyph-name="v" unicode="v" horiz-adv-x="1035" 
d="M347 0l-347 1064h301l205 -791h10l228 791h291l-367 -1064h-321z" />
    <glyph glyph-name="w" unicode="w" horiz-adv-x="1590" 
d="M1566 1064l-272 -1064h-297l-197 745h-9l-197 -745h-299l-271 1064h285l150 -774h12l193 774h265l194 -774h11l151 774h281z" />
    <glyph glyph-name="x" unicode="x" horiz-adv-x="1082" 
d="M744 0l-207 354h-8l-205 -354h-299l331 533l-336 531h324l201 -354h8l201 354h309l-345 -531l340 -533h-314z" />
    <glyph glyph-name="y" unicode="y" horiz-adv-x="1058" 
d="M1056 1064q-338 -1015 -343 -1027l-27 -73q-24 -63 -49 -110.5t-63 -93t-84 -74t-112 -46t-148 -17.5q-95 0 -153 12v200q32 -7 89 -7q94 0 136 34t55 104l8 34l-363 1064h311l214 -816h11l220 816h298z" />
    <glyph glyph-name="z" unicode="z" horiz-adv-x="1006" 
d="M86 0v162l499 672v10h-488v220h828v-179l-480 -654v-11h494v-220h-853z" />
    <glyph glyph-name="braceleft" unicode="{" horiz-adv-x="804" 
d="M316 598v-28q198 -17 198 -235v-249q0 -110 42.5 -152.5t159.5 -42.5h41v-204h-100q-212 0 -311.5 83.5t-99.5 279.5v209q0 107 -32.5 152t-125.5 45v256q93 0 125.5 45t32.5 152v178q0 193 99 273.5t312 80.5h100v-203h-41q-117 0 -159.5 -42.5t-42.5 -152.5v-226
q0 -106 -49 -158t-149 -61z" />
    <glyph glyph-name="bar" unicode="|" horiz-adv-x="711" 
d="M482 -299h-253v1736h253v-1736z" />
    <glyph glyph-name="braceright" unicode="}" horiz-adv-x="805" 
d="M489 570v28q-99 9 -148 61t-49 158v226q0 110 -43 152.5t-159 42.5h-42v203h100q213 0 311.5 -80t98.5 -274v-178q0 -107 33 -152t127 -45v-256q-94 0 -127 -45t-33 -152v-209q0 -196 -99 -279.5t-311 -83.5h-100v204h42q116 0 159 42.5t43 152.5v249q0 218 197 235z" />
    <glyph glyph-name="asciitilde" unicode="~" horiz-adv-x="1115" 
d="M763 482q-56 0 -106 19.5t-85.5 47t-67 54.5t-65 46.5t-65.5 19.5q-53 0 -78.5 -45t-28.5 -112h-211q-8 165 70 276t224 111q57 0 106.5 -19.5t84 -46.5t64.5 -54.5t63.5 -47t66.5 -19.5q102 0 108 158h212q4 -172 -73.5 -280t-218.5 -108z" />
    <glyph glyph-name="nonbreakingspace" unicode="&#xa0;" horiz-adv-x="402" 
 />
    <glyph glyph-name="exclamdown" unicode="&#xa1;" horiz-adv-x="565" 
d="M437 -278h-309l32 949h244zM441 963q0 -65 -45.5 -106t-112.5 -41t-113 41t-46 106q0 64 46 105t113 41t112.5 -41t45.5 -105z" />
    <glyph glyph-name="cent" unicode="&#xa2;" horiz-adv-x="1212" 
d="M1070 531q-3 -152 -105 -250.5t-249 -114.5v-209h-212v208q-78 8 -146.5 43t-121 93t-83 145.5t-30.5 193.5v102q0 199 110 322t271 143v201h212v-204q149 -16 248 -120.5t102 -249.5h-251q-8 73 -66.5 121.5t-140.5 48.5q-102 0 -163.5 -71.5t-61.5 -189.5v-105
q0 -123 61.5 -194t165.5 -71q88 0 143.5 43.5t65.5 114.5h251z" />
    <glyph glyph-name="sterling" unicode="&#xa3;" horiz-adv-x="1212" 
d="M527 219h584v-219h-975v204q112 16 183 96.5t71 186.5q0 52 -15 119h-244v168h196q-43 144 -43 236q0 181 140.5 281t382.5 100q133 0 239 -42v-215q-105 40 -219 40q-124 0 -194 -54.5t-70 -150.5q0 -83 36 -195h374v-168h-324q12 -58 12 -105q0 -87 -36.5 -159
t-97.5 -107v-16z" />
    <glyph glyph-name="currency" unicode="&#xa4;" horiz-adv-x="1212" 
d="M985 124l-161 162q-99 -60 -216 -60q-120 0 -219 62l-163 -164l-142 142l163 163q-64 100 -64 221q0 118 61 218l-160 159l142 142l159 -159q101 65 223 65q119 0 220 -63l157 157l142 -142l-157 -157q62 -102 62 -220q0 -121 -65 -224l160 -160zM391 650
q0 -89 63.5 -152.5t153.5 -63.5q89 0 152.5 63.5t63.5 152.5q0 90 -63.5 153.5t-152.5 63.5q-90 0 -153.5 -63.5t-63.5 -153.5z" />
    <glyph glyph-name="yen" unicode="&#xa5;" horiz-adv-x="1212" 
d="M1039 194h-288v-194h-289v194h-285v174h285v118h-285v175h206l-368 704h319l269 -573h12l270 573h311l-368 -704h211v-175h-288v-118h288v-174z" />
    <glyph glyph-name="brokenbar" unicode="&#xa6;" horiz-adv-x="711" 
d="M482 780h-253v657h253v-657zM482 -299h-253v679h253v-679z" />
    <glyph glyph-name="section" unicode="&#xa7;" horiz-adv-x="930" 
d="M627 73q0 17 -4 31t-14 26t-19.5 21t-27.5 18.5t-31.5 15.5t-38 13.5t-40 12t-44.5 12.5t-45 13q-68 19 -117 41t-94.5 56.5t-69 85.5t-23.5 118q0 161 166 253v7q-158 92 -158 259q0 107 57 184.5t147.5 114.5t203.5 37q179 0 285.5 -90.5t106.5 -236.5h-231
q-3 52 -48.5 92.5t-119.5 40.5q-67 0 -108 -35.5t-41 -91.5q0 -34 16.5 -59.5t56 -44t68 -27.5t89.5 -25q20 -5 30 -8q53 -14 91.5 -27.5t82.5 -38t71 -54t45.5 -75.5t18.5 -103q0 -162 -156 -267v-7q70 -42 109 -96t39 -142q0 -156 -114 -252t-303 -96q-180 0 -294 88
t-116 238h234q9 -60 53.5 -95.5t121.5 -35.5q83 0 124 37t41 92zM545 405q42 19 70 62t28 92q0 63 -44.5 99t-127.5 56q-37 9 -63 13q-43 -17 -74.5 -59.5t-31.5 -93.5q0 -63 44 -97t127 -55q3 -1 35.5 -8.5t36.5 -8.5z" />
    <glyph glyph-name="dieresis" unicode="&#xa8;" horiz-adv-x="946" 
d="M277 1194q-50 0 -83 33t-33 83q0 52 33 85.5t83 33.5q51 0 84.5 -33.5t33.5 -85.5q0 -50 -33.5 -83t-84.5 -33zM665 1194q-49 0 -81.5 33t-32.5 83q0 52 32 85.5t82 33.5q52 0 86 -33.5t34 -85.5q0 -50 -34 -83t-86 -33z" />
    <glyph glyph-name="copyright" unicode="&#xa9;" horiz-adv-x="1640" 
d="M480 632v99q0 155 98 243.5t251 88.5q140 0 229.5 -80t91.5 -190h-175q-4 45 -40 80t-105 35q-168 0 -168 -183v-94q0 -88 45.5 -131t122.5 -43q68 0 105 27t43 72h174q-2 -108 -89 -183.5t-234 -75.5q-154 0 -251.5 88t-97.5 247zM237 642q0 -252 161.5 -413t423.5 -161
t425 161t163 413v105q0 114 -43 215.5t-119.5 176t-187 118t-238.5 43.5t-238 -43t-185.5 -117.5t-118.5 -176t-43 -216.5v-105zM823 -64q-209 0 -374 92t-255.5 253.5t-90.5 362.5v103q0 142 54 268t148 218t229 145.5t289 53.5q155 0 290 -54t228.5 -146.5t147.5 -218.5
t54 -266v-103q0 -151 -53 -282t-146.5 -224.5t-228.5 -147.5t-292 -54z" />
    <glyph glyph-name="ordfeminine" unicode="&#xaa;" horiz-adv-x="706" 
d="M423 779q-19 -40 -62.5 -64t-105.5 -24q-101 0 -161 54.5t-60 147.5q0 96 67.5 148.5t193.5 52.5h127v51q0 35 -19 53.5t-54 18.5q-34 0 -54 -18t-22 -48h-215q3 104 78.5 166t215.5 62q141 0 218.5 -60t77.5 -176v-443h-214v79h-11zM335 845q38 0 62.5 21.5t24.5 55.5
v55h-74q-43 0 -66 -17t-23 -48t22 -49t54 -18z" />
    <glyph glyph-name="guillemotleft" unicode="&#xab;" horiz-adv-x="1298" 
d="M602 565l344 394h250l-339 -393v-6l339 -395h-259l-335 392v8zM96 565l344 394h250l-339 -393v-6l339 -395h-259l-335 392v8z" />
    <glyph glyph-name="logicalnot" unicode="&#xac;" horiz-adv-x="1185" 
d="M1099 86h-244v345h-774v224h1018v-569z" />
    <glyph glyph-name="registered" unicode="&#xae;" horiz-adv-x="964" 
d="M482 605q-177 0 -293.5 112t-116.5 282v57q0 161 117.5 271t292.5 110q174 0 292 -111t118 -270v-57q0 -170 -115.5 -282t-294.5 -112zM482 701q135 0 223 85.5t88 213.5v54q0 120 -89 204t-222 84t-221.5 -84t-88.5 -204v-54q0 -128 88 -213.5t222 -85.5zM423 1152v-108
h61q71 0 71 55q0 53 -64 53h-68zM422 834h-100v395h200q62 0 99.5 -35t37.5 -89q0 -43 -22 -75t-55 -44l93 -152h-117l-79 138h-57v-138z" />
    <glyph glyph-name="macron" unicode="&#xaf;" horiz-adv-x="943" 
d="M766 1225h-590v157h590v-157z" />
    <glyph glyph-name="degree" unicode="&#xb0;" horiz-adv-x="563" 
d="M282 885q-106 0 -178 72.5t-72 178.5q0 105 72 177t178 72t178 -72t72 -177q0 -106 -72.5 -178.5t-177.5 -72.5zM283 1028q45 0 75 31.5t30 76.5t-30.5 76t-74.5 31t-75.5 -31t-31.5 -76q0 -44 31.5 -76t75.5 -32z" />
    <glyph glyph-name="plusminus" unicode="&#xb1;" horiz-adv-x="1185" 
d="M711 642v-246h-243v246h-361v212h361v230h243v-230h365v-212h-365zM1078 64h-969v219h969v-219z" />
    <glyph glyph-name="two.sups" unicode="&#xb2;" horiz-adv-x="637" 
d="M240 1474h-204v10q0 97 76.5 163t206.5 66q121 0 195.5 -56.5t74.5 -146.5q0 -58 -27.5 -98.5t-89.5 -97.5l-113 -110v-9h240v-162h-550v135l277 245q49 45 49 83q0 25 -19 42t-47 17q-31 0 -50 -19.5t-19 -48.5v-13z" />
    <glyph glyph-name="three.sups" unicode="&#xb3;" horiz-adv-x="647" 
d="M249 1305v131h55q34 0 53.5 16.5t19.5 45.5q0 26 -19 43t-50 17q-32 0 -51.5 -21t-20.5 -51h-199q5 108 79.5 167.5t212.5 59.5q116 0 192 -50.5t77 -129.5q0 -60 -36.5 -99.5t-87.5 -46.5v-12q59 -7 99 -47.5t40 -104.5q0 -93 -84 -149.5t-213 -56.5q-134 0 -209.5 64
t-74.5 165h198q1 -33 22 -52.5t57 -19.5q34 0 55 18.5t21 47.5t-20.5 47t-59.5 18h-56z" />
    <glyph glyph-name="acute" unicode="&#xb4;" horiz-adv-x="948" 
d="M466 1189h-195l207 294h243z" />
    <glyph glyph-name="mugreek" unicode="&#x3bc;" horiz-adv-x="1301" 
d="M128 -352v1416h281v-628q0 -101 47.5 -158t135.5 -57q92 0 148 61.5t56 153.5v628h282v-739q0 -68 18.5 -93.5t66.5 -25.5q20 0 46 6v-206q-52 -14 -129 -14q-206 0 -237 166l-3 18h-12q-57 -192 -243 -192q-53 0 -97 22t-65 60h-13v-418h-282z" />
    <glyph glyph-name="mugreek" unicode="&#xb5;" horiz-adv-x="1301" 
d="M128 -352v1416h281v-628q0 -101 47.5 -158t135.5 -57q92 0 148 61.5t56 153.5v628h282v-739q0 -68 18.5 -93.5t66.5 -25.5q20 0 46 6v-206q-52 -14 -129 -14q-206 0 -237 166l-3 18h-12q-57 -192 -243 -192q-53 0 -97 22t-65 60h-13v-418h-282z" />
    <glyph glyph-name="paragraph" unicode="&#xb6;" horiz-adv-x="1422" 
d="M847 -210h-266v650h-20q-65 0 -130 17.5t-126.5 55t-108.5 91t-76 131.5t-29 169q0 99 29 179.5t76 132t109.5 86t126.5 49t130 14.5h285v-1575zM1010 -210v1575h266v-1575h-266z" />
    <glyph glyph-name="periodcentered" unicode="&#xb7;" horiz-adv-x="610" 
d="M139 528q0 68 49 117t117 49t117 -49t49 -117t-49 -117t-117 -49t-117 49t-49 117z" />
    <glyph glyph-name="cedilla" unicode="&#xb8;" horiz-adv-x="948" 
d="M355 -236v105l52 136h161l-47 -122q88 0 140 -45t52 -124q0 -97 -66.5 -145.5t-181.5 -50.5q-86 -3 -146 15v126q47 -14 111 -14q109 0 109 60q0 35 -30 47t-99 12h-55z" />
    <glyph glyph-name="one.sups" unicode="&#xb9;" horiz-adv-x="501" 
d="M421 1033h-224v468h-12q-3 -1 -37.5 -24t-70 -46.5t-38.5 -25.5v189q6 4 80.5 52t81.5 52h220v-665z" />
    <glyph glyph-name="ordmasculine" unicode="&#xba;" horiz-adv-x="726" 
d="M364 1380q152 0 238.5 -89t86.5 -234v-37q0 -158 -85 -244t-240 -86t-241 86t-86 242v37q0 145 87.5 235t239.5 90zM363 1213q-92 0 -92 -153v-50q0 -40 7 -71.5t28.5 -56.5t56.5 -25q93 0 93 153v50q0 153 -93 153z" />
    <glyph glyph-name="guillemotright" unicode="&#xbb;" horiz-adv-x="1298" 
d="M1201 565v-8l-335 -392h-259l339 395v6l-339 393h250zM695 565v-8l-335 -392h-259l339 395v6l-339 393h250z" />
    <glyph glyph-name="onequarter" unicode="&#xbc;" horiz-adv-x="1506" 
d="M1112 665h299v-415h74v-160h-74v-90h-204v90h-328v164q62 127 233 411zM1067 250h140v256h-7q-92 -164 -133 -253v-3zM421 700h-224v468h-12q-3 -1 -37.5 -24t-70 -46.5t-38.5 -25.5v189q6 4 80.5 52t81.5 52h220v-665zM331 -1h-217l559 717l493 649h217l-549 -703z" />
    <glyph glyph-name="onehalf" unicode="&#xbd;" horiz-adv-x="1555" 
d="M1158 441h-204v10q0 97 76.5 163t206.5 66q121 0 195.5 -56.5t74.5 -146.5q0 -58 -27.5 -98.5t-89.5 -97.5l-113 -110v-9h240v-162h-550v135l277 245q49 45 49 83q0 25 -19 42t-47 17q-31 0 -50 -19.5t-19 -48.5v-13zM421 700h-224v468h-12q-3 -1 -37.5 -24t-70 -46.5
t-38.5 -25.5v189q6 4 80.5 52t81.5 52h220v-665zM321 -1h-217l559 717l493 649h217l-549 -703z" />
    <glyph glyph-name="threequarters" unicode="&#xbe;" horiz-adv-x="1541" 
d="M249 972v131h55q34 0 53.5 16.5t19.5 45.5q0 26 -19 43t-50 17q-32 0 -51.5 -21t-20.5 -51h-199q5 108 79.5 167.5t212.5 59.5q116 0 192 -50.5t77 -129.5q0 -60 -36.5 -99.5t-87.5 -46.5v-12q59 -7 99 -47.5t40 -104.5q0 -93 -84 -149.5t-213 -56.5q-134 0 -209.5 64
t-74.5 165h198q1 -33 22 -52.5t57 -19.5q34 0 55 18.5t21 47.5t-20.5 47t-59.5 18h-56zM1147 665h299v-415h74v-160h-74v-90h-204v90h-328v164q62 127 233 411zM1102 250h140v256h-7q-92 -164 -133 -253v-3zM366 -1h-217l559 717l493 649h217l-549 -703z" />
    <glyph glyph-name="questiondown" unicode="&#xbf;" horiz-adv-x="982" 
d="M943 102q3 -86 -21.5 -156.5t-68 -116.5t-103.5 -77.5t-126 -45.5t-138 -14q-91 0 -171 23t-142 67.5t-98 116t-36 161.5q0 62 16 112.5t49 90t60.5 63.5t73.5 56q99 69 130.5 108t31.5 116v51h253l1 -56q9 -108 -37 -186t-139 -140q-44 -31 -64.5 -47t-45.5 -41.5
t-34.5 -52t-9.5 -59.5q0 -80 51.5 -120.5t126.5 -40.5q86 0 134 52.5t49 135.5h258zM682 963q0 -65 -46 -106t-113 -41t-113 41t-46 106q0 64 46 105t113 41t113 -41t46 -105z" />
    <glyph glyph-name="Agrave" unicode="&#xc0;" horiz-adv-x="1272" 
d="M305 0h-291l452 1365h344l450 -1365h-308l-101 339h-444zM637 1093h-13l-160 -541h331zM746 1504h-196l-255 294h243z" />
    <glyph glyph-name="Aacute" unicode="&#xc1;" horiz-adv-x="1272" 
d="M305 0h-291l452 1365h344l450 -1365h-308l-101 339h-444zM637 1093h-13l-160 -541h331zM722 1504h-196l208 294h243z" />
    <glyph glyph-name="Acircumflex" unicode="&#xc2;" horiz-adv-x="1273" 
d="M305 0h-291l452 1365h344l450 -1365h-308l-101 339h-444zM637 1093h-13l-160 -541h331zM311 1504l232 276h188l232 -276h-208l-113 147h-10l-113 -147h-208z" />
    <glyph glyph-name="Atilde" unicode="&#xc3;" horiz-adv-x="1272" 
d="M305 0h-291l452 1365h344l450 -1365h-308l-101 339h-444zM637 1093h-13l-160 -541h331zM749 1475q-44 0 -80.5 17.5t-56.5 38t-43 38t-43 17.5q-29 0 -44 -26.5t-17 -62.5h-141q0 88 51 153.5t143 65.5q44 0 82 -17.5t59.5 -38t45.5 -38t44 -17.5q28 0 43.5 28.5
t17.5 66.5h141q0 -93 -55.5 -159t-146.5 -66z" />
    <glyph glyph-name="Adieresis" unicode="&#xc4;" horiz-adv-x="1273" 
d="M305 0h-291l452 1365h344l450 -1365h-308l-101 339h-444zM637 1093h-13l-160 -541h331zM459 1473q-45 0 -75.5 31.5t-30.5 78.5t30.5 79.5t75.5 32.5q47 0 79.5 -32.5t32.5 -79.5q0 -46 -32.5 -78t-79.5 -32zM813 1473q-46 0 -77 31.5t-31 78.5t31 79.5t77 32.5t78 -32.5
t32 -79.5t-31.5 -78.5t-78.5 -31.5z" />
    <glyph glyph-name="Aring" unicode="&#xc5;" horiz-adv-x="1273" 
d="M305 0h-291l452 1365h344l450 -1365h-308l-101 339h-444zM637 1093h-13l-160 -541h331zM637 1462q-94 0 -156.5 60t-62.5 152t62.5 151t156.5 59t156 -59t62 -151t-62.5 -152t-155.5 -60zM544 1673q0 -40 26 -66.5t66 -26.5t66.5 26.5t26.5 66.5t-26.5 66.5t-66.5 26.5
t-66 -26.5t-26 -66.5z" />
    <glyph glyph-name="AE" unicode="&#xc6;" horiz-adv-x="1900" 
d="M845 1132l-261 -572l328 1v571h-67zM912 338h-423l-164 -338h-318l657 1365h1135v-233h-601v-333h565v-218h-565v-347h601v-234h-887v338z" />
    <glyph glyph-name="Ccedilla" unicode="&#xc7;" horiz-adv-x="1286" 
d="M639 -482q-87 0 -136 15v126q49 -14 111 -14q109 0 109 59q0 32 -26.5 46t-101.5 14h-55v105l41 109q-237 26 -366 191t-129 435v153q0 296 151.5 465t426.5 169q238 0 390.5 -134.5t152.5 -349.5v-29h-278q-2 120 -73 195t-190 75q-137 0 -211.5 -101.5t-74.5 -289.5
v-154q0 -186 74.5 -286t211.5 -100q119 0 190 72t73 186h278v-30q0 -189 -129 -317t-335 -149l-38 -96q91 0 141.5 -45.5t50.5 -123.5q0 -97 -67.5 -146.5t-190.5 -49.5z" />
    <glyph glyph-name="Egrave" unicode="&#xc8;" horiz-adv-x="1133" 
d="M687 1504h-196l-255 294h243zM1032 234v-234h-891v1365h891v-234h-604v-332h568v-218h-568v-347h604z" />
    <glyph glyph-name="Eacute" unicode="&#xc9;" horiz-adv-x="1133" 
d="M663 1504h-196l208 294h243zM1032 234v-234h-891v1365h891v-234h-604v-332h568v-218h-568v-347h604z" />
    <glyph glyph-name="Ecircumflex" unicode="&#xca;" horiz-adv-x="1133" 
d="M251 1504l232 276h188l232 -276h-208l-113 147h-10l-113 -147h-208zM1032 234v-234h-891v1365h891v-234h-604v-332h568v-218h-568v-347h604z" />
    <glyph glyph-name="Edieresis" unicode="&#xcb;" horiz-adv-x="1133" 
d="M398 1473q-45 0 -75.5 31.5t-30.5 78.5t30.5 79.5t75.5 32.5q47 0 79.5 -32.5t32.5 -79.5q0 -46 -32.5 -78t-79.5 -32zM752 1473q-46 0 -77 31.5t-31 78.5t31 79.5t77 32.5t78 -32.5t32 -79.5t-32 -78.5t-78 -31.5zM1032 234v-234h-891v1365h891v-234h-604v-332h568v-218
h-568v-347h604z" />
    <glyph glyph-name="Igrave" unicode="&#xcc;" horiz-adv-x="572" 
d="M431 0h-290v1365h290v-1365zM396 1504h-196l-255 294h243z" />
    <glyph glyph-name="Iacute" unicode="&#xcd;" horiz-adv-x="572" 
d="M431 0h-290v1365h290v-1365zM372 1504h-196l208 294h243z" />
    <glyph glyph-name="Icircumflex" unicode="&#xce;" horiz-adv-x="572" 
d="M431 0h-290v1365h290v-1365zM-40 1504l232 276h188l232 -276h-208l-113 147h-10l-113 -147h-208z" />
    <glyph glyph-name="Idieresis" unicode="&#xcf;" horiz-adv-x="572" 
d="M431 0h-290v1365h290v-1365zM107 1473q-45 0 -75.5 31.5t-30.5 78.5t30.5 79.5t75.5 32.5q47 0 79.5 -32.5t32.5 -79.5q0 -46 -32.5 -78t-79.5 -32zM461 1473q-46 0 -77 31.5t-31 78.5t31 79.5t77 32.5t78 -32.5t32 -79.5t-31.5 -78.5t-78.5 -31.5z" />
    <glyph glyph-name="Eth" unicode="&#xd0;" horiz-adv-x="1426" 
d="M704 0h-511v567h-127v250h127v548h511q308 0 460 -175t152 -503q0 -330 -153 -508.5t-459 -178.5zM482 240h179q85 0 147.5 22t111 72.5t73 138.5t24.5 214q0 214 -83.5 332t-272.5 118h-179v-320h273v-250h-273v-327z" />
    <glyph glyph-name="Ntilde" unicode="&#xd1;" horiz-adv-x="1385" 
d="M805 1475q-44 0 -80.5 17.5t-56.5 38t-43 38t-43 17.5q-29 0 -44 -26.5t-17 -62.5h-141q0 88 51 153.5t143 65.5q44 0 82 -17.5t59.5 -38t45.5 -38t44 -17.5q28 0 43.5 28.5t17.5 66.5h141q0 -93 -55.5 -159t-146.5 -66zM410 0h-269v1365h237l587 -876h10v876h269v-1365
h-236l-588 882h-10v-882z" />
    <glyph glyph-name="Ograve" unicode="&#xd2;" horiz-adv-x="1358" 
d="M788 1504h-196l-255 294h243zM381 766v-174q0 -185 81.5 -282t216.5 -97q136 0 217 96.5t81 282.5v174q0 186 -81.5 286t-216.5 100t-216.5 -100.5t-81.5 -285.5zM86 593v170q0 292 158 460t436 168t435 -168.5t157 -459.5v-170q0 -289 -157.5 -454t-436.5 -165
q-278 0 -435 165t-157 454z" />
    <glyph glyph-name="Oacute" unicode="&#xd3;" horiz-adv-x="1358" 
d="M764 1504h-196l208 294h243zM381 766v-174q0 -185 81.5 -282t216.5 -97q136 0 217 96.5t81 282.5v174q0 186 -81.5 286t-216.5 100t-216.5 -100.5t-81.5 -285.5zM86 593v170q0 292 158 460t436 168t435 -168.5t157 -459.5v-170q0 -289 -157.5 -454t-436.5 -165
q-278 0 -435 165t-157 454z" />
    <glyph glyph-name="Ocircumflex" unicode="&#xd4;" horiz-adv-x="1358" 
d="M352 1504l232 276h188l232 -276h-208l-113 147h-10l-113 -147h-208zM381 766v-174q0 -185 81.5 -282t216.5 -97q136 0 217 96.5t81 282.5v174q0 186 -81.5 286t-216.5 100t-216.5 -100.5t-81.5 -285.5zM86 593v170q0 292 158 460t436 168t435 -168.5t157 -459.5v-170
q0 -289 -157.5 -454t-436.5 -165q-278 0 -435 165t-157 454z" />
    <glyph glyph-name="Otilde" unicode="&#xd5;" horiz-adv-x="1358" 
d="M381 766v-174q0 -185 81.5 -282t216.5 -97q136 0 217 96.5t81 282.5v174q0 186 -81.5 286t-216.5 100t-216.5 -100.5t-81.5 -285.5zM86 593v170q0 292 158 460t436 168t435 -168.5t157 -459.5v-170q0 -289 -157.5 -454t-436.5 -165q-278 0 -435 165t-157 454zM791 1475
q-44 0 -80.5 17.5t-56.5 38t-43 38t-43 17.5q-29 0 -44 -26.5t-17 -62.5h-141q0 88 51 153.5t143 65.5q44 0 82 -17.5t59.5 -38t45.5 -38t44 -17.5q28 0 43.5 28.5t17.5 66.5h141q0 -93 -55.5 -159t-146.5 -66z" />
    <glyph glyph-name="Odieresis" unicode="&#xd6;" horiz-adv-x="1358" 
d="M500 1473q-45 0 -75.5 31.5t-30.5 78.5t30.5 79.5t75.5 32.5q47 0 79.5 -32.5t32.5 -79.5q0 -46 -32.5 -78t-79.5 -32zM854 1473q-46 0 -77 31.5t-31 78.5t31 79.5t77 32.5t78 -32.5t32 -79.5t-32 -78.5t-78 -31.5zM381 766v-174q0 -185 81.5 -282t216.5 -97
q136 0 217 96.5t81 282.5v174q0 186 -81.5 286t-216.5 100t-216.5 -100.5t-81.5 -285.5zM86 593v170q0 292 158 460t436 168t435 -168.5t157 -459.5v-170q0 -289 -157.5 -454t-436.5 -165q-278 0 -435 165t-157 454z" />
    <glyph glyph-name="multiply" unicode="&#xd7;" horiz-adv-x="1185" 
d="M895 60l-302 303l-303 -303l-172 173l302 303l-302 302l172 173l303 -303l302 303l172 -173l-302 -302l302 -303z" />
    <glyph glyph-name="Oslash" unicode="&#xd8;" horiz-adv-x="1357" 
d="M677 -26q-230 0 -376 119l-99 -122l-126 103l111 137q-101 153 -101 382v170q0 292 158 460t435 168q226 0 372 -117l88 109l130 -96l-105 -129q107 -157 107 -395v-170q0 -289 -157.5 -454t-436.5 -165zM373 589q0 -77 18 -129l494 611q-80 86 -208 86
q-138 0 -221 -101.5t-83 -289.5v-177zM677 205q139 0 222 98t83 286v177q0 85 -21 142l-497 -614q79 -89 213 -89z" />
    <glyph glyph-name="Ugrave" unicode="&#xd9;" horiz-adv-x="1367" 
d="M793 1504h-196l-255 294h243zM414 1365v-862q0 -135 73.5 -209.5t196.5 -74.5q122 0 195.5 74.5t73.5 209.5v862h289v-902q0 -221 -150 -355t-408 -134t-408 134t-150 355v902h288z" />
    <glyph glyph-name="Uacute" unicode="&#xda;" horiz-adv-x="1367" 
d="M769 1504h-196l208 294h243zM414 1365v-862q0 -135 73.5 -209.5t196.5 -74.5q122 0 195.5 74.5t73.5 209.5v862h289v-902q0 -221 -150 -355t-408 -134t-408 134t-150 355v902h288z" />
    <glyph glyph-name="Ucircumflex" unicode="&#xdb;" horiz-adv-x="1367" 
d="M357 1504l232 276h188l232 -276h-208l-113 147h-10l-113 -147h-208zM414 1365v-862q0 -135 73.5 -209.5t196.5 -74.5q122 0 195.5 74.5t73.5 209.5v862h289v-902q0 -221 -150 -355t-408 -134t-408 134t-150 355v902h288z" />
    <glyph glyph-name="Udieresis" unicode="&#xdc;" horiz-adv-x="1367" 
d="M504 1473q-45 0 -75.5 31.5t-30.5 78.5t30.5 79.5t75.5 32.5q47 0 79.5 -32.5t32.5 -79.5q0 -46 -32.5 -78t-79.5 -32zM858 1473q-46 0 -77 31.5t-31 78.5t31 79.5t77 32.5t78 -32.5t32 -79.5t-32 -78.5t-78 -31.5zM414 1365v-862q0 -135 73.5 -209.5t196.5 -74.5
q122 0 195.5 74.5t73.5 209.5v862h289v-902q0 -221 -150 -355t-408 -134t-408 134t-150 355v902h288z" />
    <glyph glyph-name="Yacute" unicode="&#xdd;" horiz-adv-x="1164" 
d="M727 0h-289v505l-457 860h319l281 -573h10l282 573h311l-457 -853v-512zM668 1504h-196l208 294h243z" />
    <glyph glyph-name="Thorn" unicode="&#xde;" horiz-adv-x="1205" 
d="M141 1365h288v-224h258q220 0 343.5 -121.5t123.5 -319.5q0 -199 -124 -318t-346 -119h-254v-263h-289v1365zM429 914v-428h176q121 0 188 47.5t67 166.5q0 107 -61 160.5t-172 53.5h-198z" />
    <glyph glyph-name="germandbls" unicode="&#xdf;" horiz-adv-x="1323" 
d="M418 0h-282v1048q0 98 38.5 175.5t106.5 125.5t156.5 73t192.5 25q222 0 356 -101.5t134 -261.5q0 -133 -73 -217.5t-162 -100.5v-16q68 -1 131.5 -24.5t115.5 -67t83.5 -113.5t31.5 -156q0 -100 -39.5 -178.5t-108 -127.5t-156.5 -74.5t-188 -25.5q-115 0 -180 19v221
q50 -19 134 -19q110 0 180 49.5t70 149.5q0 98 -78.5 151.5t-202.5 53.5h-79v233h47q79 0 139 55t60 140q0 82 -54.5 133.5t-154.5 51.5q-218 0 -218 -230v-991z" />
    <glyph glyph-name="agrave" unicode="&#xe0;" horiz-adv-x="1102" 
d="M708 129q-33 -64 -104 -104.5t-181 -40.5q-157 0 -253.5 87t-96.5 236q0 146 98.5 230t280.5 84h256v94q0 75 -43.5 115.5t-121.5 40.5q-76 0 -120 -37.5t-48 -99.5h-263q3 70 27.5 129.5t73.5 109.5t135 78.5t200 28.5q127 0 223.5 -37.5t155 -121.5t58.5 -206v-715
h-265v129h-12zM516 186q81 0 136.5 45.5t55.5 116.5v110h-189q-81 0 -124 -35.5t-43 -95.5q0 -67 48 -104t116 -37zM663 1189h-196l-254 294h243z" />
    <glyph glyph-name="aacute" unicode="&#xe1;" horiz-adv-x="1102" 
d="M708 129q-33 -64 -104 -104.5t-181 -40.5q-157 0 -253.5 87t-96.5 236q0 146 98.5 230t280.5 84h256v94q0 75 -43.5 115.5t-121.5 40.5q-76 0 -120 -37.5t-48 -99.5h-263q3 70 27.5 129.5t73.5 109.5t135 78.5t200 28.5q127 0 223.5 -37.5t155 -121.5t58.5 -206v-715
h-265v129h-12zM516 186q81 0 136.5 45.5t55.5 116.5v110h-189q-81 0 -124 -35.5t-43 -95.5q0 -67 48 -104t116 -37zM636 1189h-195l207 294h243z" />
    <glyph glyph-name="acircumflex" unicode="&#xe2;" horiz-adv-x="1102" 
d="M708 129q-33 -64 -104 -104.5t-181 -40.5q-157 0 -253.5 87t-96.5 236q0 146 98.5 230t280.5 84h256v94q0 75 -43.5 115.5t-121.5 40.5q-76 0 -120 -37.5t-48 -99.5h-263q3 70 27.5 129.5t73.5 109.5t135 78.5t200 28.5q127 0 223.5 -37.5t155 -121.5t58.5 -206v-715
h-265v129h-12zM516 186q81 0 136.5 45.5t55.5 116.5v110h-189q-81 0 -124 -35.5t-43 -95.5q0 -67 48 -104t116 -37zM224 1189l232 311h191l233 -311h-212l-113 172h-6l-114 -172h-211z" />
    <glyph glyph-name="atilde" unicode="&#xe3;" horiz-adv-x="1102" 
d="M708 129q-33 -64 -104 -104.5t-181 -40.5q-157 0 -253.5 87t-96.5 236q0 146 98.5 230t280.5 84h256v94q0 75 -43.5 115.5t-121.5 40.5q-76 0 -120 -37.5t-48 -99.5h-263q3 70 27.5 129.5t73.5 109.5t135 78.5t200 28.5q127 0 223.5 -37.5t155 -121.5t58.5 -206v-715
h-265v129h-12zM516 186q81 0 136.5 45.5t55.5 116.5v110h-189q-81 0 -124 -35.5t-43 -95.5q0 -67 48 -104t116 -37zM672 1176q-46 0 -86 19t-62.5 41.5t-49 41.5t-49.5 19q-19 0 -32.5 -10.5t-20 -27t-9.5 -31t-3 -29.5h-157q0 101 56 172.5t152 71.5q46 0 86.5 -19
t64 -41.5t51.5 -41.5t52 -19q33 0 51 29.5t20 74.5h157q0 -102 -61 -176t-160 -74z" />
    <glyph glyph-name="adieresis" unicode="&#xe4;" horiz-adv-x="1102" 
d="M708 129q-33 -64 -104 -104.5t-181 -40.5q-157 0 -253.5 87t-96.5 236q0 146 98.5 230t280.5 84h256v94q0 75 -43.5 115.5t-121.5 40.5q-76 0 -120 -37.5t-48 -99.5h-263q3 70 27.5 129.5t73.5 109.5t135 78.5t200 28.5q127 0 223.5 -37.5t155 -121.5t58.5 -206v-715
h-265v129h-12zM516 186q81 0 136.5 45.5t55.5 116.5v110h-189q-81 0 -124 -35.5t-43 -95.5q0 -67 48 -104t116 -37zM362 1194q-50 0 -83 33t-33 83q0 52 33 85.5t83 33.5q51 0 84.5 -33.5t33.5 -85.5q0 -50 -33.5 -83t-84.5 -33zM750 1194q-49 0 -81.5 33t-32.5 83
q0 52 32 85.5t82 33.5q52 0 86 -33.5t34 -85.5q0 -50 -34 -83t-86 -33z" />
    <glyph glyph-name="aring" unicode="&#xe5;" horiz-adv-x="1102" 
d="M708 129q-33 -64 -104 -104.5t-181 -40.5q-157 0 -253.5 87t-96.5 236q0 146 98.5 230t280.5 84h256v94q0 75 -43.5 115.5t-121.5 40.5q-76 0 -120 -37.5t-48 -99.5h-263q3 70 27.5 129.5t73.5 109.5t135 78.5t200 28.5q127 0 223.5 -37.5t155 -121.5t58.5 -206v-715
h-265v129h-12zM516 186q81 0 136.5 45.5t55.5 116.5v110h-189q-81 0 -124 -35.5t-43 -95.5q0 -67 48 -104t116 -37zM552 1183q-94 0 -156.5 60t-62.5 152t62.5 151t156.5 59t156 -59t62 -151t-62.5 -152t-155.5 -60zM459 1394q0 -40 26 -66.5t66 -26.5t66.5 26.5t26.5 66.5
t-26.5 66.5t-66.5 26.5t-66 -26.5t-26 -66.5z" />
    <glyph glyph-name="ae" unicode="&#xe6;" horiz-adv-x="1759" 
d="M1218 -19q-274 0 -388 192h-9q-125 -192 -374 -192q-173 0 -273.5 87.5t-100.5 238.5q0 149 99 236t280 87h256v85q0 75 -43.5 115.5t-121.5 40.5q-76 0 -120 -37.5t-48 -99.5h-263q3 70 27.5 129.5t73.5 110t135 79.5t200 29q105 0 193 -35.5t138 -94.5h10q49 60 131 95
t184 35q223 0 349 -137.5t126 -371.5v-100h-678v-36q0 -105 57.5 -173.5t157.5 -68.5q84 0 133 37.5t58 94.5h263q-4 -47 -21 -93t-53 -92.5t-86 -81.5t-125.5 -57t-166.5 -22zM1001 645h406v2q0 101 -54.5 164.5t-146.5 63.5q-93 0 -149 -64t-56 -164v-2zM516 186
q81 0 136.5 45.5t55.5 116.5v116h-185q-84 0 -127.5 -36.5t-43.5 -100.5q0 -67 48 -104t116 -37z" />
    <glyph glyph-name="ccedilla" unicode="&#xe7;" horiz-adv-x="1080" 
d="M544 -472q-92 -1 -146 16v125q44 -13 111 -13q109 0 109 60q0 35 -28 47t-95 12h-55v104l44 107q-187 23 -294 158.5t-107 350.5v85q0 226 129 364.5t351 138.5q199 0 319.5 -110t125.5 -274h-258q-10 68 -58 115t-117 47q-97 0 -153 -76t-56 -208v-80
q0 -137 56.5 -215.5t153.5 -78.5q81 0 125 42.5t53 109.5h258q-13 -161 -109.5 -255t-256.5 -114l-41 -93q88 0 137.5 -44.5t49.5 -123.5q0 -98 -66.5 -146.5t-181.5 -50.5z" />
    <glyph glyph-name="egrave" unicode="&#xe8;" horiz-adv-x="1117" 
d="M671 1189h-196l-254 294h243zM572 -19q-224 0 -356.5 133.5t-132.5 376.5v93q0 234 131.5 366.5t346.5 132.5q219 0 347 -137t128 -368v-105h-677v-32q0 -113 59.5 -180.5t155.5 -67.5q77 0 128.5 35.5t65.5 98.5h259q-7 -52 -27 -101t-58 -94t-88.5 -78t-123 -53
t-158.5 -20zM359 645h406v2q0 100 -56 165t-146 65q-91 0 -147.5 -65.5t-56.5 -164.5v-2z" />
    <glyph glyph-name="eacute" unicode="&#xe9;" horiz-adv-x="1117" 
d="M644 1189h-195l207 294h243zM572 -19q-224 0 -356.5 133.5t-132.5 376.5v93q0 234 131.5 366.5t346.5 132.5q219 0 347 -137t128 -368v-105h-677v-32q0 -113 59.5 -180.5t155.5 -67.5q77 0 128.5 35.5t65.5 98.5h259q-7 -52 -27 -101t-58 -94t-88.5 -78t-123 -53
t-158.5 -20zM359 645h406v2q0 100 -56 165t-146 65q-91 0 -147.5 -65.5t-56.5 -164.5v-2z" />
    <glyph glyph-name="ecircumflex" unicode="&#xea;" horiz-adv-x="1117" 
d="M232 1189l232 311h191l233 -311h-212l-113 172h-6l-114 -172h-211zM572 -19q-224 0 -356.5 133.5t-132.5 376.5v93q0 234 131.5 366.5t346.5 132.5q219 0 347 -137t128 -368v-105h-677v-32q0 -113 59.5 -180.5t155.5 -67.5q77 0 128.5 35.5t65.5 98.5h259
q-7 -52 -27 -101t-58 -94t-88.5 -78t-123 -53t-158.5 -20zM359 645h406v2q0 100 -56 165t-146 65q-91 0 -147.5 -65.5t-56.5 -164.5v-2z" />
    <glyph glyph-name="edieresis" unicode="&#xeb;" horiz-adv-x="1117" 
d="M572 -19q-224 0 -356.5 133.5t-132.5 376.5v93q0 234 131.5 366.5t346.5 132.5q219 0 347 -137t128 -368v-105h-677v-32q0 -113 59.5 -180.5t155.5 -67.5q77 0 128.5 35.5t65.5 98.5h259q-7 -52 -27 -101t-58 -94t-88.5 -78t-123 -53t-158.5 -20zM359 645h406v2
q0 100 -56 165t-146 65q-91 0 -147.5 -65.5t-56.5 -164.5v-2zM370 1194q-50 0 -83 33t-33 83q0 52 33 85.5t83 33.5q51 0 84.5 -33.5t33.5 -85.5q0 -50 -33.5 -83t-84.5 -33zM758 1194q-49 0 -81.5 33t-32.5 83q0 52 32 85.5t82 33.5q52 0 86 -33.5t34 -85.5q0 -50 -34 -83
t-86 -33z" />
    <glyph glyph-name="igrave" unicode="&#xec;" horiz-adv-x="554" 
d="M382 1189h-196l-254 294h243zM137 0v1064h281v-1064h-281z" />
    <glyph glyph-name="iacute" unicode="&#xed;" horiz-adv-x="554" 
d="M355 1189h-195l207 294h243zM137 0v1064h281v-1064h-281z" />
    <glyph glyph-name="icircumflex" unicode="&#xee;" horiz-adv-x="554" 
d="M-57 1189l232 311h191l233 -311h-212l-113 172h-6l-114 -172h-211zM137 0v1064h281v-1064h-281z" />
    <glyph glyph-name="idieresis" unicode="&#xef;" horiz-adv-x="554" 
d="M137 0v1064h281v-1064h-281zM81 1194q-50 0 -83 33t-33 83q0 52 33 85.5t83 33.5q51 0 84.5 -33.5t33.5 -85.5q0 -50 -33.5 -83t-84.5 -33zM469 1194q-49 0 -81.5 33t-32.5 83q0 52 32 85.5t82 33.5q52 0 86 -33.5t34 -85.5q0 -50 -34 -83t-86 -33z" />
    <glyph glyph-name="eth" unicode="&#xf0;" horiz-adv-x="1141" 
d="M576 -19q-233 0 -363 139t-130 377v25q0 148 48.5 263t144.5 181.5t227 66.5q159 0 232 -98h14q-7 23 -20 55q-47 121 -131 221l-259 -100l-57 131l210 80q-107 111 -232 212h329q64 -47 135 -118l255 97l55 -128l-199 -77q233 -301 233 -708v-95q0 -240 -127.5 -382
t-364.5 -142zM577 819q-101 0 -158 -75.5t-57 -211.5v-41q0 -136 57.5 -212t157.5 -76t157.5 76t57.5 212v41q0 137 -57 212t-158 75z" />
    <glyph glyph-name="ntilde" unicode="&#xf1;" horiz-adv-x="1200" 
d="M722 1176q-46 0 -86 19t-62.5 41.5t-49 41.5t-49.5 19q-19 0 -32.5 -10.5t-20 -27t-9.5 -31t-3 -29.5h-157q0 101 56 172.5t152 71.5q46 0 86.5 -19t64 -41.5t51.5 -41.5t52 -19q33 0 51 29.5t20 74.5h157q0 -102 -61 -176t-160 -74zM126 0v1064h274v-159h12
q30 68 109 121.5t200 53.5q166 0 265 -102.5t99 -292.5v-685h-281v622q0 113 -55.5 166.5t-141.5 53.5q-94 0 -147 -61.5t-53 -162.5v-618h-281z" />
    <glyph glyph-name="ograve" unicode="&#xf2;" horiz-adv-x="1151" 
d="M688 1189h-196l-254 294h243zM577 1083q231 0 361 -141t130 -369v-75q0 -239 -128.5 -378t-362.5 -139q-235 0 -364.5 139t-129.5 377v75q0 227 131 369t363 142zM576 868q-104 0 -156 -81.5t-52 -212.5v-82q0 -83 20.5 -147t68.5 -106t119 -42q105 0 156.5 83t51.5 212
v82q0 132 -52 213t-156 81z" />
    <glyph glyph-name="oacute" unicode="&#xf3;" horiz-adv-x="1151" 
d="M661 1189h-195l207 294h243zM577 1083q231 0 361 -141t130 -369v-75q0 -239 -128.5 -378t-362.5 -139q-235 0 -364.5 139t-129.5 377v75q0 227 131 369t363 142zM576 868q-104 0 -156 -81.5t-52 -212.5v-82q0 -83 20.5 -147t68.5 -106t119 -42q105 0 156.5 83t51.5 212
v82q0 132 -52 213t-156 81z" />
    <glyph glyph-name="ocircumflex" unicode="&#xf4;" horiz-adv-x="1151" 
d="M249 1189l232 311h191l233 -311h-212l-113 172h-6l-114 -172h-211zM577 1083q231 0 361 -141t130 -369v-75q0 -239 -128.5 -378t-362.5 -139q-235 0 -364.5 139t-129.5 377v75q0 227 131 369t363 142zM576 868q-104 0 -156 -81.5t-52 -212.5v-82q0 -83 20.5 -147
t68.5 -106t119 -42q105 0 156.5 83t51.5 212v82q0 132 -52 213t-156 81z" />
    <glyph glyph-name="otilde" unicode="&#xf5;" horiz-adv-x="1151" 
d="M697 1176q-46 0 -86 19t-62.5 41.5t-49 41.5t-49.5 19q-19 0 -32.5 -10.5t-20 -27t-9.5 -31t-3 -29.5h-157q0 101 56 172.5t152 71.5q46 0 86.5 -19t64 -41.5t51.5 -41.5t52 -19q33 0 51 29.5t20 74.5h157q0 -102 -61 -176t-160 -74zM577 1083q231 0 361 -141t130 -369
v-75q0 -239 -128.5 -378t-362.5 -139q-235 0 -364.5 139t-129.5 377v75q0 227 131 369t363 142zM576 868q-104 0 -156 -81.5t-52 -212.5v-82q0 -83 20.5 -147t68.5 -106t119 -42q105 0 156.5 83t51.5 212v82q0 132 -52 213t-156 81z" />
    <glyph glyph-name="odieresis" unicode="&#xf6;" horiz-adv-x="1151" 
d="M387 1194q-50 0 -83 33t-33 83q0 52 33 85.5t83 33.5q51 0 84.5 -33.5t33.5 -85.5q0 -50 -33.5 -83t-84.5 -33zM775 1194q-49 0 -81.5 33t-32.5 83q0 52 32 85.5t82 33.5q52 0 86 -33.5t34 -85.5q0 -50 -34 -83t-86 -33zM577 1083q231 0 361 -141t130 -369v-75
q0 -239 -128.5 -378t-362.5 -139q-235 0 -364.5 139t-129.5 377v75q0 227 131 369t363 142zM576 868q-104 0 -156 -81.5t-52 -212.5v-82q0 -83 20.5 -147t68.5 -106t119 -42q105 0 156.5 83t51.5 212v82q0 132 -52 213t-156 81z" />
    <glyph glyph-name="divide" unicode="&#xf7;" horiz-adv-x="1185" 
d="M1072 478h-958v196h958v-196zM440 182q0 63 43.5 101.5t108.5 38.5q66 0 109.5 -38.5t43.5 -101.5t-43.5 -101.5t-109.5 -38.5q-64 0 -108 39t-44 101zM440 971q0 64 43.5 102.5t108.5 38.5q66 0 109.5 -38.5t43.5 -102.5q0 -62 -43.5 -100.5t-109.5 -38.5
q-64 0 -108 38.5t-44 100.5z" />
    <glyph glyph-name="oslash" unicode="&#xf8;" horiz-adv-x="1151" 
d="M430 263q53 -69 146 -69q108 0 160.5 84t52.5 215v83q0 71 -22 116zM363 493q0 -67 18 -111l335 429q-51 64 -140 64q-107 0 -160 -83t-53 -216v-83zM577 -19q-180 0 -301 84l-106 -129l-106 89l113 139q-94 130 -94 333v75q0 227 131 369t363 142q170 0 289 -80l99 120
l111 -91l-106 -129q98 -131 98 -330v-75q0 -239 -128.5 -378t-362.5 -139z" />
    <glyph glyph-name="ugrave" unicode="&#xf9;" horiz-adv-x="1196" 
d="M706 1189h-196l-254 294h243zM1070 1064v-1064h-274v158h-13q-28 -71 -106 -122.5t-201 -51.5q-166 0 -263.5 97t-97.5 281v702h282v-628q0 -117 54.5 -166t138.5 -49q87 0 143 56.5t56 161.5v625h281z" />
    <glyph glyph-name="uacute" unicode="&#xfa;" horiz-adv-x="1196" 
d="M679 1189h-195l207 294h243zM1070 1064v-1064h-274v158h-13q-28 -71 -106 -122.5t-201 -51.5q-166 0 -263.5 97t-97.5 281v702h282v-628q0 -117 54.5 -166t138.5 -49q87 0 143 56.5t56 161.5v625h281z" />
    <glyph glyph-name="ucircumflex" unicode="&#xfb;" horiz-adv-x="1196" 
d="M267 1189l232 311h191l233 -311h-212l-113 172h-6l-114 -172h-211zM1070 1064v-1064h-274v158h-13q-28 -71 -106 -122.5t-201 -51.5q-166 0 -263.5 97t-97.5 281v702h282v-628q0 -117 54.5 -166t138.5 -49q87 0 143 56.5t56 161.5v625h281z" />
    <glyph glyph-name="udieresis" unicode="&#xfc;" horiz-adv-x="1196" 
d="M1070 1064v-1064h-274v158h-13q-28 -71 -106 -122.5t-201 -51.5q-166 0 -263.5 97t-97.5 281v702h282v-628q0 -117 54.5 -166t138.5 -49q87 0 143 56.5t56 161.5v625h281zM405 1194q-50 0 -83 33t-33 83q0 52 33 85.5t83 33.5q51 0 84.5 -33.5t33.5 -85.5
q0 -50 -33.5 -83t-84.5 -33zM793 1194q-49 0 -81.5 33t-32.5 83q0 52 32 85.5t82 33.5q52 0 86 -33.5t34 -85.5q0 -50 -34 -83t-86 -33z" />
    <glyph glyph-name="yacute" unicode="&#xfd;" horiz-adv-x="1058" 
d="M1056 1064q-338 -1015 -343 -1027l-27 -73q-24 -63 -49 -110.5t-63 -93t-84 -74t-112 -46t-148 -17.5q-95 0 -153 12v200q32 -7 89 -7q94 0 136 34t55 104l8 34l-363 1064h311l214 -816h11l220 816h298zM616 1189h-195l207 294h243z" />
    <glyph glyph-name="thorn" unicode="&#xfe;" horiz-adv-x="1207" 
d="M720 -13q-104 0 -181.5 45.5t-116.5 123.5h-12v-508h-282v1789h282v-530h12q37 79 115.5 124.5t185.5 45.5q181 0 290 -131.5t109 -368.5v-89q0 -237 -109 -369t-293 -132zM627 209q94 0 150 75t56 215v69q0 137 -55.5 212t-153.5 75t-157 -76.5t-59 -209.5v-70
q0 -135 59 -212.5t160 -77.5z" />
    <glyph glyph-name="ydieresis" unicode="&#xff;" horiz-adv-x="1058" 
d="M1056 1064q-338 -1015 -343 -1027l-27 -73q-24 -63 -49 -110.5t-63 -93t-84 -74t-112 -46t-148 -17.5q-95 0 -153 12v200q32 -7 89 -7q94 0 136 34t55 104l8 34l-363 1064h311l214 -816h11l220 816h298zM342 1194q-50 0 -83 33t-33 83q0 52 33 85.5t83 33.5
q51 0 84.5 -33.5t33.5 -85.5q0 -50 -33.5 -83t-84.5 -33zM730 1194q-49 0 -81.5 33t-32.5 83q0 52 32 85.5t82 33.5q52 0 86 -33.5t34 -85.5q0 -50 -34 -83t-86 -33z" />
    <glyph glyph-name="Amacron" unicode="&#x100;" horiz-adv-x="1273" 
d="M305 0h-291l452 1365h344l450 -1365h-308l-101 339h-444zM637 1093h-13l-160 -541h331zM929 1509h-586v136h586v-136z" />
    <glyph glyph-name="amacron" unicode="&#x101;" horiz-adv-x="1102" 
d="M708 129q-33 -64 -104 -104.5t-181 -40.5q-157 0 -253.5 87t-96.5 236q0 146 98.5 230t280.5 84h256v94q0 75 -43.5 115.5t-121.5 40.5q-76 0 -120 -37.5t-48 -99.5h-263q3 70 27.5 129.5t73.5 109.5t135 78.5t200 28.5q127 0 223.5 -37.5t155 -121.5t58.5 -206v-715
h-265v129h-12zM516 186q81 0 136.5 45.5t55.5 116.5v110h-189q-81 0 -124 -35.5t-43 -95.5q0 -67 48 -104t116 -37zM847 1225h-590v157h590v-157z" />
    <glyph glyph-name="Abreve" unicode="&#x102;" horiz-adv-x="1273" 
d="M305 0h-291l452 1365h344l450 -1365h-308l-101 339h-444zM637 1093h-13l-160 -541h331zM332 1759h151q0 -63 39 -101.5t115 -38.5t115 38.5t39 101.5h148q0 -121 -79 -200.5t-223 -79.5t-224.5 79.5t-80.5 200.5z" />
    <glyph glyph-name="abreve" unicode="&#x103;" horiz-adv-x="1102" 
d="M708 129q-33 -64 -104 -104.5t-181 -40.5q-157 0 -253.5 87t-96.5 236q0 146 98.5 230t280.5 84h256v94q0 75 -43.5 115.5t-121.5 40.5q-76 0 -120 -37.5t-48 -99.5h-263q3 70 27.5 129.5t73.5 109.5t135 78.5t200 28.5q127 0 223.5 -37.5t155 -121.5t58.5 -206v-715
h-265v129h-12zM516 186q81 0 136.5 45.5t55.5 116.5v110h-189q-81 0 -124 -35.5t-43 -95.5q0 -67 48 -104t116 -37zM236 1486h159q0 -67 40 -113.5t117 -46.5t116.5 46.5t39.5 113.5h157q-1 -126 -83.5 -215.5t-229.5 -89.5q-148 0 -232 89.5t-84 215.5z" />
    <glyph glyph-name="Aogonek" unicode="&#x104;" horiz-adv-x="1273" 
d="M305 0h-291l452 1365h344l437 -1325q-77 -28 -118 -72.5t-41 -94.5q0 -42 31 -69t88 -27q41 0 75 8v-154q-47 -21 -146 -21q-110 0 -179.5 54.5t-69.5 149.5q0 126 116 200v9h-59l-93 316h-444zM637 1093h-13l-160 -541h331z" />
    <glyph glyph-name="aogonek" unicode="&#x105;" horiz-adv-x="1102" 
d="M856 -390q-66 0 -120 20.5t-90.5 68t-36.5 115.5q0 128 125 206v109h-14q-34 -64 -107 -104.5t-184 -40.5q-157 0 -256.5 87.5t-99.5 236.5q0 145 98.5 229t280.5 84h256v94q0 75 -43.5 115.5t-121.5 40.5q-76 0 -120 -37.5t-48 -99.5h-263q3 71 28 130.5t74.5 109.5
t135 78t199.5 28q127 0 223 -37.5t154.5 -121.5t58.5 -206v-676q-71 -22 -123 -65.5t-52 -102.5q0 -43 32.5 -67t82.5 -24q43 0 73 8v-156q-64 -22 -142 -22zM516 186q81 0 136.5 45.5t55.5 116.5v110h-189q-81 0 -124 -35.5t-43 -95.5q0 -67 48 -104t116 -37z" />
    <glyph glyph-name="Cacute" unicode="&#x106;" horiz-adv-x="1286" 
d="M739 1504h-196l208 294h243zM380 757v-154q0 -186 74.5 -286t211.5 -100q119 0 190 72t73 186h278v-30q0 -208 -153 -339.5t-390 -131.5q-275 0 -426.5 168t-151.5 462v153q0 296 151.5 465t426.5 169q238 0 390.5 -134.5t152.5 -349.5v-29h-278q-2 120 -73 195t-190 75
q-137 0 -211.5 -101.5t-74.5 -289.5z" />
    <glyph glyph-name="cacute" unicode="&#x107;" horiz-adv-x="1080" 
d="M83 495v85q0 226 129 364.5t351 138.5q199 0 319.5 -110t125.5 -274h-258q-10 68 -58 115t-117 47q-97 0 -153 -76t-56 -208v-80q0 -137 56.5 -215.5t153.5 -78.5q81 0 125 42.5t53 109.5h258q-15 -182 -135.5 -278t-314.5 -96q-222 0 -350.5 138.5t-128.5 375.5z
M642 1189h-195l207 294h243z" />
    <glyph glyph-name="Ccircumflex" unicode="&#x108;" horiz-adv-x="1286" 
d="M380 757v-154q0 -186 74.5 -286t211.5 -100q119 0 190 72t73 186h278v-30q0 -208 -153 -339.5t-390 -131.5q-275 0 -426.5 168t-151.5 462v153q0 296 151.5 465t426.5 169q238 0 390.5 -134.5t152.5 -349.5v-29h-278q-2 120 -73 195t-190 75q-137 0 -211.5 -101.5
t-74.5 -289.5zM327 1504l232 276h188l232 -276h-208l-113 147h-10l-113 -147h-208z" />
    <glyph glyph-name="ccircumflex" unicode="&#x109;" horiz-adv-x="1080" 
d="M230 1189l232 311h191l233 -311h-212l-113 172h-6l-114 -172h-211zM83 495v85q0 226 129 364.5t351 138.5q199 0 319.5 -110t125.5 -274h-258q-10 68 -58 115t-117 47q-97 0 -153 -76t-56 -208v-80q0 -137 56.5 -215.5t153.5 -78.5q81 0 125 42.5t53 109.5h258
q-15 -182 -135.5 -278t-314.5 -96q-222 0 -350.5 138.5t-128.5 375.5z" />
    <glyph glyph-name="Cdotaccent" unicode="&#x10a;" horiz-adv-x="1286" 
d="M513 1650q0 57 41 97t99 40t99 -40t41 -97t-41 -96.5t-99 -39.5t-99 39.5t-41 96.5zM380 757v-154q0 -186 74.5 -286t211.5 -100q119 0 190 72t73 186h278v-30q0 -208 -153 -339.5t-390 -131.5q-275 0 -426.5 168t-151.5 462v153q0 296 151.5 465t426.5 169
q238 0 390.5 -134.5t152.5 -349.5v-29h-278q-2 120 -73 195t-190 75q-137 0 -211.5 -101.5t-74.5 -289.5z" />
    <glyph glyph-name="cdotaccent" unicode="&#x10b;" horiz-adv-x="1080" 
d="M83 495v85q0 226 129 364.5t351 138.5q199 0 319.5 -110t125.5 -274h-258q-10 68 -58 115t-117 47q-97 0 -153 -76t-56 -208v-80q0 -137 56.5 -215.5t153.5 -78.5q81 0 125 42.5t53 109.5h258q-15 -182 -135.5 -278t-314.5 -96q-222 0 -350.5 138.5t-128.5 375.5z
M425 1325q0 56 38.5 95t93.5 39q56 0 95 -39t39 -95q0 -55 -39 -93.5t-95 -38.5q-55 0 -93.5 38.5t-38.5 93.5z" />
    <glyph glyph-name="Ccaron" unicode="&#x10c;" horiz-adv-x="1286" 
d="M380 757v-154q0 -186 74.5 -286t211.5 -100q119 0 190 72t73 186h278v-30q0 -208 -153 -339.5t-390 -131.5q-275 0 -426.5 168t-151.5 462v153q0 296 151.5 465t426.5 169q238 0 390.5 -134.5t152.5 -349.5v-29h-278q-2 120 -73 195t-190 75q-137 0 -211.5 -101.5
t-74.5 -289.5zM327 1779h208l113 -147h10l113 147h208l-232 -276h-188z" />
    <glyph glyph-name="ccaron" unicode="&#x10d;" horiz-adv-x="1080" 
d="M230 1500h211l114 -172h6l113 172h212l-233 -311h-191zM83 495v85q0 226 129 364.5t351 138.5q199 0 319.5 -110t125.5 -274h-258q-10 68 -58 115t-117 47q-97 0 -153 -76t-56 -208v-80q0 -137 56.5 -215.5t153.5 -78.5q81 0 125 42.5t53 109.5h258q-15 -182 -135.5 -278
t-314.5 -96q-222 0 -350.5 138.5t-128.5 375.5z" />
    <glyph glyph-name="Dcaron" unicode="&#x10e;" horiz-adv-x="1336" 
d="M284 1779h208l113 -147h10l113 147h208l-232 -276h-188zM141 1365h511q308 0 460 -175t152 -503q0 -330 -153 -508.5t-459 -178.5h-511v1365zM431 1131v-897h179q84 0 147 22t111.5 72.5t73.5 139t25 213.5q0 215 -83.5 332.5t-273.5 117.5h-179z" />
    <glyph glyph-name="dcaron" unicode="&#x10f;" horiz-adv-x="1464" 
d="M1247 1436h224l-47 -488h-177v488zM488 1077q107 0 187 -46.5t115 -124.5h11v531h282v-1437h-278v165h-11q-37 -83 -117.5 -130.5t-188.5 -47.5q-190 0 -296.5 134t-106.5 368v88q0 231 108 365.5t295 134.5zM584 854q-95 0 -152.5 -73.5t-57.5 -212.5v-72
q0 -139 58 -212.5t154 -73.5q100 0 158.5 74t58.5 211v73q0 134 -59.5 210t-159.5 76z" />
    <glyph glyph-name="Dcroat" unicode="&#x110;" horiz-adv-x="1426" 
d="M704 0h-511v567h-127v250h127v548h511q308 0 460 -175t152 -503q0 -330 -153 -508.5t-459 -178.5zM482 240h179q85 0 147.5 22t111 72.5t73 138.5t24.5 214q0 214 -83.5 332t-272.5 118h-179v-320h273v-250h-273v-327z" />
    <glyph glyph-name="dcroat" unicode="&#x111;" horiz-adv-x="1214" 
d="M584 854q-94 0 -151.5 -73.5t-57.5 -212.5v-72q0 -140 57.5 -213t153.5 -73q100 0 157.5 74t57.5 211v73q0 134 -58.5 210t-158.5 76zM795 165q-37 -83 -118 -130.5t-189 -47.5q-190 0 -296.5 134t-106.5 368v88q0 231 108 365.5t295 134.5q106 0 185.5 -46.5
t114.5 -124.5h11v246h-229v156h240v129h264v-129h121v-156h-111v-1152h-278v165h-11z" />
    <glyph glyph-name="Emacron" unicode="&#x112;" horiz-adv-x="1133" 
d="M1032 234v-234h-891v1365h891v-234h-604v-332h568v-218h-568v-347h604zM870 1509h-586v136h586v-136z" />
    <glyph glyph-name="emacron" unicode="&#x113;" horiz-adv-x="1117" 
d="M572 -19q-224 0 -356.5 133.5t-132.5 376.5v93q0 234 131.5 366.5t346.5 132.5q219 0 347 -137t128 -368v-105h-677v-32q0 -113 59.5 -180.5t155.5 -67.5q77 0 128.5 35.5t65.5 98.5h259q-7 -52 -27 -101t-58 -94t-88.5 -78t-123 -53t-158.5 -20zM359 645h406v2
q0 100 -56 165t-146 65q-91 0 -147.5 -65.5t-56.5 -164.5v-2zM855 1225h-590v157h590v-157z" />
    <glyph glyph-name="Ebreve" unicode="&#x114;" horiz-adv-x="1133" 
d="M1032 234v-234h-891v1365h891v-234h-604v-332h568v-218h-568v-347h604zM272 1759h151q0 -63 39 -101.5t115 -38.5t115 38.5t39 101.5h148q0 -121 -79 -200.5t-223 -79.5t-224.5 79.5t-80.5 200.5z" />
    <glyph glyph-name="ebreve" unicode="&#x115;" horiz-adv-x="1117" 
d="M572 -19q-224 0 -356.5 133.5t-132.5 376.5v93q0 234 131.5 366.5t346.5 132.5q219 0 347 -137t128 -368v-105h-677v-32q0 -113 59.5 -180.5t155.5 -67.5q77 0 128.5 35.5t65.5 98.5h259q-7 -52 -27 -101t-58 -94t-88.5 -78t-123 -53t-158.5 -20zM359 645h406v2
q0 100 -56 165t-146 65q-91 0 -147.5 -65.5t-56.5 -164.5v-2zM244 1486h159q0 -67 40 -113.5t117 -46.5t116.5 46.5t39.5 113.5h157q-1 -126 -83.5 -215.5t-229.5 -89.5q-148 0 -232 89.5t-84 215.5z" />
    <glyph glyph-name="Edotaccent" unicode="&#x116;" horiz-adv-x="1133" 
d="M437 1650q0 57 41 97t99 40t99 -40t41 -97t-41 -96.5t-99 -39.5t-99 39.5t-41 96.5zM1032 234v-234h-891v1365h891v-234h-604v-332h568v-218h-568v-347h604z" />
    <glyph glyph-name="edotaccent" unicode="&#x117;" horiz-adv-x="1117" 
d="M427 1325q0 56 38.5 95t93.5 39q56 0 95 -39t39 -95q0 -55 -39 -93.5t-95 -38.5q-55 0 -93.5 38.5t-38.5 93.5zM572 -19q-224 0 -356.5 133.5t-132.5 376.5v93q0 234 131.5 366.5t346.5 132.5q219 0 347 -137t128 -368v-105h-677v-32q0 -113 59.5 -180.5t155.5 -67.5
q77 0 128.5 35.5t65.5 98.5h259q-7 -52 -27 -101t-58 -94t-88.5 -78t-123 -53t-158.5 -20zM359 645h406v2q0 100 -56 165t-146 65q-91 0 -147.5 -65.5t-56.5 -164.5v-2z" />
    <glyph glyph-name="Eogonek" unicode="&#x118;" horiz-adv-x="1134" 
d="M1033 -369q-65 -21 -142 -21q-106 0 -176.5 51t-70.5 149q0 110 102 180v10h-605v1365h891v-234h-604v-332h568v-218h-568v-347h604v-189q-74 -16 -131.5 -61t-57.5 -111q0 -46 32.5 -71t86.5 -25q37 0 71 8v-154z" />
    <glyph glyph-name="eogonek" unicode="&#x119;" horiz-adv-x="1117" 
d="M815 -390q-113 0 -182.5 53t-69.5 145q0 44 17 83.5t33 58t41 42.5l-6 13q-43 -19 -119 -19q-192 0 -319 133.5t-127 371.5v93q0 234 131.5 366.5t346.5 132.5q219 0 347 -137t128 -368v-105h-677v-32q0 -113 60 -180.5t157 -67.5q75 0 127 36t65 98h257
q-15 -138 -149 -255q-57 -51 -85.5 -94t-28.5 -95q0 -50 34.5 -76.5t86.5 -26.5q37 0 72 8v-157q-58 -21 -140 -21zM359 645h406v2q0 100 -56 165t-146 65q-91 0 -147.5 -65.5t-56.5 -164.5v-2z" />
    <glyph glyph-name="Ecaron" unicode="&#x11a;" horiz-adv-x="1133" 
d="M251 1779h208l113 -147h10l113 147h208l-232 -276h-188zM1032 234v-234h-891v1365h891v-234h-604v-332h568v-218h-568v-347h604z" />
    <glyph glyph-name="ecaron" unicode="&#x11b;" horiz-adv-x="1117" 
d="M232 1500h211l114 -172h6l113 172h212l-233 -311h-191zM572 -19q-224 0 -356.5 133.5t-132.5 376.5v93q0 234 131.5 366.5t346.5 132.5q219 0 347 -137t128 -368v-105h-677v-32q0 -113 59.5 -180.5t155.5 -67.5q77 0 128.5 35.5t65.5 98.5h259q-7 -52 -27 -101t-58 -94
t-88.5 -78t-123 -53t-158.5 -20zM359 645h406v2q0 100 -56 165t-146 65q-91 0 -147.5 -65.5t-56.5 -164.5v-2z" />
    <glyph glyph-name="Gcircumflex" unicode="&#x11c;" horiz-adv-x="1311" 
d="M339 1504l232 276h188l232 -276h-208l-113 147h-10l-113 -147h-208zM1223 924h-282q-12 102 -82.5 164t-185.5 62q-141 0 -218 -97.5t-77 -275.5v-174q0 -119 30 -203.5t99 -134.5t174 -50q123 0 196 67.5t73 168.5v78h-267v211h542v-270q0 -100 -36 -189t-103 -158
t-173.5 -109t-237.5 -40q-149 0 -262.5 46t-184.5 130.5t-106.5 198t-35.5 253.5v178q0 279 155 445t433 166q126 0 229.5 -37.5t171.5 -102t106 -148.5t42 -179z" />
    <glyph glyph-name="gcircumflex" unicode="&#x11d;" horiz-adv-x="1208" 
d="M275 1189l232 311h191l233 -311h-212l-113 172h-6l-114 -172h-211zM583 -191q103 0 160 57t57 161v156h-12q-30 -73 -110.5 -120.5t-188.5 -47.5q-184 0 -293 130t-109 371v62q0 239 108.5 369t293.5 130q107 0 188 -47.5t114 -124.5h12v159h278v-1057
q0 -85 -29.5 -154.5t-78 -114.5t-114 -75.5t-135.5 -43.5t-145 -13q-223 0 -341 91t-128 234h271q13 -55 67 -88.5t135 -33.5zM590 855q-100 0 -157 -74t-57 -211v-61q0 -137 57 -211.5t157 -74.5q98 0 154 74.5t56 211.5v61q0 134 -57 209.5t-153 75.5z" />
    <glyph glyph-name="Gbreve" unicode="&#x11e;" horiz-adv-x="1311" 
d="M1223 924h-282q-12 102 -82.5 164t-185.5 62q-141 0 -218 -97.5t-77 -275.5v-174q0 -119 30 -203.5t99 -134.5t174 -50q123 0 196 67.5t73 168.5v78h-267v211h542v-270q0 -100 -36 -189t-103 -158t-173.5 -109t-237.5 -40q-149 0 -262.5 46t-184.5 130.5t-106.5 198
t-35.5 253.5v178q0 279 155 445t433 166q126 0 229.5 -37.5t171.5 -102t106 -148.5t42 -179zM360 1759h151q0 -63 39 -101.5t115 -38.5t115 38.5t39 101.5h148q0 -121 -79 -200.5t-223 -79.5t-224.5 79.5t-80.5 200.5z" />
    <glyph glyph-name="gbreve" unicode="&#x11f;" horiz-adv-x="1208" 
d="M287 1486h159q0 -67 40 -113.5t117 -46.5t116.5 46.5t39.5 113.5h157q-1 -126 -83.5 -215.5t-229.5 -89.5q-148 0 -232 89.5t-84 215.5zM583 -191q103 0 160 57t57 161v156h-12q-30 -73 -110.5 -120.5t-188.5 -47.5q-184 0 -293 130t-109 371v62q0 239 108.5 369
t293.5 130q107 0 188 -47.5t114 -124.5h12v159h278v-1057q0 -85 -29.5 -154.5t-78 -114.5t-114 -75.5t-135.5 -43.5t-145 -13q-223 0 -341 91t-128 234h271q13 -55 67 -88.5t135 -33.5zM590 855q-100 0 -157 -74t-57 -211v-61q0 -137 57 -211.5t157 -74.5q98 0 154 74.5
t56 211.5v61q0 134 -57 209.5t-153 75.5z" />
    <glyph glyph-name="Gdotaccent" unicode="&#x120;" horiz-adv-x="1311" 
d="M525 1650q0 57 41 97t99 40t99 -40t41 -97t-41 -96.5t-99 -39.5t-99 39.5t-41 96.5zM1223 924h-282q-12 102 -82.5 164t-185.5 62q-141 0 -218 -97.5t-77 -275.5v-174q0 -119 30 -203.5t99 -134.5t174 -50q123 0 196 67.5t73 168.5v78h-267v211h542v-270q0 -100 -36 -189
t-103 -158t-173.5 -109t-237.5 -40q-149 0 -262.5 46t-184.5 130.5t-106.5 198t-35.5 253.5v178q0 279 155 445t433 166q126 0 229.5 -37.5t171.5 -102t106 -148.5t42 -179z" />
    <glyph glyph-name="gdotaccent" unicode="&#x121;" horiz-adv-x="1208" 
d="M470 1325q0 56 38.5 95t93.5 39q56 0 95 -39t39 -95q0 -55 -39 -93.5t-95 -38.5q-55 0 -93.5 38.5t-38.5 93.5zM583 -191q103 0 160 57t57 161v156h-12q-30 -73 -110.5 -120.5t-188.5 -47.5q-184 0 -293 130t-109 371v62q0 239 108.5 369t293.5 130q107 0 188 -47.5
t114 -124.5h12v159h278v-1057q0 -85 -29.5 -154.5t-78 -114.5t-114 -75.5t-135.5 -43.5t-145 -13q-223 0 -341 91t-128 234h271q13 -55 67 -88.5t135 -33.5zM590 855q-100 0 -157 -74t-57 -211v-61q0 -137 57 -211.5t157 -74.5q98 0 154 74.5t56 211.5v61q0 134 -57 209.5
t-153 75.5z" />
    <glyph glyph-name="Gcommaaccent" unicode="&#x122;" horiz-adv-x="1311" 
d="M668 -489h-189l85 335h218zM1223 924h-282q-12 102 -82.5 164t-185.5 62q-141 0 -218 -97.5t-77 -275.5v-174q0 -119 30 -203.5t99 -134.5t174 -50q123 0 196 67.5t73 168.5v78h-267v211h542v-270q0 -100 -36 -189t-103 -158t-173.5 -109t-237.5 -40q-149 0 -262.5 46
t-184.5 130.5t-106.5 198t-35.5 253.5v178q0 279 155 445t433 166q126 0 229.5 -37.5t171.5 -102t106 -148.5t42 -179z" />
    <glyph glyph-name="gcommaaccent" unicode="&#x123;" horiz-adv-x="1206" 
d="M563 1593h188l-85 -335h-217zM583 -191q103 0 160 57t57 161v156h-12q-30 -73 -110.5 -120.5t-188.5 -47.5q-184 0 -293 130t-109 371v62q0 239 108.5 369t293.5 130q107 0 188 -47.5t114 -124.5h12v159h278v-1057q0 -85 -29.5 -154.5t-78 -114.5t-114 -75.5
t-135.5 -43.5t-145 -13q-223 0 -341 91t-128 234h271q13 -55 67 -88.5t135 -33.5zM590 855q-100 0 -157 -74t-57 -211v-61q0 -137 57 -211.5t157 -74.5q98 0 154 74.5t56 211.5v61q0 134 -57 209.5t-153 75.5z" />
    <glyph glyph-name="Hcircumflex" unicode="&#x124;" horiz-adv-x="1412" 
d="M1271 0h-290v577h-550v-577h-290v1365h290v-550h550v550h290v-1365zM379 1504l232 276h188l232 -276h-208l-113 147h-10l-113 -147h-208z" />
    <glyph glyph-name="hcircumflex" unicode="&#x125;" horiz-adv-x="1204" 
d="M130 0v1437h281v-532h12q31 68 107.5 121.5t196.5 53.5q165 0 264.5 -102.5t99.5 -292.5v-685h-281v622q0 113 -55 166.5t-143 53.5q-94 0 -147.5 -61.5t-53.5 -162.5v-618h-281zM-58 1576l232 276h188l232 -276h-208l-113 147h-10l-113 -147h-208z" />
    <glyph glyph-name="Hbar" unicode="&#x126;" horiz-adv-x="1411" 
d="M431 800h550v195h-550v-195zM431 562v-562h-290v995h-90v177h90v193h290v-193h550v193h290v-193h89v-177h-89v-995h-290v562h-550z" />
    <glyph glyph-name="hbar" unicode="&#x127;" horiz-adv-x="1204" 
d="M411 618v-618h-281v1152h-112v156h123v129h261v-129h235v-156h-226v-247h12q30 68 107.5 121.5t196.5 53.5q165 0 264.5 -102.5t99.5 -292.5v-685h-281v622q0 113 -55 166.5t-143 53.5q-94 0 -147.5 -61.5t-53.5 -162.5z" />
    <glyph glyph-name="Itilde" unicode="&#x128;" horiz-adv-x="572" 
d="M431 0h-290v1365h290v-1365zM399 1475q-44 0 -80.5 17.5t-56.5 38t-43 38t-43 17.5q-29 0 -44 -26.5t-17 -62.5h-141q0 88 51 153.5t143 65.5q44 0 82 -17.5t59.5 -38t45.5 -38t44 -17.5q28 0 43.5 28.5t17.5 66.5h141q0 -93 -55.5 -159t-146.5 -66z" />
    <glyph glyph-name="itilde" unicode="&#x129;" horiz-adv-x="554" 
d="M137 0v1064h281v-1064h-281zM391 1176q-46 0 -86 19t-62.5 41.5t-49 41.5t-49.5 19q-19 0 -32.5 -10.5t-20 -27t-9.5 -31t-3 -29.5h-157q0 101 56 172.5t152 71.5q46 0 86.5 -19t64 -41.5t51.5 -41.5t52 -19q33 0 51 29.5t20 74.5h157q0 -102 -61 -176t-160 -74z" />
    <glyph glyph-name="Imacron" unicode="&#x12a;" horiz-adv-x="572" 
d="M431 0h-290v1365h290v-1365zM579 1509h-586v136h586v-136z" />
    <glyph glyph-name="imacron" unicode="&#x12b;" horiz-adv-x="554" 
d="M137 0v1064h281v-1064h-281zM566 1225h-590v157h590v-157z" />
    <glyph glyph-name="Ibreve" unicode="&#x12c;" horiz-adv-x="572" 
d="M431 0h-290v1365h290v-1365zM-19 1759h151q0 -63 39 -101.5t115 -38.5t115 38.5t39 101.5h148q0 -121 -79 -200.5t-223 -79.5t-224.5 79.5t-80.5 200.5z" />
    <glyph glyph-name="ibreve" unicode="&#x12d;" horiz-adv-x="554" 
d="M137 0v1064h281v-1064h-281zM-45 1486h159q0 -67 40 -113.5t117 -46.5t116.5 46.5t39.5 113.5h157q-1 -126 -83.5 -215.5t-229.5 -89.5q-148 0 -232 89.5t-84 215.5z" />
    <glyph glyph-name="Iogonek" unicode="&#x12e;" horiz-adv-x="572" 
d="M453 -366q-48 -24 -146 -24q-117 0 -181.5 55.5t-64.5 148.5q0 123 120 196v8h-40v1347h290v-1323q-167 -67 -167 -171q0 -46 31.5 -70.5t82.5 -24.5q46 0 75 9v-151z" />
    <glyph glyph-name="iogonek" unicode="&#x12f;" horiz-adv-x="554" 
d="M430 -371q-55 -19 -140 -19q-129 0 -203 53.5t-74 153.5q0 127 124 201v1046h281v-1010q-45 -16 -84 -38t-72 -60.5t-33 -81.5q0 -46 33.5 -71.5t88.5 -25.5q52 0 79 8v-156zM121 1329q0 63 45 103.5t111 40.5t111.5 -40.5t45.5 -103.5q0 -64 -45.5 -104.5t-111.5 -40.5
t-111 40.5t-45 104.5z" />
    <glyph glyph-name="Idotaccent" unicode="&#x130;" horiz-adv-x="572" 
d="M431 0h-290v1365h290v-1365zM146 1650q0 57 41 97t99 40t99 -40t41 -97t-41 -96.5t-99 -39.5t-99 39.5t-41 96.5z" />
    <glyph glyph-name="dotlessi" unicode="&#x131;" horiz-adv-x="554" 
d="M137 0v1064h281v-1064h-281z" />
    <glyph glyph-name="IJ" unicode="&#x132;" horiz-adv-x="1655" 
d="M431 0h-290v1365h290v-1365zM598 405h278q2 -81 48 -128t130 -47q93 0 136.5 55.5t43.5 166.5v913h290v-917q0 -231 -123 -352.5t-345 -121.5q-112 0 -200.5 35t-144 95t-84.5 137t-29 164z" />
    <glyph glyph-name="ij" unicode="&#x133;" horiz-adv-x="1091" 
d="M137 0v1064h281v-1064h-281zM121 1329q0 63 45 103.5t111 40.5t111.5 -40.5t45.5 -103.5q0 -64 -45.5 -104.5t-111.5 -40.5t-111 40.5t-45 104.5zM659 1329q0 63 45 103.5t111 40.5t111.5 -40.5t45.5 -103.5q0 -64 -45.5 -104.5t-111.5 -40.5t-111 40.5t-45 104.5z
M955 1064v-1076q0 -178 -96.5 -265t-265.5 -87q-74 0 -112 8v200q19 -4 57 -4q70 0 103.5 35.5t33.5 115.5v1073h280z" />
    <glyph glyph-name="Jcircumflex" unicode="&#x134;" horiz-adv-x="1083" 
d="M26 405h278q2 -81 48 -128t130 -47q93 0 136.5 55.5t43.5 166.5v913h290v-917q0 -231 -123 -352.5t-345 -121.5q-112 0 -200.5 35t-144 95t-84.5 137t-29 164zM481 1504l232 276h188l232 -276h-208l-113 147h-10l-113 -147h-208z" />
    <glyph glyph-name="jcircumflex" unicode="&#x135;" horiz-adv-x="554" 
d="M417 1064v-1076q0 -178 -96.5 -265t-265.5 -87q-74 0 -112 8v200q19 -4 57 -4q70 0 103.5 35.5t33.5 115.5v1073h280zM-61 1189l232 311h191l233 -311h-212l-113 172h-6l-114 -172h-211z" />
    <glyph glyph-name="Kcommaaccent" unicode="&#x136;" horiz-adv-x="1273" 
d="M1260 1365l-483 -589l503 -776h-346l-369 584l-134 -154v-430h-290v1365h290v-601h13l501 601h315zM639 -489h-189l85 335h218z" />
    <glyph glyph-name="kcommaaccent" unicode="&#x137;" horiz-adv-x="1100" 
d="M409 361v-361h-281v1437h281v-804h13l332 431h324l-382 -459l408 -605h-331l-293 445zM577 -489h-189l85 335h218z" />
    <glyph glyph-name="Lacute" unicode="&#x139;" horiz-adv-x="1025" 
d="M371 1504h-196l208 294h243zM1000 245v-245h-859v1365h290v-1120h569z" />
    <glyph glyph-name="lacute" unicode="&#x13a;" horiz-adv-x="550" 
d="M361 1576h-196l208 294h243zM134 0v1437h282v-1437h-282z" />
    <glyph glyph-name="Lcommaaccent" unicode="&#x13b;" horiz-adv-x="1025" 
d="M522 -489h-189l85 335h218zM1000 245v-245h-859v1365h290v-1120h569z" />
    <glyph glyph-name="lcommaaccent" unicode="&#x13c;" horiz-adv-x="550" 
d="M278 -489h-189l85 335h218zM134 0v1437h282v-1437h-282z" />
    <glyph glyph-name="Lcaron" unicode="&#x13d;" horiz-adv-x="1025" 
d="M634 1436h229l-50 -488h-179v488zM1000 245v-245h-859v1365h290v-1120h569z" />
    <glyph glyph-name="lcaron" unicode="&#x13e;" horiz-adv-x="797" 
d="M570 1436h224l-47 -488h-177v488zM134 0v1437h282v-1437h-282z" />
    <glyph glyph-name="Lslash" unicode="&#x141;" horiz-adv-x="1047" 
d="M1022 0h-858v510l-119 -68v242l119 68v613h289v-451l309 178v-245l-309 -176v-426h569v-245z" />
    <glyph glyph-name="lslash" unicode="&#x142;" horiz-adv-x="702" 
d="M492 0h-281v556l-139 -86v230l139 88v649h281v-482l138 88v-243l-138 -86v-714z" />
    <glyph glyph-name="Nacute" unicode="&#x143;" horiz-adv-x="1385" 
d="M778 1504h-196l208 294h243zM410 0h-269v1365h237l587 -876h10v876h269v-1365h-236l-588 882h-10v-882z" />
    <glyph glyph-name="nacute" unicode="&#x144;" horiz-adv-x="1200" 
d="M686 1189h-195l207 294h243zM126 0v1064h274v-159h12q30 68 109 121.5t200 53.5q166 0 265 -102.5t99 -292.5v-685h-281v622q0 113 -55.5 166.5t-141.5 53.5q-94 0 -147 -61.5t-53 -162.5v-618h-281z" />
    <glyph glyph-name="Ncommaaccent" unicode="&#x145;" horiz-adv-x="1385" 
d="M695 -489h-189l85 335h218zM410 0h-269v1365h237l587 -876h10v876h269v-1365h-236l-588 882h-10v-882z" />
    <glyph glyph-name="ncommaaccent" unicode="&#x146;" horiz-adv-x="1200" 
d="M605 -489h-189l85 335h218zM126 0v1064h274v-159h12q30 68 109 121.5t200 53.5q166 0 265 -102.5t99 -292.5v-685h-281v622q0 113 -55.5 166.5t-141.5 53.5q-94 0 -147 -61.5t-53 -162.5v-618h-281z" />
    <glyph glyph-name="Ncaron" unicode="&#x147;" horiz-adv-x="1385" 
d="M366 1779h208l113 -147h10l113 147h208l-232 -276h-188zM410 0h-269v1365h237l587 -876h10v876h269v-1365h-236l-588 882h-10v-882z" />
    <glyph glyph-name="ncaron" unicode="&#x148;" horiz-adv-x="1200" 
d="M274 1500h211l114 -172h6l113 172h212l-233 -311h-191zM126 0v1064h274v-159h12q30 68 109 121.5t200 53.5q166 0 265 -102.5t99 -292.5v-685h-281v622q0 113 -55.5 166.5t-141.5 53.5q-94 0 -147 -61.5t-53 -162.5v-618h-281z" />
    <glyph glyph-name="Omacron" unicode="&#x14c;" horiz-adv-x="1358" 
d="M381 766v-174q0 -185 81.5 -282t216.5 -97q136 0 217 96.5t81 282.5v174q0 186 -81.5 286t-216.5 100t-216.5 -100.5t-81.5 -285.5zM86 593v170q0 292 158 460t436 168t435 -168.5t157 -459.5v-170q0 -289 -157.5 -454t-436.5 -165q-278 0 -435 165t-157 454zM972 1509
h-586v136h586v-136z" />
    <glyph glyph-name="omacron" unicode="&#x14d;" horiz-adv-x="1151" 
d="M872 1225h-590v157h590v-157zM577 1083q231 0 361 -141t130 -369v-75q0 -239 -128.5 -378t-362.5 -139q-235 0 -364.5 139t-129.5 377v75q0 227 131 369t363 142zM576 868q-104 0 -156 -81.5t-52 -212.5v-82q0 -83 20.5 -147t68.5 -106t119 -42q105 0 156.5 83t51.5 212
v82q0 132 -52 213t-156 81z" />
    <glyph glyph-name="Obreve" unicode="&#x14e;" horiz-adv-x="1358" 
d="M381 766v-174q0 -185 81.5 -282t216.5 -97q136 0 217 96.5t81 282.5v174q0 186 -81.5 286t-216.5 100t-216.5 -100.5t-81.5 -285.5zM86 593v170q0 292 158 460t436 168t435 -168.5t157 -459.5v-170q0 -289 -157.5 -454t-436.5 -165q-278 0 -435 165t-157 454zM373 1759
h151q0 -63 39 -101.5t115 -38.5t115 38.5t39 101.5h148q0 -121 -79 -200.5t-223 -79.5t-224.5 79.5t-80.5 200.5z" />
    <glyph glyph-name="obreve" unicode="&#x14f;" horiz-adv-x="1151" 
d="M261 1486h159q0 -67 40 -113.5t117 -46.5t116.5 46.5t39.5 113.5h157q-1 -126 -83.5 -215.5t-229.5 -89.5q-148 0 -232 89.5t-84 215.5zM577 1083q231 0 361 -141t130 -369v-75q0 -239 -128.5 -378t-362.5 -139q-235 0 -364.5 139t-129.5 377v75q0 227 131 369t363 142z
M576 868q-104 0 -156 -81.5t-52 -212.5v-82q0 -83 20.5 -147t68.5 -106t119 -42q105 0 156.5 83t51.5 212v82q0 132 -52 213t-156 81z" />
    <glyph glyph-name="Ohungarumlaut" unicode="&#x150;" horiz-adv-x="1358" 
d="M374 1504l237 259h239l-285 -259h-191zM742 1504l237 259h238l-284 -259h-191zM381 766v-174q0 -185 81.5 -282t216.5 -97q136 0 217 96.5t81 282.5v174q0 186 -81.5 286t-216.5 100t-216.5 -100.5t-81.5 -285.5zM86 593v170q0 292 158 460t436 168t435 -168.5
t157 -459.5v-170q0 -289 -157.5 -454t-436.5 -165q-278 0 -435 165t-157 454z" />
    <glyph glyph-name="ohungarumlaut" unicode="&#x151;" horiz-adv-x="1151" 
d="M455 1189h-168l206 294h210zM799 1189h-169l206 294h210zM577 1083q231 0 361 -141t130 -369v-75q0 -239 -128.5 -378t-362.5 -139q-235 0 -364.5 139t-129.5 377v75q0 227 131 369t363 142zM576 868q-104 0 -156 -81.5t-52 -212.5v-82q0 -83 20.5 -147t68.5 -106
t119 -42q105 0 156.5 83t51.5 212v82q0 132 -52 213t-156 81z" />
    <glyph glyph-name="OE" unicode="&#x152;" horiz-adv-x="1966" 
d="M390 766v-175q0 -185 81.5 -282t217.5 -97q137 0 218.5 93.5t81.5 278.5v193q0 184 -81.5 279.5t-218.5 95.5q-135 0 -217 -100.5t-82 -285.5zM635 -26q-254 0 -401.5 167.5t-147.5 453.5v167q0 298 151 463.5t400 165.5q122 0 218 -43t147 -124h17v141h846v-234h-599
v-332h563v-218h-563v-347h599v-234h-846v145h-17q-52 -80 -147.5 -125.5t-219.5 -45.5z" />
    <glyph glyph-name="oe" unicode="&#x153;" horiz-adv-x="1817" 
d="M1278 -19q-113 0 -203.5 39.5t-141.5 106.5h-17q-52 -67 -145.5 -106.5t-202.5 -39.5q-225 0 -357.5 131t-132.5 367v110q0 223 135.5 358.5t360.5 135.5q106 0 199 -40t142 -112h17q46 67 135.5 109.5t201.5 42.5q215 0 343.5 -137t128.5 -368v-105h-678v-32
q0 -113 60 -180.5t156 -67.5q76 0 128 35.5t65 98.5h260q-8 -65 -39 -125t-84.5 -110.5t-139 -80.5t-191.5 -30zM1063 645h406v2q0 100 -55.5 165t-145.5 65q-91 0 -147.5 -65t-57.5 -165v-2zM571 868q-101 0 -155 -80t-54 -202v-107q0 -122 52.5 -202t156.5 -80
q103 0 155 80t52 202v107q0 123 -52.5 202.5t-154.5 79.5z" />
    <glyph glyph-name="Racute" unicode="&#x154;" horiz-adv-x="1270" 
d="M701 1504h-196l208 294h243zM697 1365q120 0 214 -33.5t152.5 -92.5t89 -137.5t30.5 -172.5q0 -65 -16.5 -122.5t-41.5 -98.5t-59 -75t-66 -54.5t-64 -33.5l274 -545h-322l-237 502h-225v-502h-285v1365h556zM426 715h225q110 0 172 54t62 155q0 105 -63.5 161.5
t-166.5 56.5h-229v-427z" />
    <glyph glyph-name="racute" unicode="&#x155;" horiz-adv-x="785" 
d="M505 1189h-195l207 294h243zM126 0v1064h282v-150h12q21 63 84.5 114t161.5 51q55 0 87 -8v-242q-33 11 -108 11q-230 0 -230 -244v-596h-289z" />
    <glyph glyph-name="Rcommaaccent" unicode="&#x156;" horiz-adv-x="1270" 
d="M697 1365q120 0 214 -33.5t152.5 -92.5t89 -137.5t30.5 -172.5q0 -65 -16.5 -122.5t-41.5 -98.5t-59 -75t-66 -54.5t-64 -33.5l274 -545h-322l-237 502h-225v-502h-285v1365h556zM426 715h225q110 0 172 54t62 155q0 105 -63.5 161.5t-166.5 56.5h-229v-427zM618 -489
h-189l85 335h218z" />
    <glyph glyph-name="rcommaaccent" unicode="&#x157;" horiz-adv-x="785" 
d="M126 0v1064h282v-150h12q21 63 84.5 114t161.5 51q55 0 87 -8v-242q-33 11 -108 11q-230 0 -230 -244v-596h-289zM274 -489h-189l85 335h218z" />
    <glyph glyph-name="Rcaron" unicode="&#x158;" horiz-adv-x="1270" 
d="M697 1365q120 0 214 -33.5t152.5 -92.5t89 -137.5t30.5 -172.5q0 -65 -16.5 -122.5t-41.5 -98.5t-59 -75t-66 -54.5t-64 -33.5l274 -545h-322l-237 502h-225v-502h-285v1365h556zM426 715h225q110 0 172 54t62 155q0 105 -63.5 161.5t-166.5 56.5h-229v-427zM289 1779
h208l113 -147h10l113 147h208l-232 -276h-188z" />
    <glyph glyph-name="rcaron" unicode="&#x159;" horiz-adv-x="785" 
d="M93 1500h211l114 -172h6l113 172h212l-233 -311h-191zM126 0v1064h282v-150h12q21 63 84.5 114t161.5 51q55 0 87 -8v-242q-33 11 -108 11q-230 0 -230 -244v-596h-289z" />
    <glyph glyph-name="Sacute" unicode="&#x15a;" horiz-adv-x="1217" 
d="M693 1504h-196l208 294h243zM59 392h278q6 -81 77.5 -136t194.5 -55q118 0 182.5 48.5t64.5 129.5q0 68 -50 106.5t-158 62.5l-205 47q-76 16 -137 44.5t-110.5 73.5t-77 112t-27.5 151q0 130 69.5 226t185.5 143.5t262 47.5q228 0 369.5 -113.5t143.5 -295.5h-270
q-6 78 -69 131.5t-175 53.5q-105 0 -166 -46t-61 -125q0 -119 186 -157l207 -46q81 -17 143 -44.5t115.5 -72t82 -113t28.5 -158.5q0 -201 -146.5 -317t-400.5 -116q-116 0 -209 25t-152.5 66t-99.5 96.5t-57 112.5t-18 118z" />
    <glyph glyph-name="sacute" unicode="&#x15b;" horiz-adv-x="1041" 
d="M92 746q0 86 35 152.5t96.5 106t137.5 59t164 19.5q190 0 301 -87.5t111 -238.5h-248q-6 56 -46.5 95t-123.5 39q-73 0 -116.5 -32.5t-43.5 -86.5q0 -17 5 -31t16.5 -25.5t22.5 -20.5t32 -17t35 -13t41 -10.5t40.5 -8.5t43.5 -8t41 -7q79 -14 136 -34.5t103.5 -54.5
t70.5 -86.5t24 -123.5q0 -165 -121.5 -258t-337.5 -93q-207 0 -324 88t-117 232h273q8 -58 56 -92.5t127 -34.5q83 0 127.5 35t44.5 87q0 16 -4 29.5t-14 24.5t-20 19.5t-28.5 16t-31.5 12.5t-38 11t-39.5 9t-44 8.5t-43.5 8.5q-78 16 -135 38t-106.5 57.5t-75.5 89.5
t-26 126zM607 1189h-195l207 294h243z" />
    <glyph glyph-name="Scircumflex" unicode="&#x15c;" horiz-adv-x="1217" 
d="M59 392h278q6 -81 77.5 -136t194.5 -55q118 0 182.5 48.5t64.5 129.5q0 68 -50 106.5t-158 62.5l-205 47q-76 16 -137 44.5t-110.5 73.5t-77 112t-27.5 151q0 130 69.5 226t185.5 143.5t262 47.5q228 0 369.5 -113.5t143.5 -295.5h-270q-6 78 -69 131.5t-175 53.5
q-105 0 -166 -46t-61 -125q0 -119 186 -157l207 -46q81 -17 143 -44.5t115.5 -72t82 -113t28.5 -158.5q0 -201 -146.5 -317t-400.5 -116q-116 0 -209 25t-152.5 66t-99.5 96.5t-57 112.5t-18 118zM281 1504l232 276h188l232 -276h-208l-113 147h-10l-113 -147h-208z" />
    <glyph glyph-name="scircumflex" unicode="&#x15d;" horiz-adv-x="1041" 
d="M195 1189l232 311h191l233 -311h-212l-113 172h-6l-114 -172h-211zM92 746q0 86 35 152.5t96.5 106t137.5 59t164 19.5q190 0 301 -87.5t111 -238.5h-248q-6 56 -46.5 95t-123.5 39q-73 0 -116.5 -32.5t-43.5 -86.5q0 -17 5 -31t16.5 -25.5t22.5 -20.5t32 -17t35 -13
t41 -10.5t40.5 -8.5t43.5 -8t41 -7q79 -14 136 -34.5t103.5 -54.5t70.5 -86.5t24 -123.5q0 -165 -121.5 -258t-337.5 -93q-207 0 -324 88t-117 232h273q8 -58 56 -92.5t127 -34.5q83 0 127.5 35t44.5 87q0 16 -4 29.5t-14 24.5t-20 19.5t-28.5 16t-31.5 12.5t-38 11t-39.5 9
t-44 8.5t-43.5 8.5q-78 16 -135 38t-106.5 57.5t-75.5 89.5t-26 126z" />
    <glyph glyph-name="Scedilla" unicode="&#x15e;" horiz-adv-x="1217" 
d="M607 -472q-94 -1 -146 16v125q44 -13 111 -13q109 0 109 60q0 35 -28.5 47t-95.5 12h-55v104l39 96q-104 5 -187.5 33t-137 69t-89.5 94.5t-51.5 108t-16.5 112.5h278q6 -81 77.5 -136t194.5 -55q118 0 182.5 48.5t64.5 129.5q0 68 -50 106.5t-158 62.5l-205 47
q-76 16 -137 44.5t-110.5 73.5t-77 112t-27.5 151q0 130 69.5 226t185.5 143.5t262 47.5q228 0 369.5 -113.5t143.5 -295.5h-270q-6 78 -69 131.5t-175 53.5q-105 0 -166 -46t-61 -125q0 -119 186 -157l207 -46q81 -17 143 -44.5t115.5 -72t82 -113t28.5 -158.5
q0 -177 -116.5 -289.5t-321.5 -137.5l-37 -87q88 0 138 -44.5t50 -123.5q0 -98 -66.5 -146.5t-181.5 -50.5z" />
    <glyph glyph-name="scedilla" unicode="&#x15f;" horiz-adv-x="1041" 
d="M515 -469q-94 -1 -146 16v125q44 -13 111 -13q109 0 109 60q0 35 -30.5 47t-98.5 12h-55v104l39 101q-177 15 -275.5 100.5t-98.5 217.5h273q7 -57 54 -92t125 -35q87 0 131.5 34.5t44.5 89.5q0 16 -4 29.5t-14 24.5t-19 19.5t-28 16t-31.5 12t-38.5 10.5t-39.5 8.5
t-44.5 8t-44 8.5q-77 15 -135 37.5t-107 58.5t-75 90.5t-26 126.5q0 70 23 126.5t63 95t96 64.5t118.5 37.5t133.5 11.5q189 0 300 -87.5t111 -238.5h-248q-5 56 -46 95t-122 39q-76 0 -119 -32t-43 -88q0 -33 21 -57t63.5 -39t75.5 -22.5t87 -16.5l10.5 -1.5t9.5 -1.5
t10 -2q161 -27 247.5 -96t86.5 -205q0 -144 -95.5 -233.5t-268.5 -109.5l-35 -91q89 0 140.5 -44.5t51.5 -123.5q0 -98 -66.5 -146.5t-181.5 -50.5z" />
    <glyph glyph-name="Scaron" unicode="&#x160;" horiz-adv-x="1217" 
d="M59 392h278q6 -81 77.5 -136t194.5 -55q118 0 182.5 48.5t64.5 129.5q0 68 -50 106.5t-158 62.5l-205 47q-76 16 -137 44.5t-110.5 73.5t-77 112t-27.5 151q0 130 69.5 226t185.5 143.5t262 47.5q228 0 369.5 -113.5t143.5 -295.5h-270q-6 78 -69 131.5t-175 53.5
q-105 0 -166 -46t-61 -125q0 -119 186 -157l207 -46q81 -17 143 -44.5t115.5 -72t82 -113t28.5 -158.5q0 -201 -146.5 -317t-400.5 -116q-116 0 -209 25t-152.5 66t-99.5 96.5t-57 112.5t-18 118zM281 1779h208l113 -147h10l113 147h208l-232 -276h-188z" />
    <glyph glyph-name="scaron" unicode="&#x161;" horiz-adv-x="1041" 
d="M195 1500h211l114 -172h6l113 172h212l-233 -311h-191zM92 746q0 86 35 152.5t96.5 106t137.5 59t164 19.5q190 0 301 -87.5t111 -238.5h-248q-6 56 -46.5 95t-123.5 39q-73 0 -116.5 -32.5t-43.5 -86.5q0 -17 5 -31t16.5 -25.5t22.5 -20.5t32 -17t35 -13t41 -10.5
t40.5 -8.5t43.5 -8t41 -7q79 -14 136 -34.5t103.5 -54.5t70.5 -86.5t24 -123.5q0 -165 -121.5 -258t-337.5 -93q-207 0 -324 88t-117 232h273q8 -58 56 -92.5t127 -34.5q83 0 127.5 35t44.5 87q0 16 -4 29.5t-14 24.5t-20 19.5t-28.5 16t-31.5 12.5t-38 11t-39.5 9t-44 8.5
t-43.5 8.5q-78 16 -135 38t-106.5 57.5t-75.5 89.5t-26 126z" />
    <glyph glyph-name="Tcedilla" unicode="&#x162;" horiz-adv-x="1083" 
d="M533 -482q-86 -3 -146 15v126q47 -14 111 -14q109 0 109 60q0 35 -30 47t-99 12h-55v105l50 131h-76v1125h-383v240h1055v-240h-383v-1125h-52l-45 -117q88 0 140 -45t52 -124q0 -97 -66.5 -145.5t-181.5 -50.5z" />
    <glyph glyph-name="tcedilla" unicode="&#x163;" horiz-adv-x="779" 
d="M430 -461q-92 -1 -146 16v125q44 -13 111 -13q109 0 109 60q0 35 -30 47t-98 12h-55v104l49 132q-87 30 -125 97t-38 183v545h-152v217h158v251h273v-251h205v-217h-205v-504q0 -75 35 -104.5t116 -29.5q46 0 58 2v-207q-47 -9 -126 -9q-32 0 -47 1l-36 -92
q89 0 140.5 -44.5t51.5 -123.5q0 -98 -66.5 -146.5t-181.5 -50.5z" />
    <glyph glyph-name="Tcaron" unicode="&#x164;" horiz-adv-x="1083" 
d="M215 1779h208l113 -147h10l113 147h208l-232 -276h-188zM686 0h-289v1125h-383v240h1055v-240h-383v-1125z" />
    <glyph glyph-name="tcaron" unicode="&#x165;" horiz-adv-x="793" 
d="M637 1679h224l-47 -488h-177v488zM213 1064v251h273v-251h205v-217h-205v-504q0 -75 35 -104.5t116 -29.5q46 0 58 2v-207q-47 -9 -126 -9q-199 0 -280.5 70.5t-81.5 236.5v545h-152v217h158z" />
    <glyph glyph-name="Tbar" unicode="&#x166;" horiz-adv-x="1084" 
d="M915 589h-229v-589h-288v589h-228v177h228v359h-383v240h1055v-240h-384v-359h229v-177z" />
    <glyph glyph-name="tbar" unicode="&#x167;" horiz-adv-x="775" 
d="M695 4q-43 -9 -126 -9q-199 0 -280.5 70.5t-81.5 236.5v193h-135v159h135v193h-152v217h158v251h273v-251h205v-217h-205v-193h199v-159h-199v-152q0 -75 35 -104.5t116 -29.5q40 0 58 2v-207z" />
    <glyph glyph-name="Utilde" unicode="&#x168;" horiz-adv-x="1367" 
d="M414 1365v-862q0 -135 73.5 -209.5t196.5 -74.5q122 0 195.5 74.5t73.5 209.5v862h289v-902q0 -221 -150 -355t-408 -134t-408 134t-150 355v902h288zM796 1475q-44 0 -80.5 17.5t-56.5 38t-43 38t-43 17.5q-29 0 -44 -26.5t-17 -62.5h-141q0 88 51 153.5t143 65.5
q44 0 82 -17.5t59.5 -38t45.5 -38t44 -17.5q28 0 43.5 28.5t17.5 66.5h141q0 -93 -55.5 -159t-146.5 -66z" />
    <glyph glyph-name="utilde" unicode="&#x169;" horiz-adv-x="1196" 
d="M1070 1064v-1064h-274v158h-13q-28 -71 -106 -122.5t-201 -51.5q-166 0 -263.5 97t-97.5 281v702h282v-628q0 -117 54.5 -166t138.5 -49q87 0 143 56.5t56 161.5v625h281zM715 1176q-46 0 -86 19t-62.5 41.5t-49 41.5t-49.5 19q-19 0 -32.5 -10.5t-20 -27t-9.5 -31
t-3 -29.5h-157q0 101 56 172.5t152 71.5q46 0 86.5 -19t64 -41.5t51.5 -41.5t52 -19q33 0 51 29.5t20 74.5h157q0 -102 -61 -176t-160 -74z" />
    <glyph glyph-name="Umacron" unicode="&#x16a;" horiz-adv-x="1367" 
d="M414 1365v-862q0 -135 73.5 -209.5t196.5 -74.5q122 0 195.5 74.5t73.5 209.5v862h289v-902q0 -221 -150 -355t-408 -134t-408 134t-150 355v902h288zM976 1509h-586v136h586v-136z" />
    <glyph glyph-name="umacron" unicode="&#x16b;" horiz-adv-x="1196" 
d="M1070 1064v-1064h-274v158h-13q-28 -71 -106 -122.5t-201 -51.5q-166 0 -263.5 97t-97.5 281v702h282v-628q0 -117 54.5 -166t138.5 -49q87 0 143 56.5t56 161.5v625h281zM890 1225h-590v157h590v-157z" />
    <glyph glyph-name="Ubreve" unicode="&#x16c;" horiz-adv-x="1367" 
d="M414 1365v-862q0 -135 73.5 -209.5t196.5 -74.5q122 0 195.5 74.5t73.5 209.5v862h289v-902q0 -221 -150 -355t-408 -134t-408 134t-150 355v902h288zM378 1759h151q0 -63 39 -101.5t115 -38.5t115 38.5t39 101.5h148q0 -121 -79 -200.5t-223 -79.5t-224.5 79.5
t-80.5 200.5z" />
    <glyph glyph-name="ubreve" unicode="&#x16d;" horiz-adv-x="1196" 
d="M1070 1064v-1064h-274v158h-13q-28 -71 -106 -122.5t-201 -51.5q-166 0 -263.5 97t-97.5 281v702h282v-628q0 -117 54.5 -166t138.5 -49q87 0 143 56.5t56 161.5v625h281zM279 1486h159q0 -67 40 -113.5t117 -46.5t116.5 46.5t39.5 113.5h157q-1 -126 -83.5 -215.5
t-229.5 -89.5q-148 0 -232 89.5t-84 215.5z" />
    <glyph glyph-name="Uring" unicode="&#x16e;" horiz-adv-x="1367" 
d="M683 1462q-94 0 -156.5 60t-62.5 152t62.5 151t156.5 59t156 -59t62 -151t-62.5 -152t-155.5 -60zM590 1673q0 -40 26 -66.5t66 -26.5t66.5 26.5t26.5 66.5t-26.5 66.5t-66.5 26.5t-66 -26.5t-26 -66.5zM414 1365v-862q0 -135 73.5 -209.5t196.5 -74.5q122 0 195.5 74.5
t73.5 209.5v862h289v-902q0 -221 -150 -355t-408 -134t-408 134t-150 355v902h288z" />
    <glyph glyph-name="uring" unicode="&#x16f;" horiz-adv-x="1196" 
d="M1070 1064v-1064h-274v158h-13q-28 -71 -106 -122.5t-201 -51.5q-166 0 -263.5 97t-97.5 281v702h282v-628q0 -117 54.5 -166t138.5 -49q87 0 143 56.5t56 161.5v625h281zM595 1183q-94 0 -156.5 60t-62.5 152t62.5 151t156.5 59t156 -59t62 -151t-62.5 -152t-155.5 -60z
M502 1394q0 -40 26 -66.5t66 -26.5t66.5 26.5t26.5 66.5t-26.5 66.5t-66.5 26.5t-66 -26.5t-26 -66.5z" />
    <glyph glyph-name="Uhungarumlaut" unicode="&#x170;" horiz-adv-x="1367" 
d="M414 1365v-862q0 -135 73.5 -209.5t196.5 -74.5q122 0 195.5 74.5t73.5 209.5v862h289v-902q0 -221 -150 -355t-408 -134t-408 134t-150 355v902h288zM379 1504l237 259h239l-285 -259h-191zM747 1504l237 259h238l-284 -259h-191z" />
    <glyph glyph-name="uhungarumlaut" unicode="&#x171;" horiz-adv-x="1196" 
d="M473 1189h-168l206 294h210zM817 1189h-169l206 294h210zM1070 1064v-1064h-274v158h-13q-28 -71 -106 -122.5t-201 -51.5q-166 0 -263.5 97t-97.5 281v702h282v-628q0 -117 54.5 -166t138.5 -49q87 0 143 56.5t56 161.5v625h281z" />
    <glyph glyph-name="Uogonek" unicode="&#x172;" horiz-adv-x="1367" 
d="M988 -390q-113 0 -179.5 54.5t-66.5 148.5q0 110 77 183l-2 5q-73 -27 -141 -27q-246 0 -398 138t-152 363v890h289v-862q0 -136 72.5 -210t196.5 -74q122 0 195.5 74.5t73.5 209.5v862h289v-892q0 -226 -150 -374q-15 -16 -52 -51.5t-54 -54t-33 -50.5t-16 -64
q0 -51 33 -75.5t85 -24.5q40 0 76 11v-157q-64 -23 -143 -23z" />
    <glyph glyph-name="uogonek" unicode="&#x173;" horiz-adv-x="1196" 
d="M1077 -370q-56 -20 -144 -20q-108 0 -181 51.5t-73 152.5q0 70 35.5 118.5t92.5 90.5v135h-13q-28 -70 -108.5 -122t-205.5 -52q-165 0 -265 97.5t-100 280.5v702h282v-628q0 -61 16 -105t45 -67t61 -33t71 -10q88 0 143.5 56.5t55.5 161.5v625h281v-1059
q-32 -6 -62.5 -15.5t-61 -25t-49 -40.5t-18.5 -55q0 -44 33.5 -66.5t88.5 -22.5q47 0 76 8v-158z" />
    <glyph glyph-name="Wcircumflex" unicode="&#x174;" horiz-adv-x="1762" 
d="M556 1504l232 276h188l232 -276h-208l-113 147h-10l-113 -147h-208zM630 0h-268l-357 1365h306l201 -955h11l236 955h246l235 -955h12l200 955h305l-357 -1365h-267l-246 921h-10z" />
    <glyph glyph-name="wcircumflex" unicode="&#x175;" horiz-adv-x="1590" 
d="M467 1189l232 311h191l233 -311h-212l-113 172h-6l-114 -172h-211zM1566 1064l-272 -1064h-297l-197 745h-9l-197 -745h-299l-271 1064h285l150 -774h12l193 774h265l194 -774h11l151 774h281z" />
    <glyph glyph-name="Ycircumflex" unicode="&#x176;" horiz-adv-x="1164" 
d="M727 0h-289v505l-457 860h319l281 -573h10l282 573h311l-457 -853v-512zM256 1504l232 276h188l232 -276h-208l-113 147h-10l-113 -147h-208z" />
    <glyph glyph-name="ycircumflex" unicode="&#x177;" horiz-adv-x="1058" 
d="M1056 1064q-338 -1015 -343 -1027l-27 -73q-24 -63 -49 -110.5t-63 -93t-84 -74t-112 -46t-148 -17.5q-95 0 -153 12v200q32 -7 89 -7q94 0 136 34t55 104l8 34l-363 1064h311l214 -816h11l220 816h298zM204 1189l232 311h191l233 -311h-212l-113 172h-6l-114 -172h-211z
" />
    <glyph glyph-name="Ydieresis" unicode="&#x178;" horiz-adv-x="1165" 
d="M727 0h-289v505l-457 860h319l281 -573h10l282 573h311l-457 -853v-512zM404 1473q-45 0 -75.5 31.5t-30.5 78.5t30.5 79.5t75.5 32.5q47 0 79.5 -32.5t32.5 -79.5q0 -46 -32.5 -78t-79.5 -32zM758 1473q-46 0 -77 31.5t-31 78.5t31 79.5t77 32.5t78 -32.5t32 -79.5
t-32 -78.5t-78 -31.5z" />
    <glyph glyph-name="Zacute" unicode="&#x179;" horiz-adv-x="1183" 
d="M677 1504h-196l208 294h243zM84 0v188l646 931v11h-630v235h980v-187l-644 -931v-12h664v-235h-1016z" />
    <glyph glyph-name="zacute" unicode="&#x17a;" horiz-adv-x="1006" 
d="M591 1189h-195l207 294h243zM86 0v162l499 672v10h-488v220h828v-179l-480 -654v-11h494v-220h-853z" />
    <glyph glyph-name="Zdotaccent" unicode="&#x17b;" horiz-adv-x="1183" 
d="M451 1650q0 57 41 97t99 40t99 -40t41 -97t-41 -96.5t-99 -39.5t-99 39.5t-41 96.5zM84 0v188l646 931v11h-630v235h980v-187l-644 -931v-12h664v-235h-1016z" />
    <glyph glyph-name="zdotaccent" unicode="&#x17c;" horiz-adv-x="1006" 
d="M374 1325q0 56 38.5 95t93.5 39q56 0 95 -39t39 -95q0 -55 -39 -93.5t-95 -38.5q-55 0 -93.5 38.5t-38.5 93.5zM86 0v162l499 672v10h-488v220h828v-179l-480 -654v-11h494v-220h-853z" />
    <glyph glyph-name="Zcaron" unicode="&#x17d;" horiz-adv-x="1183" 
d="M84 0v188l646 931v11h-630v235h980v-187l-644 -931v-12h664v-235h-1016zM265 1779h208l113 -147h10l113 147h208l-232 -276h-188z" />
    <glyph glyph-name="zcaron" unicode="&#x17e;" horiz-adv-x="1006" 
d="M179 1500h211l114 -172h6l113 172h212l-233 -311h-191zM86 0v162l499 672v10h-488v220h828v-179l-480 -654v-11h494v-220h-853z" />
    <glyph glyph-name="florin" unicode="&#x192;" horiz-adv-x="1212" 
d="M1104 1373v-204q-43 13 -127 13q-163 0 -185 -160l-22 -166h264v-193h-290l-47 -354q-22 -165 -131 -250.5t-297 -85.5q-101 0 -161 18v204q40 -12 129 -12q82 0 127 39t56 121l43 320h-244v193h269l27 200q22 165 131 250t297 85q101 0 161 -18z" />
    <glyph glyph-name="Ohorn" unicode="&#x1a0;" horiz-adv-x="1386" 
d="M1271 593q0 -289 -157.5 -454t-436.5 -165q-278 0 -434.5 165t-156.5 454v170q0 292 158 460t435 168q100 0 228 -36t184 -36q79 0 106.5 35t27.5 102v123h223v-154q0 -132 -71 -210.5t-197 -78.5l-3 -3q41 -66 67.5 -165t26.5 -205v-170zM380 766v-175q0 -185 81.5 -282
t216.5 -97q136 0 217.5 97t81.5 282v175q0 186 -82 286t-217 100t-216.5 -100.5t-81.5 -285.5z" />
    <glyph glyph-name="ohorn" unicode="&#x1a1;" horiz-adv-x="1212" 
d="M577 -19q-232 0 -362.5 136t-130.5 376v81q0 227 131 368t362 141q70 0 147.5 -17t117.5 -17q64 0 87 29t23 93v158h223v-184q0 -110 -47 -182.5t-141 -90.5v-9q81 -130 81 -288v-81q0 -241 -130 -377t-361 -136zM577 868q-73 0 -121.5 -43.5t-68 -108t-19.5 -145.5v-78
q0 -80 19 -144t67.5 -108t122.5 -44q73 0 121.5 44t67 107.5t18.5 144.5v78q0 128 -50.5 212.5t-156.5 84.5z" />
    <glyph glyph-name="Uhorn" unicode="&#x1af;" horiz-adv-x="1470" 
d="M684 -25q-254 0 -406 137.5t-152 364.5v888h289v-861q0 -136 72.5 -210t196.5 -74q122 0 195.5 75t73.5 209v861h290q60 0 84.5 31t24.5 92v127h222v-159q0 -127 -69 -208t-196 -81h-67v-692q0 -227 -152 -363.5t-406 -136.5z" />
    <glyph glyph-name="uhorn" unicode="&#x1b0;" horiz-adv-x="1361" 
d="M783 158q-28 -71 -106 -122.5t-201 -51.5q-166 0 -263.5 97t-97.5 281v702h282v-628q0 -117 54.5 -166t138.5 -49q87 0 143 56.5t56 161.5v625h249q59 0 79 29t20 93v143h223v-174q0 -127 -69 -207.5t-197 -80.5h-24v-867h-274v158h-13z" />
    <glyph glyph-name="uni01C4" unicode="&#x1c4;" horiz-adv-x="2576" 
d="M141 1365h511q308 0 460 -175t152 -503q0 -330 -153 -508.5t-459 -178.5h-511v1365zM431 1131v-897h179q84 0 147 22t111.5 72.5t73.5 139t25 213.5q0 215 -83.5 332.5t-273.5 117.5h-179zM1420 0v188l646 931v11h-630v235h980v-187l-644 -931v-12h664v-235h-1016z
M1601 1779h208l113 -147h10l113 147h208l-232 -276h-188z" />
    <glyph glyph-name="uni01C5" unicode="&#x1c5;" horiz-adv-x="2404" 
d="M141 1365h511q308 0 460 -175t152 -503q0 -330 -153 -508.5t-459 -178.5h-511v1365zM431 1131v-897h179q84 0 147 22t111.5 72.5t73.5 139t25 213.5q0 215 -83.5 332.5t-273.5 117.5h-179zM1515 1500h211l114 -172h6l113 172h212l-233 -311h-191zM1422 0v162l499 672v10
h-488v220h828v-179l-480 -654v-11h494v-220h-853z" />
    <glyph glyph-name="uni01C6" unicode="&#x1c6;" horiz-adv-x="2274" 
d="M488 1077q107 0 187 -46.5t115 -124.5h11v531h282v-1437h-278v165h-11q-37 -83 -117.5 -130.5t-188.5 -47.5q-190 0 -296.5 134t-106.5 368v88q0 231 108 365.5t295 134.5zM584 854q-95 0 -152.5 -73.5t-57.5 -212.5v-72q0 -139 58 -212.5t154 -73.5q100 0 158.5 74
t58.5 211v73q0 134 -59.5 210t-159.5 76zM1392 1500h211l114 -172h6l113 172h212l-233 -311h-191zM1299 0v162l499 672v10h-488v220h828v-179l-480 -654v-11h494v-220h-853z" />
    <glyph glyph-name="uni01C7" unicode="&#x1c7;" horiz-adv-x="2168" 
d="M1111 405h278q2 -81 48 -128t130 -47q93 0 136.5 55.5t43.5 166.5v913h290v-917q0 -231 -123 -352.5t-345 -121.5q-112 0 -200.5 35t-144 95t-84.5 137t-29 164zM1000 245v-245h-859v1365h290v-1120h569z" />
    <glyph glyph-name="uni01C8" unicode="&#x1c8;" horiz-adv-x="1639" 
d="M1206 1329q0 63 45 103.5t111 40.5t111.5 -40.5t45.5 -103.5q0 -64 -45.5 -104.5t-111.5 -40.5t-111 40.5t-45 104.5zM1502 1064v-1076q0 -178 -96.5 -265t-265.5 -87q-74 0 -112 8v200q19 -4 57 -4q70 0 103.5 35.5t33.5 115.5v1073h280zM1000 245v-245h-859v1365h290
v-1120h569z" />
    <glyph glyph-name="uni01C9" unicode="&#x1c9;" horiz-adv-x="1108" 
d="M676 1329q0 63 45 103.5t111 40.5t111.5 -40.5t45.5 -103.5q0 -64 -45.5 -104.5t-111.5 -40.5t-111 40.5t-45 104.5zM972 1064v-1076q0 -178 -96.5 -265t-265.5 -87q-74 0 -112 8v200q19 -4 57 -4q70 0 103.5 35.5t33.5 115.5v1073h280zM134 0v1437h282v-1437h-282z" />
    <glyph glyph-name="uni01CA" unicode="&#x1ca;" horiz-adv-x="2468" 
d="M1411 405h278q2 -81 48 -128t130 -47q93 0 136.5 55.5t43.5 166.5v913h290v-917q0 -231 -123 -352.5t-345 -121.5q-112 0 -200.5 35t-144 95t-84.5 137t-29 164zM410 0h-269v1365h237l587 -876h10v876h269v-1365h-236l-588 882h-10v-882z" />
    <glyph glyph-name="uni01CB" unicode="&#x1cb;" horiz-adv-x="1938" 
d="M1506 1329q0 63 45 103.5t111 40.5t111.5 -40.5t45.5 -103.5q0 -64 -45.5 -104.5t-111.5 -40.5t-111 40.5t-45 104.5zM1802 1064v-1076q0 -178 -96.5 -265t-265.5 -87q-74 0 -112 8v200q19 -4 57 -4q70 0 103.5 35.5t33.5 115.5v1073h280zM410 0h-269v1365h237l587 -876
h10v876h269v-1365h-236l-588 882h-10v-882z" />
    <glyph glyph-name="uni01CC" unicode="&#x1cc;" horiz-adv-x="1763" 
d="M1331 1329q0 63 45 103.5t111 40.5t111.5 -40.5t45.5 -103.5q0 -64 -45.5 -104.5t-111.5 -40.5t-111 40.5t-45 104.5zM1627 1064v-1076q0 -178 -96.5 -265t-265.5 -87q-74 0 -112 8v200q19 -4 57 -4q70 0 103.5 35.5t33.5 115.5v1073h280zM126 0v1064h274v-159h12
q30 68 109 121.5t200 53.5q166 0 265 -102.5t99 -292.5v-685h-281v622q0 113 -55.5 166.5t-141.5 53.5q-94 0 -147 -61.5t-53 -162.5v-618h-281z" />
    <glyph glyph-name="Acaron" unicode="&#x1cd;" horiz-adv-x="1273" 
d="M305 0h-291l452 1365h344l450 -1365h-308l-101 339h-444zM637 1093h-13l-160 -541h331zM311 1779h208l113 -147h10l113 147h208l-232 -276h-188z" />
    <glyph glyph-name="acaron" unicode="&#x1ce;" horiz-adv-x="1102" 
d="M708 129q-33 -64 -104 -104.5t-181 -40.5q-157 0 -253.5 87t-96.5 236q0 146 98.5 230t280.5 84h256v94q0 75 -43.5 115.5t-121.5 40.5q-76 0 -120 -37.5t-48 -99.5h-263q3 70 27.5 129.5t73.5 109.5t135 78.5t200 28.5q127 0 223.5 -37.5t155 -121.5t58.5 -206v-715
h-265v129h-12zM516 186q81 0 136.5 45.5t55.5 116.5v110h-189q-81 0 -124 -35.5t-43 -95.5q0 -67 48 -104t116 -37zM224 1500h211l114 -172h6l113 172h212l-233 -311h-191z" />
    <glyph glyph-name="Icaron" unicode="&#x1cf;" horiz-adv-x="571" 
d="M431 0h-290v1365h290v-1365zM-41 1779h208l113 -147h10l113 147h208l-232 -276h-188z" />
    <glyph glyph-name="icaron" unicode="&#x1d0;" horiz-adv-x="554" 
d="M-57 1500h211l114 -172h6l113 172h212l-233 -311h-191zM137 0v1064h281v-1064h-281z" />
    <glyph glyph-name="Ocaron" unicode="&#x1d1;" horiz-adv-x="1358" 
d="M352 1779h208l113 -147h10l113 147h208l-232 -276h-188zM381 766v-174q0 -185 81.5 -282t216.5 -97q136 0 217 96.5t81 282.5v174q0 186 -81.5 286t-216.5 100t-216.5 -100.5t-81.5 -285.5zM86 593v170q0 292 158 460t436 168t435 -168.5t157 -459.5v-170
q0 -289 -157.5 -454t-436.5 -165q-278 0 -435 165t-157 454z" />
    <glyph glyph-name="ocaron" unicode="&#x1d2;" horiz-adv-x="1151" 
d="M249 1500h211l114 -172h6l113 172h212l-233 -311h-191zM577 1083q231 0 361 -141t130 -369v-75q0 -239 -128.5 -378t-362.5 -139q-235 0 -364.5 139t-129.5 377v75q0 227 131 369t363 142zM576 868q-104 0 -156 -81.5t-52 -212.5v-82q0 -83 20.5 -147t68.5 -106t119 -42
q105 0 156.5 83t51.5 212v82q0 132 -52 213t-156 81z" />
    <glyph glyph-name="Ucaron" unicode="&#x1d3;" horiz-adv-x="1367" 
d="M357 1779h208l113 -147h10l113 147h208l-232 -276h-188zM414 1365v-862q0 -135 73.5 -209.5t196.5 -74.5q122 0 195.5 74.5t73.5 209.5v862h289v-902q0 -221 -150 -355t-408 -134t-408 134t-150 355v902h288z" />
    <glyph glyph-name="ucaron" unicode="&#x1d4;" horiz-adv-x="1196" 
d="M267 1500h211l114 -172h6l113 172h212l-233 -311h-191zM1070 1064v-1064h-274v158h-13q-28 -71 -106 -122.5t-201 -51.5q-166 0 -263.5 97t-97.5 281v702h282v-628q0 -117 54.5 -166t138.5 -49q87 0 143 56.5t56 161.5v625h281z" />
    <glyph glyph-name="Udieresismacron" unicode="&#x1d5;" horiz-adv-x="1367" 
d="M414 1365v-862q0 -135 73.5 -209.5t196.5 -74.5q122 0 195.5 74.5t73.5 209.5v862h289v-902q0 -221 -150 -355t-408 -134t-408 134t-150 355v902h288zM504 1473q-45 0 -75.5 31.5t-30.5 78.5t30.5 79.5t75.5 32.5q47 0 79.5 -32.5t32.5 -79.5q0 -46 -32.5 -78t-79.5 -32z
M858 1473q-46 0 -77 31.5t-31 78.5t31 79.5t77 32.5t78 -32.5t32 -79.5t-32 -78.5t-78 -31.5zM976 1787h-586v136h586v-136z" />
    <glyph glyph-name="udieresismacron" unicode="&#x1d6;" horiz-adv-x="1196" 
d="M1070 1064v-1064h-274v158h-13q-28 -71 -106 -122.5t-201 -51.5q-166 0 -263.5 97t-97.5 281v702h282v-628q0 -117 54.5 -166t138.5 -49q87 0 143 56.5t56 161.5v625h281zM405 1194q-50 0 -83 33t-33 83q0 52 33 85.5t83 33.5q51 0 84.5 -33.5t33.5 -85.5
q0 -50 -33.5 -83t-84.5 -33zM793 1194q-49 0 -81.5 33t-32.5 83q0 52 32 85.5t82 33.5q52 0 86 -33.5t34 -85.5q0 -50 -34 -83t-86 -33zM890 1551h-590v157h590v-157z" />
    <glyph glyph-name="Udieresisacute" unicode="&#x1d7;" horiz-adv-x="1367" 
d="M574 1745l210 193h240l-255 -193h-195zM504 1473q-45 0 -75.5 31.5t-30.5 78.5t30.5 79.5t75.5 32.5q47 0 79.5 -32.5t32.5 -79.5q0 -46 -32.5 -78t-79.5 -32zM858 1473q-46 0 -77 31.5t-31 78.5t31 79.5t77 32.5t78 -32.5t32 -79.5t-32 -78.5t-78 -31.5zM414 1365v-862
q0 -135 73.5 -209.5t196.5 -74.5q122 0 195.5 74.5t73.5 209.5v862h289v-902q0 -221 -150 -355t-408 -134t-408 134t-150 355v902h288z" />
    <glyph glyph-name="udieresisacute" unicode="&#x1d8;" horiz-adv-x="1196" 
d="M686 1524h-195l207 294h243zM405 1194q-50 0 -83 33t-33 83q0 52 33 85.5t83 33.5q51 0 84.5 -33.5t33.5 -85.5q0 -50 -33.5 -83t-84.5 -33zM793 1194q-49 0 -81.5 33t-32.5 83q0 52 32 85.5t82 33.5q52 0 86 -33.5t34 -85.5q0 -50 -34 -83t-86 -33zM1070 1064v-1064
h-274v158h-13q-28 -71 -106 -122.5t-201 -51.5q-166 0 -263.5 97t-97.5 281v702h282v-628q0 -117 54.5 -166t138.5 -49q87 0 143 56.5t56 161.5v625h281z" />
    <glyph glyph-name="Udieresiscaron" unicode="&#x1d9;" horiz-adv-x="1367" 
d="M399 1583q0 47 30.5 79.5t75.5 32.5q47 0 79.5 -32.5t32.5 -79.5q0 -46 -32.5 -78t-79.5 -32q-45 0 -75.5 31.5t-30.5 78.5zM751 1583q0 47 31 79.5t77 32.5t78 -32.5t32 -79.5t-31.5 -78.5t-78.5 -31.5q-46 0 -77 31.5t-31 78.5zM326 1933h226l129 -103h4l129 103h226
l-274 -200h-166zM414 1365v-862q0 -135 73.5 -209.5t196.5 -74.5q122 0 195.5 74.5t73.5 209.5v862h289v-902q0 -221 -150 -355t-408 -134t-408 134t-150 355v902h288z" />
    <glyph glyph-name="udieresiscaron" unicode="&#x1da;" horiz-adv-x="1196" 
d="M267 1824h211l114 -172h6l113 172h212l-233 -311h-191zM405 1194q-50 0 -83 33t-33 83q0 52 33 85.5t83 33.5q51 0 84.5 -33.5t33.5 -85.5q0 -50 -33.5 -83t-84.5 -33zM793 1194q-49 0 -81.5 33t-32.5 83q0 52 32 85.5t82 33.5q52 0 86 -33.5t34 -85.5q0 -50 -34 -83
t-86 -33zM1070 1064v-1064h-274v158h-13q-28 -71 -106 -122.5t-201 -51.5q-166 0 -263.5 97t-97.5 281v702h282v-628q0 -117 54.5 -166t138.5 -49q87 0 143 56.5t56 161.5v625h281z" />
    <glyph glyph-name="Udieresisgrave" unicode="&#x1db;" horiz-adv-x="1367" 
d="M792 1745h-195l-255 193h240zM504 1473q-45 0 -75.5 31.5t-30.5 78.5t30.5 79.5t75.5 32.5q47 0 79.5 -32.5t32.5 -79.5q0 -46 -32.5 -78t-79.5 -32zM858 1473q-46 0 -77 31.5t-31 78.5t31 79.5t77 32.5t78 -32.5t32 -79.5t-32 -78.5t-78 -31.5zM414 1365v-862
q0 -135 73.5 -209.5t196.5 -74.5q122 0 195.5 74.5t73.5 209.5v862h289v-902q0 -221 -150 -355t-408 -134t-408 134t-150 355v902h288z" />
    <glyph glyph-name="udieresisgrave" unicode="&#x1dc;" horiz-adv-x="1196" 
d="M706 1524h-196l-254 294h243zM405 1194q-50 0 -83 33t-33 83q0 52 33 85.5t83 33.5q51 0 84.5 -33.5t33.5 -85.5q0 -50 -33.5 -83t-84.5 -33zM793 1194q-49 0 -81.5 33t-32.5 83q0 52 32 85.5t82 33.5q52 0 86 -33.5t34 -85.5q0 -50 -34 -83t-86 -33zM1070 1064v-1064
h-274v158h-13q-28 -71 -106 -122.5t-201 -51.5q-166 0 -263.5 97t-97.5 281v702h282v-628q0 -117 54.5 -166t138.5 -49q87 0 143 56.5t56 161.5v625h281z" />
    <glyph glyph-name="Adieresismacron" unicode="&#x1de;" horiz-adv-x="1273" 
d="M305 0h-291l452 1365h344l450 -1365h-308l-101 339h-444zM637 1093h-13l-160 -541h331zM458 1473q-45 0 -75.5 31.5t-30.5 78.5t30.5 79.5t75.5 32.5q47 0 79.5 -32.5t32.5 -79.5q0 -46 -32.5 -78t-79.5 -32zM812 1473q-46 0 -77 31.5t-31 78.5t31 79.5t77 32.5t78 -32.5
t32 -79.5t-32 -78.5t-78 -31.5zM930 1787h-586v136h586v-136z" />
    <glyph glyph-name="adieresismacron" unicode="&#x1df;" horiz-adv-x="1102" 
d="M708 129q-33 -64 -104 -104.5t-181 -40.5q-157 0 -253.5 87t-96.5 236q0 146 98.5 230t280.5 84h256v94q0 75 -43.5 115.5t-121.5 40.5q-76 0 -120 -37.5t-48 -99.5h-263q3 70 27.5 129.5t73.5 109.5t135 78.5t200 28.5q127 0 223.5 -37.5t155 -121.5t58.5 -206v-715
h-265v129h-12zM516 186q81 0 136.5 45.5t55.5 116.5v110h-189q-81 0 -124 -35.5t-43 -95.5q0 -67 48 -104t116 -37zM362 1194q-50 0 -83 33t-33 83q0 52 33 85.5t83 33.5q51 0 84.5 -33.5t33.5 -85.5q0 -50 -33.5 -83t-84.5 -33zM750 1194q-49 0 -81.5 33t-32.5 83
q0 52 32 85.5t82 33.5q52 0 86 -33.5t34 -85.5q0 -50 -34 -83t-86 -33zM847 1551h-590v157h590v-157z" />
    <glyph glyph-name="Adotmacron" unicode="&#x1e0;" horiz-adv-x="1273" 
d="M305 0h-291l452 1365h344l450 -1365h-308l-101 339h-444zM637 1093h-13l-160 -541h331zM511 1578q0 52 36.5 88t89.5 36t89.5 -36t36.5 -88t-36.5 -87t-89.5 -35t-89.5 35t-36.5 87zM930 1787h-586v136h586v-136z" />
    <glyph glyph-name="adotmacron" unicode="&#x1e1;" horiz-adv-x="1102" 
d="M708 129q-33 -64 -104 -104.5t-181 -40.5q-157 0 -253.5 87t-96.5 236q0 146 98.5 230t280.5 84h256v94q0 75 -43.5 115.5t-121.5 40.5q-76 0 -120 -37.5t-48 -99.5h-263q3 70 27.5 129.5t73.5 109.5t135 78.5t200 28.5q127 0 223.5 -37.5t155 -121.5t58.5 -206v-715
h-265v129h-12zM516 186q81 0 136.5 45.5t55.5 116.5v110h-189q-81 0 -124 -35.5t-43 -95.5q0 -67 48 -104t116 -37zM417 1310q0 56 38.5 95t93.5 39q56 0 95 -39t39 -95q0 -55 -39 -93.5t-95 -38.5q-55 0 -93.5 38.5t-38.5 93.5zM847 1551h-590v157h590v-157z" />
    <glyph glyph-name="AEmacron" unicode="&#x1e2;" horiz-adv-x="1900" 
d="M845 1132l-261 -572l328 1v571h-67zM912 338h-423l-164 -338h-318l657 1365h1135v-233h-601v-333h565v-218h-565v-347h601v-234h-887v338zM1642 1509h-586v136h586v-136z" />
    <glyph glyph-name="aemacron" unicode="&#x1e3;" horiz-adv-x="1759" 
d="M1218 -19q-274 0 -388 192h-9q-125 -192 -374 -192q-173 0 -273.5 87.5t-100.5 238.5q0 149 99 236t280 87h256v85q0 75 -43.5 115.5t-121.5 40.5q-76 0 -120 -37.5t-48 -99.5h-263q3 70 27.5 129.5t73.5 110t135 79.5t200 29q105 0 193 -35.5t138 -94.5h10q49 60 131 95
t184 35q223 0 349 -137.5t126 -371.5v-100h-678v-36q0 -105 57.5 -173.5t157.5 -68.5q84 0 133 37.5t58 94.5h263q-4 -47 -21 -93t-53 -92.5t-86 -81.5t-125.5 -57t-166.5 -22zM1001 645h406v2q0 101 -54.5 164.5t-146.5 63.5q-93 0 -149 -64t-56 -164v-2zM516 186
q81 0 136.5 45.5t55.5 116.5v116h-185q-84 0 -127.5 -36.5t-43.5 -100.5q0 -67 48 -104t116 -37zM1170 1225h-590v157h590v-157z" />
    <glyph glyph-name="Gcaron" unicode="&#x1e6;" horiz-adv-x="1311" 
d="M339 1779h208l113 -147h10l113 147h208l-232 -276h-188zM1223 924h-282q-12 102 -82.5 164t-185.5 62q-141 0 -218 -97.5t-77 -275.5v-174q0 -119 30 -203.5t99 -134.5t174 -50q123 0 196 67.5t73 168.5v78h-267v211h542v-270q0 -100 -36 -189t-103 -158t-173.5 -109
t-237.5 -40q-149 0 -262.5 46t-184.5 130.5t-106.5 198t-35.5 253.5v178q0 279 155 445t433 166q126 0 229.5 -37.5t171.5 -102t106 -148.5t42 -179z" />
    <glyph glyph-name="gcaron" unicode="&#x1e7;" horiz-adv-x="1208" 
d="M275 1500h211l114 -172h6l113 172h212l-233 -311h-191zM583 -191q103 0 160 57t57 161v156h-12q-30 -73 -110.5 -120.5t-188.5 -47.5q-184 0 -293 130t-109 371v62q0 239 108.5 369t293.5 130q107 0 188 -47.5t114 -124.5h12v159h278v-1057q0 -85 -29.5 -154.5
t-78 -114.5t-114 -75.5t-135.5 -43.5t-145 -13q-223 0 -341 91t-128 234h271q13 -55 67 -88.5t135 -33.5zM590 855q-100 0 -157 -74t-57 -211v-61q0 -137 57 -211.5t157 -74.5q98 0 154 74.5t56 211.5v61q0 134 -57 209.5t-153 75.5z" />
    <glyph glyph-name="Kcaron" unicode="&#x1e8;" horiz-adv-x="1273" 
d="M1260 1365l-483 -589l503 -776h-346l-369 584l-134 -154v-430h-290v1365h290v-601h13l501 601h315zM298 1779h208l113 -147h10l113 147h208l-232 -276h-188z" />
    <glyph glyph-name="kcaron" unicode="&#x1e9;" horiz-adv-x="1100" 
d="M409 361v-361h-281v1437h281v-804h13l332 431h324l-382 -459l408 -605h-331l-293 445zM-59 1851h208l113 -147h10l113 147h208l-232 -276h-188z" />
    <glyph glyph-name="Oogonek" unicode="&#x1ea;" horiz-adv-x="1358" 
d="M381 766v-174q0 -186 81 -282.5t217 -96.5q135 0 216.5 97t81.5 282v174q0 185 -81.5 285.5t-216.5 100.5t-216.5 -100t-81.5 -286zM645 -23q-247 0 -403 169t-156 447v170q0 292 158 460t436 168t435 -168.5t157 -459.5v-170q0 -94 -16.5 -172t-48 -138t-60 -98
t-69.5 -83q-15 -16 -53.5 -55t-53 -56.5t-29.5 -48t-15 -60.5q0 -51 33 -75t87 -24q44 0 74 9l-1 -161q-76 -21 -144 -21q-113 2 -180 55t-68 146q0 107 92 190l-6 13q-69 -37 -169 -37z" />
    <glyph glyph-name="oogonek" unicode="&#x1eb;" horiz-adv-x="1151" 
d="M576 868q-104 0 -156 -81.5t-52 -212.5v-82q0 -83 20.5 -147t68.5 -106t119 -42q105 0 156.5 83t51.5 212v82q0 132 -52 213t-156 81zM657 14q-73 -28 -136 -28q-190 0 -314 143t-124 368v75q0 227 131 369t363 142q231 0 361 -141t130 -369v-75q0 -149 -49 -248.5
t-133 -176.5q-43 -40 -64 -63t-39 -57t-18 -68q0 -51 33.5 -78t87.5 -27q34 0 72 8v-157q-58 -21 -138 -21q-49 0 -92.5 11t-80.5 33.5t-59 62t-22 91.5q0 114 99 193z" />
    <glyph glyph-name="Oogonekmacron" unicode="&#x1ec;" horiz-adv-x="1357" 
d="M381 766v-174q0 -186 81 -282.5t217 -96.5q135 0 216.5 97t81.5 282v174q0 185 -81.5 285.5t-216.5 100.5t-216.5 -100t-81.5 -286zM645 -23q-247 0 -403 169t-156 447v170q0 292 158 460t436 168t435 -168.5t157 -459.5v-170q0 -94 -16.5 -172t-48 -138t-60 -98
t-69.5 -83q-15 -16 -53.5 -55t-53 -56.5t-29.5 -48t-15 -60.5q0 -51 33 -75t87 -24q44 0 74 9l-1 -161q-76 -21 -144 -21q-113 2 -180 55t-68 146q0 107 92 190l-6 13q-69 -37 -169 -37zM971 1509h-586v136h586v-136z" />
    <glyph glyph-name="oogonekmacron" unicode="&#x1ed;" horiz-adv-x="1151" 
d="M576 868q-104 0 -156 -81.5t-52 -212.5v-82q0 -83 20.5 -147t68.5 -106t119 -42q105 0 156.5 83t51.5 212v82q0 132 -52 213t-156 81zM657 14q-73 -28 -136 -28q-190 0 -314 143t-124 368v75q0 227 131 369t363 142q231 0 361 -141t130 -369v-75q0 -149 -49 -248.5
t-133 -176.5q-43 -40 -64 -63t-39 -57t-18 -68q0 -51 33.5 -78t87.5 -27q34 0 72 8v-157q-58 -21 -138 -21q-49 0 -92.5 11t-80.5 33.5t-59 62t-22 91.5q0 114 99 193zM871 1225h-590v157h590v-157z" />
    <glyph glyph-name="uni01F1" unicode="&#x1f1;" horiz-adv-x="2518" 
d="M1420 0v188l646 931v11h-630v235h980v-187l-644 -931v-12h664v-235h-1016zM141 1365h511q308 0 460 -175t152 -503q0 -330 -153 -508.5t-459 -178.5h-511v1365zM431 1131v-897h179q84 0 147 22t111.5 72.5t73.5 139t25 213.5q0 215 -83.5 332.5t-273.5 117.5h-179z" />
    <glyph glyph-name="uni01F2" unicode="&#x1f2;" horiz-adv-x="2404" 
d="M1422 0v162l499 672v10h-488v220h828v-179l-480 -654v-11h494v-220h-853zM141 1365h511q308 0 460 -175t152 -503q0 -330 -153 -508.5t-459 -178.5h-511v1365zM431 1131v-897h179q84 0 147 22t111.5 72.5t73.5 139t25 213.5q0 215 -83.5 332.5t-273.5 117.5h-179z" />
    <glyph glyph-name="uni01F3" unicode="&#x1f3;" horiz-adv-x="2274" 
d="M1299 0v162l499 672v10h-488v220h828v-179l-480 -654v-11h494v-220h-853zM488 1077q107 0 187 -46.5t115 -124.5h11v531h282v-1437h-278v165h-11q-37 -83 -117.5 -130.5t-188.5 -47.5q-190 0 -296.5 134t-106.5 368v88q0 231 108 365.5t295 134.5zM584 854
q-95 0 -152.5 -73.5t-57.5 -212.5v-72q0 -139 58 -212.5t154 -73.5q100 0 158.5 74t58.5 211v73q0 134 -59.5 210t-159.5 76z" />
    <glyph glyph-name="Gacute" unicode="&#x1f4;" horiz-adv-x="1311" 
d="M751 1504h-196l208 294h243zM1223 924h-282q-12 102 -82.5 164t-185.5 62q-141 0 -218 -97.5t-77 -275.5v-174q0 -119 30 -203.5t99 -134.5t174 -50q123 0 196 67.5t73 168.5v78h-267v211h542v-270q0 -100 -36 -189t-103 -158t-173.5 -109t-237.5 -40q-149 0 -262.5 46
t-184.5 130.5t-106.5 198t-35.5 253.5v178q0 279 155 445t433 166q126 0 229.5 -37.5t171.5 -102t106 -148.5t42 -179z" />
    <glyph glyph-name="gacute" unicode="&#x1f5;" horiz-adv-x="1208" 
d="M687 1189h-195l207 294h243zM583 -191q103 0 160 57t57 161v156h-12q-30 -73 -110.5 -120.5t-188.5 -47.5q-184 0 -293 130t-109 371v62q0 239 108.5 369t293.5 130q107 0 188 -47.5t114 -124.5h12v159h278v-1057q0 -85 -29.5 -154.5t-78 -114.5t-114 -75.5t-135.5 -43.5
t-145 -13q-223 0 -341 91t-128 234h271q13 -55 67 -88.5t135 -33.5zM590 855q-100 0 -157 -74t-57 -211v-61q0 -137 57 -211.5t157 -74.5q98 0 154 74.5t56 211.5v61q0 134 -57 209.5t-153 75.5z" />
    <glyph glyph-name="Ngrave" unicode="&#x1f8;" horiz-adv-x="1385" 
d="M802 1504h-196l-255 294h243zM410 0h-269v1365h237l587 -876h10v876h269v-1365h-236l-588 882h-10v-882z" />
    <glyph glyph-name="ngrave" unicode="&#x1f9;" horiz-adv-x="1200" 
d="M713 1189h-196l-254 294h243zM126 0v1064h274v-159h12q30 68 109 121.5t200 53.5q166 0 265 -102.5t99 -292.5v-685h-281v622q0 113 -55.5 166.5t-141.5 53.5q-94 0 -147 -61.5t-53 -162.5v-618h-281z" />
    <glyph glyph-name="Aringacute" unicode="&#x1fa;" horiz-adv-x="1273" 
d="M305 0h-291l452 1365h344l450 -1365h-308l-101 339h-444zM637 1093h-13l-160 -541h331zM522 1808l84 135h266l-121 -135h-229zM637 1414q-79 0 -132 50.5t-53 127.5t53 127t132 50t132 -50t53 -127t-53 -127.5t-132 -50.5zM561 1592q0 -33 21.5 -55t54.5 -22t54.5 22
t21.5 55q0 32 -21.5 54t-54.5 22t-54.5 -22t-21.5 -54z" />
    <glyph glyph-name="aringacute" unicode="&#x1fb;" horiz-adv-x="1102" 
d="M708 129q-33 -64 -104 -104.5t-181 -40.5q-157 0 -253.5 87t-96.5 236q0 146 98.5 230t280.5 84h256v94q0 75 -43.5 115.5t-121.5 40.5q-76 0 -120 -37.5t-48 -99.5h-263q3 70 27.5 129.5t73.5 109.5t135 78.5t200 28.5q127 0 223.5 -37.5t155 -121.5t58.5 -206v-715
h-265v129h-12zM516 186q81 0 136.5 45.5t55.5 116.5v110h-189q-81 0 -124 -35.5t-43 -95.5q0 -67 48 -104t116 -37zM672 1674h-207l134 186h251zM548 1183q-94 0 -156.5 60t-62.5 152t62.5 151t156.5 59t156 -59t62 -151t-62.5 -152t-155.5 -60zM455 1394q0 -40 26 -66.5
t66 -26.5t66.5 26.5t26.5 66.5t-26.5 66.5t-66.5 26.5t-66 -26.5t-26 -66.5z" />
    <glyph glyph-name="AEacute" unicode="&#x1fc;" horiz-adv-x="1900" 
d="M1435 1504h-196l208 294h243zM845 1132l-261 -572l328 1v571h-67zM912 338h-423l-164 -338h-318l657 1365h1135v-233h-601v-333h565v-218h-565v-347h601v-234h-887v338z" />
    <glyph glyph-name="aeacute" unicode="&#x1fd;" horiz-adv-x="1759" 
d="M959 1189h-195l207 294h243zM1218 -19q-274 0 -388 192h-9q-125 -192 -374 -192q-173 0 -273.5 87.5t-100.5 238.5q0 149 99 236t280 87h256v85q0 75 -43.5 115.5t-121.5 40.5q-76 0 -120 -37.5t-48 -99.5h-263q3 70 27.5 129.5t73.5 110t135 79.5t200 29
q105 0 193 -35.5t138 -94.5h10q49 60 131 95t184 35q223 0 349 -137.5t126 -371.5v-100h-678v-36q0 -105 57.5 -173.5t157.5 -68.5q84 0 133 37.5t58 94.5h263q-4 -47 -21 -93t-53 -92.5t-86 -81.5t-125.5 -57t-166.5 -22zM1001 645h406v2q0 101 -54.5 164.5t-146.5 63.5
q-93 0 -149 -64t-56 -164v-2zM516 186q81 0 136.5 45.5t55.5 116.5v116h-185q-84 0 -127.5 -36.5t-43.5 -100.5q0 -67 48 -104t116 -37z" />
    <glyph glyph-name="Oslashacute" unicode="&#x1fe;" horiz-adv-x="1357" 
d="M677 -26q-230 0 -376 119l-99 -122l-126 103l111 137q-101 153 -101 382v170q0 292 158 460t435 168q226 0 372 -117l88 109l130 -96l-105 -129q107 -157 107 -395v-170q0 -289 -157.5 -454t-436.5 -165zM373 589q0 -77 18 -129l494 611q-80 86 -208 86
q-138 0 -221 -101.5t-83 -289.5v-177zM677 205q139 0 222 98t83 286v177q0 85 -21 142l-497 -614q79 -89 213 -89zM764 1504h-196l208 294h243z" />
    <glyph glyph-name="oslashacute" unicode="&#x1ff;" horiz-adv-x="1151" 
d="M430 263q53 -69 146 -69q108 0 160.5 84t52.5 215v83q0 71 -22 116zM363 493q0 -67 18 -111l335 429q-51 64 -140 64q-107 0 -160 -83t-53 -216v-83zM577 -19q-180 0 -301 84l-106 -129l-106 89l113 139q-94 130 -94 333v75q0 227 131 369t363 142q170 0 289 -80l99 120
l111 -91l-106 -129q98 -131 98 -330v-75q0 -239 -128.5 -378t-362.5 -139zM660 1189h-195l207 294h243z" />
    <glyph glyph-name="Adblgrave" unicode="&#x200;" horiz-adv-x="1272" 
d="M305 0h-291l452 1365h344l450 -1365h-308l-101 339h-444zM637 1093h-13l-160 -541h331zM572 1504h-190l-285 259h238zM940 1504h-190l-285 259h238z" />
    <glyph glyph-name="adblgrave" unicode="&#x201;" horiz-adv-x="1102" 
d="M708 129q-33 -64 -104 -104.5t-181 -40.5q-157 0 -253.5 87t-96.5 236q0 146 98.5 230t280.5 84h256v94q0 75 -43.5 115.5t-121.5 40.5q-76 0 -120 -37.5t-48 -99.5h-263q3 70 27.5 129.5t73.5 109.5t135 78.5t200 28.5q127 0 223.5 -37.5t155 -121.5t58.5 -206v-715
h-265v129h-12zM516 186q81 0 136.5 45.5t55.5 116.5v110h-189q-81 0 -124 -35.5t-43 -95.5q0 -67 48 -104t116 -37zM307 1189l-247 294h211l205 -294h-169zM650 1189l-247 294h211l204 -294h-168z" />
    <glyph glyph-name="Ainvertedbreve" unicode="&#x202;" horiz-adv-x="1273" 
d="M305 0h-291l452 1365h344l450 -1365h-308l-101 339h-444zM637 1093h-13l-160 -541h331zM637 1643q-76 0 -115 -38t-39 -101h-151q0 120 80.5 199.5t224.5 79.5t223 -79t79 -200h-148q0 63 -39 101t-115 38z" />
    <glyph glyph-name="ainvertedbreve" unicode="&#x203;" horiz-adv-x="1102" 
d="M708 129q-33 -64 -104 -104.5t-181 -40.5q-157 0 -253.5 87t-96.5 236q0 146 98.5 230t280.5 84h256v94q0 75 -43.5 115.5t-121.5 40.5q-76 0 -120 -37.5t-48 -99.5h-263q3 70 27.5 129.5t73.5 109.5t135 78.5t200 28.5q127 0 223.5 -37.5t155 -121.5t58.5 -206v-715
h-265v129h-12zM516 186q81 0 136.5 45.5t55.5 116.5v110h-189q-81 0 -124 -35.5t-43 -95.5q0 -67 48 -104t116 -37zM229 1213q0 130 86 222t237 92t235.5 -92t84.5 -222h-160q0 69 -41 116.5t-119 47.5t-119 -47.5t-41 -116.5h-163z" />
    <glyph glyph-name="Edblgrave" unicode="&#x204;" horiz-adv-x="1133" 
d="M513 1504h-190l-285 259h238zM881 1504h-190l-285 259h238zM1032 234v-234h-891v1365h891v-234h-604v-332h568v-218h-568v-347h604z" />
    <glyph glyph-name="edblgrave" unicode="&#x205;" horiz-adv-x="1117" 
d="M572 -19q-224 0 -356.5 133.5t-132.5 376.5v93q0 234 131.5 366.5t346.5 132.5q219 0 347 -137t128 -368v-105h-677v-32q0 -113 59.5 -180.5t155.5 -67.5q77 0 128.5 35.5t65.5 98.5h259q-7 -52 -27 -101t-58 -94t-88.5 -78t-123 -53t-158.5 -20zM359 645h406v2
q0 100 -56 165t-146 65q-91 0 -147.5 -65.5t-56.5 -164.5v-2zM315 1189l-247 294h211l205 -294h-169zM658 1189l-247 294h211l204 -294h-168z" />
    <glyph glyph-name="Einvertedbreve" unicode="&#x206;" horiz-adv-x="1133" 
d="M1032 234v-234h-891v1365h891v-234h-604v-332h568v-218h-568v-347h604zM577 1643q-76 0 -115 -38t-39 -101h-151q0 120 80.5 199.5t224.5 79.5t223 -79t79 -200h-148q0 63 -39 101t-115 38z" />
    <glyph glyph-name="einvertedbreve" unicode="&#x207;" horiz-adv-x="1117" 
d="M572 -19q-224 0 -356.5 133.5t-132.5 376.5v93q0 234 131.5 366.5t346.5 132.5q219 0 347 -137t128 -368v-105h-677v-32q0 -113 59.5 -180.5t155.5 -67.5q77 0 128.5 35.5t65.5 98.5h259q-7 -52 -27 -101t-58 -94t-88.5 -78t-123 -53t-158.5 -20zM359 645h406v2
q0 100 -56 165t-146 65q-91 0 -147.5 -65.5t-56.5 -164.5v-2zM237 1213q0 130 86 222t237 92t235.5 -92t84.5 -222h-160q0 69 -41 116.5t-119 47.5t-119 -47.5t-41 -116.5h-163z" />
    <glyph glyph-name="Idblgrave" unicode="&#x208;" horiz-adv-x="572" 
d="M431 0h-290v1365h290v-1365zM222 1504h-190l-285 259h238zM590 1504h-190l-285 259h238z" />
    <glyph glyph-name="idblgrave" unicode="&#x209;" horiz-adv-x="554" 
d="M137 0v1064h281v-1064h-281zM26 1189l-247 294h211l205 -294h-169zM369 1189l-247 294h211l204 -294h-168z" />
    <glyph glyph-name="Iinvertedbreve" unicode="&#x20a;" horiz-adv-x="572" 
d="M431 0h-290v1365h290v-1365zM286 1643q-76 0 -115 -38t-39 -101h-151q0 120 80.5 199.5t224.5 79.5t223 -79t79 -200h-148q0 63 -39 101t-115 38z" />
    <glyph glyph-name="iinvertedbreve" unicode="&#x20b;" horiz-adv-x="554" 
d="M137 0v1064h281v-1064h-281zM-52 1213q0 130 86 222t237 92t235.5 -92t84.5 -222h-160q0 69 -41 116.5t-119 47.5t-119 -47.5t-41 -116.5h-163z" />
    <glyph glyph-name="Odblgrave" unicode="&#x20c;" horiz-adv-x="1358" 
d="M614 1504h-190l-285 259h238zM982 1504h-190l-285 259h238zM381 766v-174q0 -185 81.5 -282t216.5 -97q136 0 217 96.5t81 282.5v174q0 186 -81.5 286t-216.5 100t-216.5 -100.5t-81.5 -285.5zM86 593v170q0 292 158 460t436 168t435 -168.5t157 -459.5v-170
q0 -289 -157.5 -454t-436.5 -165q-278 0 -435 165t-157 454z" />
    <glyph glyph-name="odblgrave" unicode="&#x20d;" horiz-adv-x="1151" 
d="M577 1083q231 0 361 -141t130 -369v-75q0 -239 -128.5 -378t-362.5 -139q-235 0 -364.5 139t-129.5 377v75q0 227 131 369t363 142zM576 868q-104 0 -156 -81.5t-52 -212.5v-82q0 -83 20.5 -147t68.5 -106t119 -42q105 0 156.5 83t51.5 212v82q0 132 -52 213t-156 81z
M332 1189l-247 294h211l205 -294h-169zM675 1189l-247 294h211l204 -294h-168z" />
    <glyph glyph-name="Oinvertedbreve" unicode="&#x20e;" horiz-adv-x="1358" 
d="M678 1643q-76 0 -115 -38t-39 -101h-151q0 120 80.5 199.5t224.5 79.5t223 -79t79 -200h-148q0 63 -39 101t-115 38zM381 766v-174q0 -185 81.5 -282t216.5 -97q136 0 217 96.5t81 282.5v174q0 186 -81.5 286t-216.5 100t-216.5 -100.5t-81.5 -285.5zM86 593v170
q0 292 158 460t436 168t435 -168.5t157 -459.5v-170q0 -289 -157.5 -454t-436.5 -165q-278 0 -435 165t-157 454z" />
    <glyph glyph-name="oinvertedbreve" unicode="&#x20f;" horiz-adv-x="1151" 
d="M577 1083q231 0 361 -141t130 -369v-75q0 -239 -128.5 -378t-362.5 -139q-235 0 -364.5 139t-129.5 377v75q0 227 131 369t363 142zM576 868q-104 0 -156 -81.5t-52 -212.5v-82q0 -83 20.5 -147t68.5 -106t119 -42q105 0 156.5 83t51.5 212v82q0 132 -52 213t-156 81z
M254 1213q0 130 86 222t237 92t235.5 -92t84.5 -222h-160q0 69 -41 116.5t-119 47.5t-119 -47.5t-41 -116.5h-163z" />
    <glyph glyph-name="Rdblgrave" unicode="&#x210;" horiz-adv-x="1270" 
d="M551 1504h-190l-285 259h238zM919 1504h-190l-285 259h238zM697 1365q120 0 214 -33.5t152.5 -92.5t89 -137.5t30.5 -172.5q0 -65 -16.5 -122.5t-41.5 -98.5t-59 -75t-66 -54.5t-64 -33.5l274 -545h-322l-237 502h-225v-502h-285v1365h556zM426 715h225q110 0 172 54
t62 155q0 105 -63.5 161.5t-166.5 56.5h-229v-427z" />
    <glyph glyph-name="rdblgrave" unicode="&#x211;" horiz-adv-x="785" 
d="M126 0v1064h282v-150h12q21 63 84.5 114t161.5 51q55 0 87 -8v-242q-33 11 -108 11q-230 0 -230 -244v-596h-289zM176 1189l-247 294h211l205 -294h-169zM519 1189l-247 294h211l204 -294h-168z" />
    <glyph glyph-name="Rinvertedbreve" unicode="&#x212;" horiz-adv-x="1270" 
d="M697 1365q120 0 214 -33.5t152.5 -92.5t89 -137.5t30.5 -172.5q0 -65 -16.5 -122.5t-41.5 -98.5t-59 -75t-66 -54.5t-64 -33.5l274 -545h-322l-237 502h-225v-502h-285v1365h556zM426 715h225q110 0 172 54t62 155q0 105 -63.5 161.5t-166.5 56.5h-229v-427zM615 1643
q-76 0 -115 -38t-39 -101h-151q0 120 80.5 199.5t224.5 79.5t223 -79t79 -200h-148q0 63 -39 101t-115 38z" />
    <glyph glyph-name="rinvertedbreve" unicode="&#x213;" horiz-adv-x="785" 
d="M126 0v1064h282v-150h12q21 63 84.5 114t161.5 51q55 0 87 -8v-242q-33 11 -108 11q-230 0 -230 -244v-596h-289zM98 1213q0 130 86 222t237 92t235.5 -92t84.5 -222h-160q0 69 -41 116.5t-119 47.5t-119 -47.5t-41 -116.5h-163z" />
    <glyph glyph-name="Udblgrave" unicode="&#x214;" horiz-adv-x="1367" 
d="M619 1504h-190l-285 259h238zM987 1504h-190l-285 259h238zM414 1365v-862q0 -135 73.5 -209.5t196.5 -74.5q122 0 195.5 74.5t73.5 209.5v862h289v-902q0 -221 -150 -355t-408 -134t-408 134t-150 355v902h288z" />
    <glyph glyph-name="udblgrave" unicode="&#x215;" horiz-adv-x="1196" 
d="M1070 1064v-1064h-274v158h-13q-28 -71 -106 -122.5t-201 -51.5q-166 0 -263.5 97t-97.5 281v702h282v-628q0 -117 54.5 -166t138.5 -49q87 0 143 56.5t56 161.5v625h281zM350 1189l-247 294h211l205 -294h-169zM693 1189l-247 294h211l204 -294h-168z" />
    <glyph glyph-name="Uinvertedbreve" unicode="&#x216;" horiz-adv-x="1367" 
d="M414 1365v-862q0 -135 73.5 -209.5t196.5 -74.5q122 0 195.5 74.5t73.5 209.5v862h289v-902q0 -221 -150 -355t-408 -134t-408 134t-150 355v902h288zM683 1643q-76 0 -115 -38t-39 -101h-151q0 120 80.5 199.5t224.5 79.5t223 -79t79 -200h-148q0 63 -39 101t-115 38z
" />
    <glyph glyph-name="uinvertedbreve" unicode="&#x217;" horiz-adv-x="1196" 
d="M1070 1064v-1064h-274v158h-13q-28 -71 -106 -122.5t-201 -51.5q-166 0 -263.5 97t-97.5 281v702h282v-628q0 -117 54.5 -166t138.5 -49q87 0 143 56.5t56 161.5v625h281zM272 1213q0 130 86 222t237 92t235.5 -92t84.5 -222h-160q0 69 -41 116.5t-119 47.5t-119 -47.5
t-41 -116.5h-163z" />
    <glyph glyph-name="Scommaaccent" unicode="&#x218;" horiz-adv-x="1217" 
d="M59 392h278q6 -81 77.5 -136t194.5 -55q118 0 182.5 48.5t64.5 129.5q0 68 -50 106.5t-158 62.5l-205 47q-76 16 -137 44.5t-110.5 73.5t-77 112t-27.5 151q0 130 69.5 226t185.5 143.5t262 47.5q228 0 369.5 -113.5t143.5 -295.5h-270q-6 78 -69 131.5t-175 53.5
q-105 0 -166 -46t-61 -125q0 -119 186 -157l207 -46q81 -17 143 -44.5t115.5 -72t82 -113t28.5 -158.5q0 -201 -146.5 -317t-400.5 -116q-116 0 -209 25t-152.5 66t-99.5 96.5t-57 112.5t-18 118zM598 -489h-189l85 335h218z" />
    <glyph glyph-name="scommaaccent" unicode="&#x219;" horiz-adv-x="1041" 
d="M92 746q0 86 35 152.5t96.5 106t137.5 59t164 19.5q190 0 301 -87.5t111 -238.5h-248q-6 56 -46.5 95t-123.5 39q-73 0 -116.5 -32.5t-43.5 -86.5q0 -17 5 -31t16.5 -25.5t22.5 -20.5t32 -17t35 -13t41 -10.5t40.5 -8.5t43.5 -8t41 -7q79 -14 136 -34.5t103.5 -54.5
t70.5 -86.5t24 -123.5q0 -165 -121.5 -258t-337.5 -93q-207 0 -324 88t-117 232h273q8 -58 56 -92.5t127 -34.5q83 0 127.5 35t44.5 87q0 16 -4 29.5t-14 24.5t-20 19.5t-28.5 16t-31.5 12.5t-38 11t-39.5 9t-44 8.5t-43.5 8.5q-78 16 -135 38t-106.5 57.5t-75.5 89.5
t-26 126zM526 -489h-189l85 335h218z" />
    <glyph glyph-name="Tcommaaccent" unicode="&#x21a;" horiz-adv-x="1083" 
d="M544 -489h-189l85 335h218zM686 0h-289v1125h-383v240h1055v-240h-383v-1125z" />
    <glyph glyph-name="tcommaaccent" unicode="&#x21b;" horiz-adv-x="775" 
d="M458 -489h-189l85 335h218zM213 1064v251h273v-251h205v-217h-205v-504q0 -75 35 -104.5t116 -29.5q46 0 58 2v-207q-47 -9 -126 -9q-199 0 -280.5 70.5t-81.5 236.5v545h-152v217h158z" />
    <glyph glyph-name="Hcaron" unicode="&#x21e;" horiz-adv-x="1412" 
d="M1271 0h-290v577h-550v-577h-290v1365h290v-550h550v550h290v-1365zM379 1779h208l113 -147h10l113 147h208l-232 -276h-188z" />
    <glyph glyph-name="hcaron" unicode="&#x21f;" horiz-adv-x="1204" 
d="M130 0v1437h281v-532h12q31 68 107.5 121.5t196.5 53.5q165 0 264.5 -102.5t99.5 -292.5v-685h-281v622q0 113 -55 166.5t-143 53.5q-94 0 -147.5 -61.5t-53.5 -162.5v-618h-281zM-58 1851h208l113 -147h10l113 147h208l-232 -276h-188z" />
    <glyph glyph-name="Adotaccent" unicode="&#x226;" horiz-adv-x="1273" 
d="M305 0h-291l452 1365h344l450 -1365h-308l-101 339h-444zM637 1093h-13l-160 -541h331zM497 1650q0 57 41 97t99 40t99 -40t41 -97t-41 -96.5t-99 -39.5t-99 39.5t-41 96.5z" />
    <glyph glyph-name="adotaccent" unicode="&#x227;" horiz-adv-x="1102" 
d="M708 129q-33 -64 -104 -104.5t-181 -40.5q-157 0 -253.5 87t-96.5 236q0 146 98.5 230t280.5 84h256v94q0 75 -43.5 115.5t-121.5 40.5q-76 0 -120 -37.5t-48 -99.5h-263q3 70 27.5 129.5t73.5 109.5t135 78.5t200 28.5q127 0 223.5 -37.5t155 -121.5t58.5 -206v-715
h-265v129h-12zM516 186q81 0 136.5 45.5t55.5 116.5v110h-189q-81 0 -124 -35.5t-43 -95.5q0 -67 48 -104t116 -37zM419 1325q0 56 38.5 95t93.5 39q56 0 95 -39t39 -95q0 -55 -39 -93.5t-95 -38.5q-55 0 -93.5 38.5t-38.5 93.5z" />
    <glyph glyph-name="Ecedilla" unicode="&#x228;" horiz-adv-x="1133" 
d="M578 -472q-86 -3 -146 15v126q47 -14 111 -14q109 0 109 60q0 35 -30 47t-99 12h-55v105l46 121h-373v1365h891v-234h-604v-332h568v-218h-568v-347h604v-234h-356l-42 -107q88 0 140 -45t52 -124q0 -97 -66.5 -145.5t-181.5 -50.5z" />
    <glyph glyph-name="ecedilla" unicode="&#x229;" horiz-adv-x="1117" 
d="M359 645h406v2q0 100 -56 165t-146 65q-91 0 -147.5 -65.5t-56.5 -164.5v-2zM565 -482q-84 -2 -146 15v126q47 -14 111 -14q109 0 109 60q0 35 -30 47t-98 12h-55v105l44 116q-194 21 -305.5 152t-111.5 354v93q0 234 131.5 366.5t346.5 132.5q219 0 347 -137t128 -368
v-105h-677v-32q0 -113 59.5 -180.5t155.5 -67.5q77 0 128.5 35.5t65.5 98.5h259q-16 -125 -109 -221t-256 -119l-41 -104q88 0 140 -45t52 -124q0 -97 -66.5 -145.5t-181.5 -50.5z" />
    <glyph glyph-name="Odieresismacron" unicode="&#x22a;" horiz-adv-x="1358" 
d="M381 766v-174q0 -185 81.5 -282t216.5 -97q136 0 217 96.5t81 282.5v174q0 186 -81.5 286t-216.5 100t-216.5 -100.5t-81.5 -285.5zM86 593v170q0 292 158 460t436 168t435 -168.5t157 -459.5v-170q0 -289 -157.5 -454t-436.5 -165q-278 0 -435 165t-157 454zM499 1473
q-45 0 -75.5 31.5t-30.5 78.5t30.5 79.5t75.5 32.5q47 0 79.5 -32.5t32.5 -79.5q0 -46 -32.5 -78t-79.5 -32zM853 1473q-46 0 -77 31.5t-31 78.5t31 79.5t77 32.5t78 -32.5t32 -79.5t-31.5 -78.5t-78.5 -31.5zM971 1787h-586v136h586v-136z" />
    <glyph glyph-name="odieresismacron" unicode="&#x22b;" horiz-adv-x="1151" 
d="M387 1194q-50 0 -83 33t-33 83q0 52 33 85.5t83 33.5q51 0 84.5 -33.5t33.5 -85.5q0 -50 -33.5 -83t-84.5 -33zM775 1194q-49 0 -81.5 33t-32.5 83q0 52 32 85.5t82 33.5q52 0 86 -33.5t34 -85.5q0 -50 -34 -83t-86 -33zM872 1551h-590v157h590v-157zM577 1083
q231 0 361 -141t130 -369v-75q0 -239 -128.5 -378t-362.5 -139q-235 0 -364.5 139t-129.5 377v75q0 227 131 369t363 142zM576 868q-104 0 -156 -81.5t-52 -212.5v-82q0 -83 20.5 -147t68.5 -106t119 -42q105 0 156.5 83t51.5 212v82q0 132 -52 213t-156 81z" />
    <glyph glyph-name="Otildemacron" unicode="&#x22c;" horiz-adv-x="1358" 
d="M791 1475q-44 0 -80.5 17.5t-56.5 38t-43 38t-43 17.5q-29 0 -44 -26.5t-17 -62.5h-141q0 88 51 153.5t143 65.5q44 0 82 -17.5t59.5 -38t45.5 -38t44 -17.5q28 0 43.5 28.5t17.5 66.5h141q0 -93 -55.5 -159t-146.5 -66zM971 1787h-586v136h586v-136zM381 766v-174
q0 -185 81.5 -282t216.5 -97q136 0 217 96.5t81 282.5v174q0 186 -81.5 286t-216.5 100t-216.5 -100.5t-81.5 -285.5zM86 593v170q0 292 158 460t436 168t435 -168.5t157 -459.5v-170q0 -289 -157.5 -454t-436.5 -165q-278 0 -435 165t-157 454z" />
    <glyph glyph-name="otildemacron" unicode="&#x22d;" horiz-adv-x="1151" 
d="M697 1176q-46 0 -86 19t-62.5 41.5t-49 41.5t-49.5 19q-19 0 -32.5 -10.5t-20 -27t-9.5 -31t-3 -29.5h-157q0 101 56 172.5t152 71.5q46 0 86.5 -19t64 -41.5t51.5 -41.5t52 -19q33 0 51 29.5t20 74.5h157q0 -102 -61 -176t-160 -74zM872 1551h-590v157h590v-157z
M577 1083q231 0 361 -141t130 -369v-75q0 -239 -128.5 -378t-362.5 -139q-235 0 -364.5 139t-129.5 377v75q0 227 131 369t363 142zM576 868q-104 0 -156 -81.5t-52 -212.5v-82q0 -83 20.5 -147t68.5 -106t119 -42q105 0 156.5 83t51.5 212v82q0 132 -52 213t-156 81z" />
    <glyph glyph-name="Odotaccent" unicode="&#x22e;" horiz-adv-x="1358" 
d="M538 1650q0 57 41 97t99 40t99 -40t41 -97t-41 -96.5t-99 -39.5t-99 39.5t-41 96.5zM381 766v-174q0 -185 81.5 -282t216.5 -97q136 0 217 96.5t81 282.5v174q0 186 -81.5 286t-216.5 100t-216.5 -100.5t-81.5 -285.5zM86 593v170q0 292 158 460t436 168t435 -168.5
t157 -459.5v-170q0 -289 -157.5 -454t-436.5 -165q-278 0 -435 165t-157 454z" />
    <glyph glyph-name="odotaccent" unicode="&#x22f;" horiz-adv-x="1151" 
d="M444 1325q0 56 38.5 95t93.5 39q56 0 95 -39t39 -95q0 -55 -39 -93.5t-95 -38.5q-55 0 -93.5 38.5t-38.5 93.5zM577 1083q231 0 361 -141t130 -369v-75q0 -239 -128.5 -378t-362.5 -139q-235 0 -364.5 139t-129.5 377v75q0 227 131 369t363 142zM576 868
q-104 0 -156 -81.5t-52 -212.5v-82q0 -83 20.5 -147t68.5 -106t119 -42q105 0 156.5 83t51.5 212v82q0 132 -52 213t-156 81z" />
    <glyph glyph-name="Odotaccentmacron" unicode="&#x230;" horiz-adv-x="1358" 
d="M552 1578q0 52 36.5 88t89.5 36t89.5 -36t36.5 -88t-36.5 -87t-89.5 -35t-89.5 35t-36.5 87zM971 1787h-586v136h586v-136zM381 766v-174q0 -185 81.5 -282t216.5 -97q136 0 217 96.5t81 282.5v174q0 186 -81.5 286t-216.5 100t-216.5 -100.5t-81.5 -285.5zM86 593v170
q0 292 158 460t436 168t435 -168.5t157 -459.5v-170q0 -289 -157.5 -454t-436.5 -165q-278 0 -435 165t-157 454z" />
    <glyph glyph-name="odotaccentmacron" unicode="&#x231;" horiz-adv-x="1151" 
d="M577 1083q231 0 361 -141t130 -369v-75q0 -239 -128.5 -378t-362.5 -139q-235 0 -364.5 139t-129.5 377v75q0 227 131 369t363 142zM576 868q-104 0 -156 -81.5t-52 -212.5v-82q0 -83 20.5 -147t68.5 -106t119 -42q105 0 156.5 83t51.5 212v82q0 132 -52 213t-156 81z
M442 1310q0 56 38.5 95t93.5 39q56 0 95 -39t39 -95q0 -55 -39 -93.5t-95 -38.5q-55 0 -93.5 38.5t-38.5 93.5zM872 1551h-590v157h590v-157z" />
    <glyph glyph-name="Ymacron" unicode="&#x232;" horiz-adv-x="1165" 
d="M727 0h-289v505l-457 860h319l281 -573h10l282 573h311l-457 -853v-512zM875 1509h-586v136h586v-136z" />
    <glyph glyph-name="ymacron" unicode="&#x233;" horiz-adv-x="1058" 
d="M1056 1064q-338 -1015 -343 -1027l-27 -73q-24 -63 -49 -110.5t-63 -93t-84 -74t-112 -46t-148 -17.5q-95 0 -153 12v200q32 -7 89 -7q94 0 136 34t55 104l8 34l-363 1064h311l214 -816h11l220 816h298zM827 1225h-590v157h590v-157z" />
    <glyph glyph-name="dotlessj" unicode="&#x237;" horiz-adv-x="554" 
d="M417 1064v-1076q0 -178 -96.5 -265t-265.5 -87q-74 0 -112 8v200q19 -4 57 -4q70 0 103.5 35.5t33.5 115.5v1073h280z" />
    <glyph glyph-name="quoteright" unicode="&#x2019;" horiz-adv-x="509" 
d="M289 850h-206l85 515h258z" />
    <glyph glyph-name="quoteright" unicode="&#x2bc;" horiz-adv-x="509" 
d="M289 850h-206l85 515h258z" />
    <glyph glyph-name="circumflex" unicode="&#x2c6;" horiz-adv-x="946" 
d="M145 1189l232 311h191l233 -311h-212l-113 172h-6l-114 -172h-211z" />
    <glyph glyph-name="caron" unicode="&#x2c7;" horiz-adv-x="948" 
d="M143 1500h211l114 -172h6l113 172h212l-233 -311h-191z" />
    <glyph glyph-name="breve" unicode="&#x2d8;" horiz-adv-x="947" 
d="M156 1486h159q0 -67 40 -113.5t117 -46.5t116.5 46.5t39.5 113.5h157q-1 -126 -83.5 -215.5t-229.5 -89.5q-148 0 -232 89.5t-84 215.5z" />
    <glyph glyph-name="dotaccent" unicode="&#x2d9;" horiz-adv-x="944" 
d="M339 1362q0 56 38.5 95t93.5 39q56 0 95 -39t39 -95q0 -55 -39 -93.5t-95 -38.5q-55 0 -93.5 38.5t-38.5 93.5z" />
    <glyph glyph-name="ring" unicode="&#x2da;" horiz-adv-x="944" 
d="M480 1183q-94 0 -156.5 60t-62.5 152t62.5 151t156.5 59t156 -59t62 -151t-62.5 -152t-155.5 -60zM387 1394q0 -40 26 -66.5t66 -26.5t66.5 26.5t26.5 66.5t-26.5 66.5t-66.5 26.5t-66 -26.5t-26 -66.5z" />
    <glyph glyph-name="ogonek" unicode="&#x2db;" horiz-adv-x="948" 
d="M677 -210v-156q-62 -24 -152 -24q-110 0 -173 53t-63 144q0 46 16.5 90.5t47 84t57 66.5t64.5 60h160q-151 -130 -151 -233q0 -47 32 -71.5t81 -24.5q40 0 81 11z" />
    <glyph glyph-name="tilde" unicode="&#x2dc;" horiz-adv-x="948" 
d="M594 1207q-46 0 -86 19t-62.5 41.5t-49 41.5t-49.5 19q-19 0 -32.5 -10.5t-20 -27t-9.5 -31t-3 -29.5h-157q0 101 56 172.5t152 71.5q46 0 86.5 -19t64 -41.5t51.5 -41.5t52 -19q33 0 51 29.5t20 74.5h157q0 -102 -61 -176t-160 -74z" />
    <glyph glyph-name="hungarumlaut" unicode="&#x2dd;" horiz-adv-x="948" 
d="M246 1189h-168l206 294h210zM590 1189h-169l206 294h210z" />
    <glyph glyph-name="gravecmb" unicode="&#x300;" horiz-adv-x="0" 
d="M111 1189h-196l-254 294h243z" />
    <glyph glyph-name="acutecmb" unicode="&#x301;" horiz-adv-x="0" 
d="M84 1189h-195l207 294h243z" />
    <glyph glyph-name="circumflexcmb" unicode="&#x302;" horiz-adv-x="0" 
d="M-328 1189l232 311h191l233 -311h-212l-113 172h-6l-114 -172h-211z" />
    <glyph glyph-name="tildecmb" unicode="&#x303;" horiz-adv-x="0" 
d="M120 1207q-46 0 -86 19t-62.5 41.5t-49 41.5t-49.5 19q-19 0 -32.5 -10.5t-20 -27t-9.5 -31t-3 -29.5h-157q0 101 56 172.5t152 71.5q46 0 86.5 -19t64 -41.5t51.5 -41.5t52 -19q33 0 51 29.5t20 74.5h157q0 -102 -61 -176t-160 -74z" />
    <glyph glyph-name="macroncmb" unicode="&#x304;" horiz-adv-x="0" 
d="M295 1225h-590v157h590v-157z" />
    <glyph glyph-name="brevecmb" unicode="&#x306;" horiz-adv-x="0" 
d="M-316 1486h159q0 -67 40 -113.5t117 -46.5t116.5 46.5t39.5 113.5h157q-1 -126 -83.5 -215.5t-229.5 -89.5q-148 0 -232 89.5t-84 215.5z" />
    <glyph glyph-name="dotaccentcmb" unicode="&#x307;" horiz-adv-x="0" 
d="M-133 1325q0 56 38.5 95t93.5 39q56 0 95 -39t39 -95q0 -55 -39 -93.5t-95 -38.5q-55 0 -93.5 38.5t-38.5 93.5z" />
    <glyph glyph-name="dieresiscmb" unicode="&#x308;" horiz-adv-x="0" 
d="M-190 1194q-50 0 -83 33t-33 83q0 52 33 85.5t83 33.5q51 0 84.5 -33.5t33.5 -85.5q0 -50 -33.5 -83t-84.5 -33zM198 1194q-49 0 -81.5 33t-32.5 83q0 52 32 85.5t82 33.5q52 0 86 -33.5t34 -85.5q0 -50 -34 -83t-86 -33z" />
    <glyph glyph-name="hookabovecmb" unicode="&#x309;" horiz-adv-x="0" 
d="M-149 1413v120q38 18 109 18q101 0 160.5 -51.5t59.5 -134.5q0 -132 -160 -203l-76 93q47 22 67.5 44t20.5 52q0 33 -27 55.5t-72 22.5q-46 0 -82 -16z" />
    <glyph glyph-name="ringcmb" unicode="&#x30a;" horiz-adv-x="0" 
d="M0 1183q-94 0 -156.5 60t-62.5 152t62.5 151t156.5 59t156 -59t62 -151t-62.5 -152t-155.5 -60zM-93 1394q0 -40 26 -66.5t66 -26.5t66.5 26.5t26.5 66.5t-26.5 66.5t-66.5 26.5t-66 -26.5t-26 -66.5z" />
    <glyph glyph-name="hungarumlautcmb" unicode="&#x30b;" horiz-adv-x="0" 
d="M-122 1189h-168l206 294h210zM222 1189h-169l206 294h210z" />
    <glyph glyph-name="caroncmb" unicode="&#x30c;" horiz-adv-x="0" 
d="M-328 1500h211l114 -172h6l113 172h212l-233 -311h-191z" />
    <glyph glyph-name="dblgravecmb" unicode="&#x30f;" horiz-adv-x="0" 
d="M-245 1189l-247 294h211l205 -294h-169zM98 1189l-247 294h211l204 -294h-168z" />
    <glyph glyph-name="invertedbrevecmb" unicode="&#x311;" horiz-adv-x="0" 
d="M-323 1213q0 130 86 222t237 92t235.5 -92t84.5 -222h-160q0 69 -41 116.5t-119 47.5t-119 -47.5t-41 -116.5h-163z" />
    <glyph glyph-name="horncmb" unicode="&#x31b;" horiz-adv-x="0" 
d="M1 888v207q31 -23 72 -21q51 3 71 34.5t20 88.5v157h223v-189q0 -61 -14.5 -114t-43.5 -95.5t-79 -67t-115 -24.5q-94 0 -134 24z" />
    <glyph glyph-name="dotbelowcmb" unicode="&#x323;" horiz-adv-x="0" 
d="M-118 -259q0 52 34.5 87t84.5 35t85 -35t35 -87q0 -50 -35 -85t-85 -35t-84.5 35t-34.5 85z" />
    <glyph glyph-name="dieresisbelowcmb" unicode="&#x324;" horiz-adv-x="0" 
d="M-197 -379q-50 0 -83 33t-33 83q0 52 33 85.5t83 33.5q51 0 84.5 -33.5t33.5 -85.5q0 -50 -33.5 -83t-84.5 -33zM191 -379q-49 0 -81.5 33t-32.5 83q0 52 32 85.5t82 33.5q52 0 86 -33.5t34 -85.5q0 -50 -34 -83t-86 -33z" />
    <glyph glyph-name="ringbelowcmb" unicode="&#x325;" horiz-adv-x="0" 
d="M0 -531q-94 0 -156.5 60t-62.5 152t62.5 151t156.5 59t156 -59t62 -151t-62.5 -152t-155.5 -60zM-93 -320q0 -40 26 -66.5t66 -26.5t66.5 26.5t26.5 66.5t-26.5 66.5t-66.5 26.5t-66 -26.5t-26 -66.5z" />
    <glyph glyph-name="commabelowcmb" unicode="&#x326;" horiz-adv-x="0" 
d="M3 -489h-189l85 335h218z" />
    <glyph glyph-name="cedillacmb" unicode="&#x327;" horiz-adv-x="0" 
d="M-124 -236v105l52 136h161l-47 -122q88 0 140 -45t52 -124q0 -97 -66.5 -145.5t-181.5 -50.5q-86 -3 -146 15v126q47 -14 111 -14q109 0 109 60q0 35 -30 47t-99 12h-55z" />
    <glyph glyph-name="ogonekcmb" unicode="&#x328;" horiz-adv-x="0" 
d="M170 -210v-156q-62 -24 -152 -24q-110 0 -173 53t-63 144q0 46 16.5 90.5t47 84t57 66.5t64.5 60h160q-151 -130 -151 -233q0 -47 32 -71.5t81 -24.5q40 0 81 11z" />
    <glyph glyph-name="circumflexbelowcmb" unicode="&#x32d;" horiz-adv-x="0" 
d="M-325 -390l230 274h190l230 -274h-208l-112 151h-10l-112 -151h-208z" />
    <glyph glyph-name="brevebelowcmb" unicode="&#x32e;" horiz-adv-x="0" 
d="M-332 -127h168q0 -69 42 -116.5t122 -47.5t122 47.5t42 116.5h161q0 -131 -85 -222t-240 -91q-156 0 -244 90.5t-88 222.5z" />
    <glyph glyph-name="tildebelowcmb" unicode="&#x330;" horiz-adv-x="0" 
d="M124 -382q-45 0 -84 18.5t-61.5 40.5t-48 40.5t-47.5 18.5q-32 0 -46 -30t-15 -65h-153q0 99 53.5 168t147.5 69q45 0 84.5 -18.5t62.5 -40.5t50 -40.5t50 -18.5q31 0 48.5 28.5t19.5 72.5h153q0 -99 -58.5 -171t-155.5 -72z" />
    <glyph glyph-name="macronbelowcmb" unicode="&#x331;" horiz-adv-x="0" 
d="M295 -359h-590v157h590v-157z" />
    <glyph glyph-name="greekquestionmark" unicode="&#x37e;" horiz-adv-x="561" 
d="M273 -314h-214l89 541h273zM123 813q0 67 47.5 115t115.5 48q67 0 115 -48t48 -115t-48 -115t-115 -48t-115 48t-48 115z" />
    <glyph glyph-name="tonosgreek" unicode="&#x384;" horiz-adv-x="827" 
d="M271 1189l79 339h250l-139 -339h-190z" />
    <glyph glyph-name="dieresistonosgreek" unicode="&#x385;" horiz-adv-x="1148" 
d="M270 1194q-50 0 -83 33t-33 83q0 52 33 85.5t83 33.5q51 0 84.5 -33.5t33.5 -85.5q0 -50 -33.5 -83t-84.5 -33zM874 1194q-49 0 -81.5 33t-32.5 83q0 52 32 85.5t82 33.5q52 0 86 -33.5t34 -85.5q0 -50 -34 -83t-86 -33zM450 1189l35 339h250l-95 -339h-190z" />
    <glyph glyph-name="Alphatonosgreek" unicode="&#x386;" horiz-adv-x="1375" 
d="M407 0h-291l452 1365h344l450 -1365h-308l-101 339h-444zM739 1093h-13l-160 -541h331zM41 1026l79 339h250l-139 -339h-190z" />
    <glyph glyph-name="anoteleia" unicode="&#x387;" horiz-adv-x="610" 
d="M139 901q0 68 49 117t117 49t117 -49t49 -117t-49 -117t-117 -49t-117 49t-49 117z" />
    <glyph glyph-name="Epsilontonosgreek" unicode="&#x388;" horiz-adv-x="1481" 
d="M28 1026l79 339h250l-139 -339h-190zM1380 233v-234h-891v1365h891v-234h-604v-332h568v-218h-568v-347h604z" />
    <glyph glyph-name="Etatonosgreek" unicode="&#x389;" horiz-adv-x="1759" 
d="M28 1026l79 339h250l-139 -339h-190zM1619 0h-290v577h-550v-577h-290v1365h290v-550h550v550h290v-1365z" />
    <glyph glyph-name="Iotatonosgreek" unicode="&#x38a;" horiz-adv-x="919" 
d="M779 0h-290v1365h290v-1365zM28 1026l79 339h250l-139 -339h-190z" />
    <glyph glyph-name="Omicrontonosgreek" unicode="&#x38c;" horiz-adv-x="1598" 
d="M622 766v-174q0 -185 81.5 -282t216.5 -97q136 0 217 96.5t81 282.5v174q0 186 -81.5 286t-216.5 100t-216.5 -100.5t-81.5 -285.5zM327 593v170q0 292 158 460t436 168t435 -168.5t157 -459.5v-170q0 -289 -157.5 -454t-436.5 -165q-278 0 -435 165t-157 454zM28 1026
l79 339h250l-139 -339h-190z" />
    <glyph glyph-name="Upsilontonosgreek" unicode="&#x38e;" horiz-adv-x="1628" 
d="M28 1026l79 339h250l-139 -339h-190zM1191 0h-289v505l-457 860h319l281 -573h10l282 573h311l-457 -853v-512z" />
    <glyph glyph-name="Omegatonosgreek" unicode="&#x38f;" horiz-adv-x="1631" 
d="M1010 0v292q88 29 149 145.5t61 268.5v75q0 180 -83 275.5t-218 95.5q-136 0 -218.5 -96.5t-82.5 -274.5v-75q0 -150 60 -267t150 -147v-292h-533v245h240v16q-91 53 -151 175t-60 272v80q0 287 159 445t436 158q278 0 436.5 -158t158.5 -445v-80q0 -150 -60 -272.5
t-151 -174.5v-16h240v-245h-533zM28 1026l79 339h250l-139 -339h-190z" />
    <glyph glyph-name="iotadieresistonosgreek" unicode="&#x390;" horiz-adv-x="671" 
d="M128 1064h279v-721q0 -76 32.5 -105t113.5 -29q32 0 68 2v-205q-61 -11 -137 -11q-196 0 -276 68.5t-80 238.5v762zM-19 1194q-50 0 -83 33t-33 83q0 52 33 85.5t83 33.5q51 0 84.5 -33.5t33.5 -85.5q0 -50 -33.5 -83t-84.5 -33zM585 1194q-49 0 -81.5 33t-32.5 83
q0 52 32 85.5t82 33.5q52 0 86 -33.5t34 -85.5q0 -50 -34 -83t-86 -33zM161 1189l35 339h250l-95 -339h-190z" />
    <glyph glyph-name="Alphagreek" unicode="&#x391;" horiz-adv-x="1273" 
d="M305 0h-291l452 1365h344l450 -1365h-308l-101 339h-444zM637 1093h-13l-160 -541h331z" />
    <glyph glyph-name="Betagreek" unicode="&#x392;" horiz-adv-x="1266" 
d="M141 0v1365h581q186 0 297.5 -90t111.5 -245q0 -121 -65.5 -197.5t-171.5 -101.5v-13q129 -12 217 -98t88 -234q0 -180 -132 -283t-343 -103h-583zM428 1153v-351h172q247 0 247 178q0 80 -51 126.5t-143 46.5h-225zM428 606v-393h193q148 0 216 48.5t68 144.5
q0 94 -61 147t-175 53h-241z" />
    <glyph glyph-name="Gammagreek" unicode="&#x393;" horiz-adv-x="1057" 
d="M431 0h-290v1365h863v-236h-573v-1129z" />
    <glyph glyph-name="Deltagreek" unicode="&#x2206;" horiz-adv-x="1286" 
d="M49 0v150l424 1215h343l422 -1215v-150h-1189zM631 1083l-284 -870h578l-281 870h-13z" />
    <glyph glyph-name="Deltagreek" unicode="&#x394;" horiz-adv-x="1286" 
d="M49 0v150l424 1215h343l422 -1215v-150h-1189zM631 1083l-284 -870h578l-281 870h-13z" />
    <glyph glyph-name="Epsilongreek" unicode="&#x395;" horiz-adv-x="1133" 
d="M1032 233v-234h-891v1365h891v-234h-604v-332h568v-218h-568v-347h604z" />
    <glyph glyph-name="Zetagreek" unicode="&#x396;" horiz-adv-x="1183" 
d="M84 0v188l646 931v11h-630v235h980v-187l-644 -931v-12h664v-235h-1016z" />
    <glyph glyph-name="Etagreek" unicode="&#x397;" horiz-adv-x="1412" 
d="M1271 0h-290v577h-550v-577h-290v1365h290v-550h550v550h290v-1365z" />
    <glyph glyph-name="Thetagreek" unicode="&#x398;" horiz-adv-x="1418" 
d="M931 570h-445v228h445v-228zM376 771v-184q0 -177 91 -273t241 -96q151 0 242.5 95t91.5 274v184q0 182 -91 279t-243 97t-242 -98.5t-90 -277.5zM86 593v170q0 293 168 460.5t455 167.5q288 0 455.5 -167t167.5 -461v-170q0 -291 -168 -455t-457 -164q-288 0 -454.5 164
t-166.5 455z" />
    <glyph glyph-name="Iotagreek" unicode="&#x399;" horiz-adv-x="572" 
d="M431 0h-290v1365h290v-1365z" />
    <glyph glyph-name="Kappagreek" unicode="&#x39a;" horiz-adv-x="1273" 
d="M1260 1365l-483 -589l503 -776h-346l-369 584l-134 -154v-430h-290v1365h290v-601h13l501 601h315z" />
    <glyph glyph-name="Lambdagreek" unicode="&#x39b;" horiz-adv-x="1248" 
d="M612 1058l-303 -1058h-293l437 1365h344l435 -1365h-309l-299 1058h-12z" />
    <glyph glyph-name="Mugreek" unicode="&#x39c;" horiz-adv-x="1640" 
d="M402 0h-258v1365h296l377 -846h9l377 846h294v-1365h-261v884h-12l-314 -702h-181l-315 702h-12v-884z" />
    <glyph glyph-name="Nugreek" unicode="&#x39d;" horiz-adv-x="1385" 
d="M410 0h-269v1365h237l587 -876h10v876h269v-1365h-236l-588 882h-10v-882z" />
    <glyph glyph-name="Xigreek" unicode="&#x39e;" horiz-adv-x="1174" 
d="M101 1124v241h972v-241h-972zM188 576v225h799v-225h-799zM101 0v241h972v-241h-972z" />
    <glyph glyph-name="Omicrongreek" unicode="&#x39f;" horiz-adv-x="1358" 
d="M381 766v-174q0 -185 81.5 -282t216.5 -97q136 0 217 96.5t81 282.5v174q0 186 -81.5 286t-216.5 100t-216.5 -100.5t-81.5 -285.5zM86 593v170q0 292 158 460t436 168t435 -168.5t157 -459.5v-170q0 -289 -157.5 -454t-436.5 -165q-278 0 -435 165t-157 454z" />
    <glyph glyph-name="Pigreek" unicode="&#x3a0;" horiz-adv-x="1392" 
d="M1251 0h-290v1127h-530v-1127h-290v1365h1110v-1365z" />
    <glyph glyph-name="Rhogreek" unicode="&#x3a1;" horiz-adv-x="1207" 
d="M141 1365h556q218 0 342.5 -130.5t124.5 -330.5q0 -201 -125 -329t-345 -128h-264v-447h-289v1365zM429 1138v-467h153q142 0 215 53t73 180q0 112 -61.5 173t-171.5 61h-208z" />
    <glyph glyph-name="Sigmagreek" unicode="&#x3a3;" horiz-adv-x="1163" 
d="M84 168l363 519l-357 491v187h980v-235h-609v-11l295 -410v-31l-304 -431v-12h628v-235h-996v168z" />
    <glyph glyph-name="Taugreek" unicode="&#x3a4;" horiz-adv-x="1083" 
d="M686 0h-289v1125h-383v240h1055v-240h-383v-1125z" />
    <glyph glyph-name="Upsilongreek" unicode="&#x3a5;" horiz-adv-x="1165" 
d="M727 0h-289v505l-457 860h319l281 -573h10l282 573h311l-457 -853v-512z" />
    <glyph glyph-name="Phigreek" unicode="&#x3a6;" horiz-adv-x="1632" 
d="M947 -69h-262v109q-283 7 -441 170.5t-158 443.5v48q0 279 157 442.5t442 170.5v115h262v-115q285 -7 442 -170.5t157 -442.5v-48q0 -280 -158 -443.5t-441 -170.5v-109zM942 260q149 7 233 106t84 277v67q0 179 -83.5 279t-233.5 106v-835zM690 260v835
q-150 -6 -233.5 -106t-83.5 -279v-67q0 -178 84 -277t233 -106z" />
    <glyph glyph-name="Chigreek" unicode="&#x3a7;" horiz-adv-x="1197" 
d="M1210 1365l-431 -684l425 -681h-330l-280 472h-13l-280 -472h-313l418 688l-416 677h341l271 -481h13l269 481h326z" />
    <glyph glyph-name="Psigreek" unicode="&#x3a8;" horiz-adv-x="1545" 
d="M636 0v287q-515 19 -515 495v583h274v-586q0 -135 57.5 -195t183.5 -66v847h274v-847q126 6 183.5 66t57.5 195v586h274v-583q0 -474 -515 -495v-287h-274z" />
    <glyph glyph-name="Omegagreek" unicode="&#x2126;" horiz-adv-x="1426" 
d="M804 0v292q88 29 149 145.5t61 268.5v75q0 180 -83 275.5t-218 95.5q-136 0 -218.5 -96.5t-82.5 -274.5v-75q0 -150 60 -267t150 -147v-292h-533v245h240v16q-91 53 -151 175t-60 272v80q0 287 159 445t436 158q278 0 436.5 -158t158.5 -445v-80q0 -150 -60 -272.5
t-151 -174.5v-16h240v-245h-533z" />
    <glyph glyph-name="Omegagreek" unicode="&#x3a9;" horiz-adv-x="1426" 
d="M804 0v292q88 29 149 145.5t61 268.5v75q0 180 -83 275.5t-218 95.5q-136 0 -218.5 -96.5t-82.5 -274.5v-75q0 -150 60 -267t150 -147v-292h-533v245h240v16q-91 53 -151 175t-60 272v80q0 287 159 445t436 158q278 0 436.5 -158t158.5 -445v-80q0 -150 -60 -272.5
t-151 -174.5v-16h240v-245h-533z" />
    <glyph glyph-name="Iotadieresisgreek" unicode="&#x3aa;" horiz-adv-x="572" 
d="M431 0h-290v1365h290v-1365zM107 1473q-45 0 -75.5 31.5t-30.5 78.5t30.5 79.5t75.5 32.5q47 0 79.5 -32.5t32.5 -79.5q0 -46 -32.5 -78t-79.5 -32zM461 1473q-46 0 -77 31.5t-31 78.5t31 79.5t77 32.5t78 -32.5t32 -79.5t-31.5 -78.5t-78.5 -31.5z" />
    <glyph glyph-name="Upsilondieresisgreek" unicode="&#x3ab;" horiz-adv-x="1165" 
d="M727 0h-289v505l-457 860h319l281 -573h10l282 573h311l-457 -853v-512zM404 1473q-45 0 -75.5 31.5t-30.5 78.5t30.5 79.5t75.5 32.5q47 0 79.5 -32.5t32.5 -79.5q0 -46 -32.5 -78t-79.5 -32zM758 1473q-46 0 -77 31.5t-31 78.5t31 79.5t77 32.5t78 -32.5t32 -79.5
t-32 -78.5t-78 -31.5z" />
    <glyph glyph-name="alphatonosgreek" unicode="&#x3ac;" horiz-adv-x="1275" 
d="M487 -13q-185 0 -292 133.5t-107 390.5v46q0 248 104 384t293 136q109 0 186 -49.5t111 -138.5h12v175h273v-738q0 -69 17.5 -94.5t64.5 -25.5q25 0 49 6v-206q-44 -14 -120 -14q-226 0 -270 164l-8 23h-12q-31 -87 -111.5 -139.5t-189.5 -52.5zM578 208q98 0 153 78.5
t55 218.5v56q0 139 -56 216t-156 77q-96 0 -146.5 -77.5t-50.5 -212.5v-60q0 -138 51.5 -217t149.5 -79zM452 1189l79 339h250l-139 -339h-190z" />
    <glyph glyph-name="epsilontonosgreek" unicode="&#x3ad;" horiz-adv-x="1149" 
d="M481 1189l79 339h250l-139 -339h-190zM543 -19q-221 0 -337 81.5t-116 224.5q0 175 176 245v13q-73 25 -111 82t-38 141q0 144 116 229.5t339 85.5q231 0 346.5 -88.5t133.5 -261.5h-257q-18 74 -72 107t-151 33q-89 0 -135 -34t-46 -91q0 -114 167 -114h141v-199h-145
q-176 0 -176 -119q0 -60 50 -92.5t143 -32.5q99 0 160 44.5t82 122.5h268q-32 -178 -168 -277.5t-370 -99.5z" />
    <glyph glyph-name="etatonosgreek" unicode="&#x3ae;" horiz-adv-x="1288" 
d="M219 0v741q0 64 -20.5 90.5t-71.5 26.5q-17 0 -52 -8v207q54 15 127 15q113 0 176.5 -41.5t89.5 -129.5l4 -13h12q40 90 122.5 141t191.5 51q184 0 279.5 -104.5t95.5 -290.5v-1039h-281v976q0 105 -52.5 162.5t-139.5 57.5q-92 0 -146 -60t-54 -166v-616h-281zM465 1189
l79 339h250l-139 -339h-190z" />
    <glyph glyph-name="iotatonosgreek" unicode="&#x3af;" horiz-adv-x="671" 
d="M128 1064h279v-721q0 -76 32.5 -105t113.5 -29q32 0 68 2v-205q-61 -11 -137 -11q-196 0 -276 68.5t-80 238.5v762zM165 1189l79 339h250l-139 -339h-190z" />
    <glyph glyph-name="upsilondieresistonosgreek" unicode="&#x3b0;" horiz-adv-x="1147" 
d="M252 1194q-50 0 -83 33t-33 83q0 52 33 85.5t83 33.5q51 0 84.5 -33.5t33.5 -85.5q0 -50 -33.5 -83t-84.5 -33zM856 1194q-49 0 -81.5 33t-32.5 83q0 52 32 85.5t82 33.5q52 0 86 -33.5t34 -85.5q0 -50 -34 -83t-86 -33zM432 1189l35 339h250l-95 -339h-190zM557 -16
q-215 0 -328.5 107.5t-113.5 324.5v648h267v-604q0 -129 43.5 -185.5t141.5 -56.5q207 0 207 328q0 281 -92 518h273q43 -88 67 -223.5t24 -289.5q0 -280 -126.5 -423.5t-362.5 -143.5z" />
    <glyph glyph-name="alphagreek" unicode="&#x3b1;" horiz-adv-x="1275" 
d="M487 -13q-185 0 -292 133.5t-107 390.5v46q0 248 104 384t293 136q109 0 186 -49.5t111 -138.5h12v175h273v-738q0 -69 17.5 -94.5t64.5 -25.5q25 0 49 6v-206q-44 -14 -120 -14q-226 0 -270 164l-8 23h-12q-31 -87 -111.5 -139.5t-189.5 -52.5zM578 208q98 0 153 78.5
t55 218.5v56q0 139 -56 216t-156 77q-96 0 -146.5 -77.5t-50.5 -212.5v-60q0 -138 51.5 -217t149.5 -79z" />
    <glyph glyph-name="betagreek" unicode="&#x3b2;" horiz-adv-x="1215" 
d="M128 -352v1331q0 249 121.5 372t350.5 123q214 0 327 -98.5t113 -270.5q0 -103 -49 -185.5t-135 -122.5v-11q286 -68 286 -382q0 -188 -109.5 -302.5t-301.5 -114.5q-106 0 -188 46t-121 131h-12v-516h-282zM637 206q99 0 158 60.5t59 162.5q0 116 -66.5 178t-201.5 62
h-65v208h66q102 0 148.5 48.5t46.5 144.5q0 87 -48 138t-132 51q-195 0 -195 -259v-527q0 -131 59 -199t171 -68z" />
    <glyph glyph-name="gammagreek" unicode="&#x3b3;" horiz-adv-x="1134" 
d="M409 -352v285l-391 1131h287l257 -829h12q112 182 160.5 331.5t48.5 307.5q0 117 -19 190h272q20 -67 20 -193q0 -413 -370 -908v-315h-277z" />
    <glyph glyph-name="deltagreek" unicode="&#x3b4;" horiz-adv-x="1134" 
d="M561 -19q-226 0 -355.5 126t-129.5 367v15q0 185 91.5 303.5t252.5 152.5v12q-98 50 -140.5 108.5t-42.5 136.5q0 124 99.5 198t271.5 74q213 0 350 -78v-201q-126 77 -311 77q-64 0 -98.5 -23.5t-34.5 -66.5q0 -37 29 -66.5t115 -76.5q226 -130 309.5 -246.5
t83.5 -304.5v-15q0 -233 -132.5 -362.5t-357.5 -129.5zM563 183q211 0 211 303q0 151 -55 224.5t-153 73.5q-213 0 -213 -301q0 -300 210 -300z" />
    <glyph glyph-name="epsilongreek" unicode="&#x3b5;" horiz-adv-x="1149" 
d="M543 -19q-221 0 -337 81.5t-116 224.5q0 175 176 245v13q-73 25 -111 82t-38 141q0 144 116 229.5t339 85.5q231 0 346.5 -88.5t133.5 -261.5h-257q-18 74 -72 107t-151 33q-89 0 -135 -34t-46 -91q0 -114 167 -114h141v-199h-145q-176 0 -176 -119q0 -60 50 -92.5
t143 -32.5q99 0 160 44.5t82 122.5h268q-32 -178 -168 -277.5t-370 -99.5z" />
    <glyph glyph-name="zetagreek" unicode="&#x3b6;" horiz-adv-x="932" 
d="M586 -315q67 95 67 166q0 57 -35.5 89.5t-152.5 87.5q-212 99 -299.5 208.5t-87.5 289.5q0 173 106 344t308 325v12h-349v230h771v-205q-301 -212 -427 -371t-126 -307q0 -108 50.5 -173.5t195.5 -133.5q185 -86 249.5 -155.5t64.5 -176.5q0 -134 -129 -320z" />
    <glyph glyph-name="etagreek" unicode="&#x3b7;" horiz-adv-x="1288" 
d="M219 0v741q0 64 -20.5 90.5t-71.5 26.5q-17 0 -52 -8v207q54 15 127 15q113 0 176.5 -41.5t89.5 -129.5l4 -13h12q40 90 122.5 141t191.5 51q184 0 279.5 -104.5t95.5 -290.5v-1039h-281v976q0 105 -52.5 162.5t-139.5 57.5q-92 0 -146 -60t-54 -166v-616h-281z" />
    <glyph glyph-name="thetagreek" unicode="&#x3b8;" horiz-adv-x="1187" 
d="M594 -19q-505 0 -505 666v161q0 333 129 499.5t375 166.5t375.5 -167t129.5 -499v-161q0 -336 -126 -501t-378 -165zM594 191q77 0 125 39t74.5 133t26.5 250h-453q0 -230 55.5 -326t171.5 -96zM367 829h453q-1 167 -28 264.5t-74.5 134t-123.5 36.5q-77 0 -124 -37
t-74.5 -134t-28.5 -264z" />
    <glyph glyph-name="iotagreek" unicode="&#x3b9;" horiz-adv-x="671" 
d="M128 1064h279v-721q0 -76 32.5 -105t113.5 -29q32 0 68 2v-205q-61 -11 -137 -11q-196 0 -276 68.5t-80 238.5v762z" />
    <glyph glyph-name="kappagreek" unicode="&#x3ba;" horiz-adv-x="1170" 
d="M383 264v-264h-255v1064h255v-482h11l273 321q83 97 142.5 133t140.5 36q67 0 117 -14v-206q-26 6 -58 6q-47 0 -77 -16t-68 -60l-133 -155l386 -627h-275l-287 461z" />
    <glyph glyph-name="lambdagreek" unicode="&#x3bb;" horiz-adv-x="1168" 
d="M53 0l404 984l-27 76q-44 123 -84.5 162.5t-122.5 39.5q-31 0 -65 -8v207q54 13 126 13q79 0 132 -17t99 -64t82 -119.5t79 -193.5l275 -781q19 -55 43 -74t71 -19q9 0 48 6v-206q-49 -14 -125 -14q-110 0 -167.5 40.5t-95.5 155.5l-143 428h-13l-232 -616h-284z" />
    <glyph glyph-name="nugreek" unicode="&#x3bd;" horiz-adv-x="1134" 
d="M386 0l-368 1064h287l257 -829h12q112 182 160.5 331.5t48.5 307.5q0 117 -19 190h272q20 -67 20 -193q0 -202 -82.5 -412.5t-260.5 -458.5h-327z" />
    <glyph glyph-name="xigreek" unicode="&#x3be;" horiz-adv-x="987" 
d="M600 -315q68 97 68 166q0 53 -37.5 87.5t-159.5 90.5q-228 103 -308 185t-80 211q0 104 61.5 179t176.5 103v12q-180 62 -180 243q0 183 195 234v11h-183v230h764v-205l-119 -13q-209 -21 -296 -71.5t-87 -134.5q0 -75 57.5 -112.5t196.5 -37.5h180v-216h-192
q-145 0 -218 -44t-73 -125q0 -37 9 -60.5t42 -52.5t83.5 -57t147.5 -76q170 -85 228.5 -150t58.5 -167q0 -136 -129 -320z" />
    <glyph glyph-name="omicrongreek" unicode="&#x3bf;" horiz-adv-x="1136" 
d="M569 -19q-232 0 -359 138.5t-127 377.5v75q0 227 130 369t356 142t355 -141.5t129 -368.5v-75q0 -238 -128 -377.5t-356 -139.5zM569 197q95 0 147.5 77t52.5 218v82q0 138 -52 216t-148 78q-95 0 -148 -78t-53 -216v-82q0 -141 53 -218t148 -77z" />
    <glyph glyph-name="pigreek" unicode="&#x3c0;" horiz-adv-x="1407" 
d="M271 0v834h-208v230h1262v-230h-212v-502q0 -69 22.5 -97.5t79.5 -28.5q24 0 56 6v-204q-57 -16 -138 -16q-149 0 -219 70t-70 220v552h-304v-834h-269z" />
    <glyph glyph-name="rhogreek" unicode="&#x3c1;" horiz-adv-x="1179" 
d="M605 209q96 0 148 74.5t52 218.5v63q0 289 -206 289q-99 0 -153.5 -73t-54.5 -217v-65q0 -139 58 -214.5t156 -75.5zM110 -352v916q0 250 128.5 381.5t362.5 131.5q243 0 368 -136.5t125 -377.5v-62q0 -242 -105.5 -378t-290.5 -136q-207 0 -294 154h-12v-493h-282z" />
    <glyph glyph-name="sigmafinalgreek" unicode="&#x3c2;" horiz-adv-x="1081" 
d="M581 -315q67 95 67 166q0 59 -32.5 91.5t-147.5 85.5q-215 99 -300 210.5t-85 305.5v20q0 234 127 376.5t353 142.5q203 0 324 -107.5t126 -276.5h-258q-11 71 -58 116.5t-119 45.5q-98 0 -155 -72t-57 -209v-8q0 -121 49.5 -188.5t195.5 -136.5q182 -85 243.5 -154
t61.5 -178q0 -134 -129 -320z" />
    <glyph glyph-name="sigmagreek" unicode="&#x3c3;" horiz-adv-x="1270" 
d="M571 -19q-228 0 -358 136.5t-130 376.5v38q0 249 140.5 390.5t374.5 141.5h605v-230h-252v-12q108 -111 108 -304v-38q0 -239 -134.5 -369t-353.5 -130zM576 197q99 0 152.5 78t53.5 214v66q0 127 -54 203t-151 76q-102 0 -155 -77.5t-53 -214.5v-53q0 -136 54 -214
t153 -78z" />
    <glyph glyph-name="taugreek" unicode="&#x3c4;" horiz-adv-x="1031" 
d="M48 1064h916v-230h-325v-491q0 -75 35 -104.5t116 -29.5q50 0 68 2v-205q-60 -11 -137 -11q-197 0 -279 69.5t-82 237.5v532h-312v230z" />
    <glyph glyph-name="upsilongreek" unicode="&#x3c5;" horiz-adv-x="1147" 
d="M557 -16q-215 0 -328.5 107.5t-113.5 324.5v648h267v-604q0 -129 43.5 -185.5t141.5 -56.5q207 0 207 328q0 281 -92 518h273q43 -88 67 -223.5t24 -289.5q0 -280 -126.5 -423.5t-362.5 -143.5z" />
    <glyph glyph-name="phigreek" unicode="&#x3c6;" horiz-adv-x="1509" 
d="M625 -352v333q-254 7 -398 148t-144 380v46q0 243 145.5 381.5t396.5 146.5v232h260v-232q251 -8 396 -146.5t145 -381.5v-46q0 -239 -143.5 -380t-397.5 -148v-333h-260zM631 193v678q-269 -12 -269 -339q0 -166 67.5 -248.5t201.5 -90.5zM878 193q271 8 271 340
q0 163 -68 248.5t-203 89.5v-678z" />
    <glyph glyph-name="chigreek" unicode="&#x3c7;" horiz-adv-x="1159" 
d="M64 -352l384 705l-188 364q-46 85 -78.5 113.5t-82.5 28.5q-23 0 -53 -8v206q56 16 125 16q109 0 169 -41t117 -156l143 -292h13l240 480h278l-391 -723l192 -369q36 -67 68 -93t77 -26q25 0 53 10v-206q-61 -18 -123 -18q-103 0 -164.5 41t-112.5 141l-143 287h-13
l-230 -460h-280z" />
    <glyph glyph-name="psigreek" unicode="&#x3c8;" horiz-adv-x="1512" 
d="M609 -355v339q-246 4 -370 114t-124 337v629h267v-622q0 -224 227 -224v1097h267v-1097q135 2 199 85t64 259q0 144 -21.5 259t-70.5 243h274q42 -88 66.5 -222.5t24.5 -290.5q0 -288 -133 -427.5t-403 -139.5v-339h-267z" />
    <glyph glyph-name="omegagreek" unicode="&#x3c9;" horiz-adv-x="1566" 
d="M913 396q0 -92 36 -140.5t98 -48.5q75 0 109.5 59t34.5 209q0 319 -173 589h282q75 -103 120.5 -259t45.5 -322q0 -502 -386 -502q-216 0 -292 216h-9q-76 -216 -296 -216q-184 0 -283 123t-99 380q0 165 45.5 321t120.5 259h282q-174 -269 -174 -588q0 -151 34.5 -210
t110.5 -59q61 0 97.5 49t36.5 140v366h259v-366z" />
    <glyph glyph-name="iotadieresisgreek" unicode="&#x3ca;" horiz-adv-x="671" 
d="M128 1064h279v-721q0 -76 32.5 -105t113.5 -29q32 0 68 2v-205q-61 -11 -137 -11q-196 0 -276 68.5t-80 238.5v762zM77 1194q-50 0 -83 33t-33 83q0 52 33 85.5t83 33.5q51 0 84.5 -33.5t33.5 -85.5q0 -50 -33.5 -83t-84.5 -33zM465 1194q-49 0 -81.5 33t-32.5 83
q0 52 32 85.5t82 33.5q52 0 86 -33.5t34 -85.5q0 -50 -34 -83t-86 -33z" />
    <glyph glyph-name="upsilondieresisgreek" unicode="&#x3cb;" horiz-adv-x="1147" 
d="M354 1194q-50 0 -83 33t-33 83q0 52 33 85.5t83 33.5q51 0 84.5 -33.5t33.5 -85.5q0 -50 -33.5 -83t-84.5 -33zM742 1194q-49 0 -81.5 33t-32.5 83q0 52 32 85.5t82 33.5q52 0 86 -33.5t34 -85.5q0 -50 -34 -83t-86 -33zM557 -16q-215 0 -328.5 107.5t-113.5 324.5v648
h267v-604q0 -129 43.5 -185.5t141.5 -56.5q207 0 207 328q0 281 -92 518h273q43 -88 67 -223.5t24 -289.5q0 -280 -126.5 -423.5t-362.5 -143.5z" />
    <glyph glyph-name="omicrontonosgreek" unicode="&#x3cc;" horiz-adv-x="1136" 
d="M569 -19q-232 0 -359 138.5t-127 377.5v75q0 227 130 369t356 142t355 -141.5t129 -368.5v-75q0 -238 -128 -377.5t-356 -139.5zM569 197q95 0 147.5 77t52.5 218v82q0 138 -52 216t-148 78q-95 0 -148 -78t-53 -216v-82q0 -141 53 -218t148 -77zM477 1189l79 339h250
l-139 -339h-190z" />
    <glyph glyph-name="upsilontonosgreek" unicode="&#x3cd;" horiz-adv-x="1147" 
d="M449 1189l79 339h250l-139 -339h-190zM557 -16q-215 0 -328.5 107.5t-113.5 324.5v648h267v-604q0 -129 43.5 -185.5t141.5 -56.5q207 0 207 328q0 281 -92 518h273q43 -88 67 -223.5t24 -289.5q0 -280 -126.5 -423.5t-362.5 -143.5z" />
    <glyph glyph-name="omegatonosgreek" unicode="&#x3ce;" horiz-adv-x="1566" 
d="M913 396q0 -92 36 -140.5t98 -48.5q75 0 109.5 59t34.5 209q0 319 -173 589h282q75 -103 120.5 -259t45.5 -322q0 -502 -386 -502q-216 0 -292 216h-9q-76 -216 -296 -216q-184 0 -283 123t-99 380q0 165 45.5 321t120.5 259h282q-174 -269 -174 -588q0 -151 34.5 -210
t110.5 -59q61 0 97.5 49t36.5 140v366h259v-366zM693 1189l79 339h250l-139 -339h-190z" />
    <glyph glyph-name="uni0400" unicode="&#x400;" horiz-adv-x="1153" 
d="M697 1504h-196l-255 294h243zM1042 234v-234h-891v1365h891v-234h-604v-332h568v-218h-568v-347h604z" />
    <glyph glyph-name="Iocyrillic" unicode="&#x401;" horiz-adv-x="1153" 
d="M408 1473q-45 0 -75.5 31.5t-30.5 78.5t30.5 79.5t75.5 32.5q47 0 79.5 -32.5t32.5 -79.5q0 -46 -32.5 -78t-79.5 -32zM762 1473q-46 0 -77 31.5t-31 78.5t31 79.5t77 32.5t78 -32.5t32 -79.5t-32 -78.5t-78 -31.5zM1042 234v-234h-891v1365h891v-234h-604v-332h568v-218
h-568v-347h604z" />
    <glyph glyph-name="Djecyrillic" unicode="&#x402;" horiz-adv-x="1541" 
d="M707 760q49 35 135 58.5t163 23.5q214 0 334.5 -113.5t120.5 -316.5q0 -193 -118.5 -311t-316.5 -118q-102 0 -141 17v223q30 -8 98 -8q83 0 135.5 53t52.5 137q0 100 -58 153t-168 53q-68 0 -138 -23.5t-110 -60.5v-527h-289v1125h-383v240h1055v-240h-383v-365h11z" />
    <glyph glyph-name="Gjecyrillic" unicode="&#x403;" horiz-adv-x="1094" 
d="M679 1504h-196l208 294h243zM441 0h-290v1365h878v-236h-588v-1129z" />
    <glyph glyph-name="Ecyrillic" unicode="&#x404;" horiz-adv-x="1306" 
d="M1217 903h-279q-8 108 -77 176.5t-185 68.5q-131 0 -205 -90t-82 -259h486v-216h-487q4 -177 79 -271.5t209 -94.5q116 0 186 67t76 171h279v-10q0 -208 -153 -339.5t-390 -131.5q-275 0 -426.5 168t-151.5 462v153q0 296 151.5 465t426.5 169q238 0 390.5 -134.5
t152.5 -349.5v-4z" />
    <glyph glyph-name="Dzecyrillic" unicode="&#x405;" horiz-adv-x="1236" 
d="M68 392h278q6 -81 77.5 -136t194.5 -55q118 0 182.5 48.5t64.5 129.5q0 68 -50 106.5t-158 62.5l-205 47q-76 16 -137 44.5t-110.5 73.5t-77 112t-27.5 151q0 130 69.5 226t185.5 143.5t262 47.5q228 0 369.5 -113.5t143.5 -295.5h-270q-6 78 -69 131.5t-175 53.5
q-105 0 -166 -46t-61 -125q0 -119 186 -157l207 -46q81 -17 143 -44.5t115.5 -72t82 -113t28.5 -158.5q0 -201 -146.5 -317t-400.5 -116q-116 0 -209 25t-152.5 66t-99.5 96.5t-57 112.5t-18 118z" />
    <glyph glyph-name="Icyrillic" unicode="&#x406;" horiz-adv-x="592" 
d="M441 0h-290v1365h290v-1365z" />
    <glyph glyph-name="Yicyrillic" unicode="&#x407;" horiz-adv-x="582" 
d="M436 0h-290v1365h290v-1365zM112 1473q-45 0 -75.5 31.5t-30.5 78.5t30.5 79.5t75.5 32.5q47 0 79.5 -32.5t32.5 -79.5q0 -46 -32.5 -78t-79.5 -32zM466 1473q-46 0 -77 31.5t-31 78.5t31 79.5t77 32.5t78 -32.5t32 -79.5t-32 -78.5t-78 -31.5z" />
    <glyph glyph-name="Jecyrillic" unicode="&#x408;" horiz-adv-x="1103" 
d="M36 405h278q2 -81 48 -128t130 -47q93 0 136.5 55.5t43.5 166.5v913h290v-917q0 -231 -123 -352.5t-345 -121.5q-112 0 -200.5 35t-144 95t-84.5 137t-29 164z" />
    <glyph glyph-name="Ljecyrillic" unicode="&#x409;" horiz-adv-x="1986" 
d="M527 815q-4 -157 -13.5 -271t-28 -211t-46.5 -159.5t-70 -107t-97.5 -63.5t-130.5 -19q-74 0 -101 16v249q20 -9 51 -9q98 0 133 136t40 482l7 507h918v-447h264q220 0 345 -128t125 -328q0 -201 -124.5 -331.5t-342.5 -130.5h-556v1127h-364zM1396 694h-210v-466h210
q109 0 171 61t62 172t-62 172t-171 61z" />
    <glyph glyph-name="Njecyrillic" unicode="&#x40a;" horiz-adv-x="2077" 
d="M991 858v507h289v-507h262q222 0 347 -117.5t125 -307.5q0 -192 -124.5 -312.5t-344.5 -120.5h-554v620h-550v-620h-290v1365h290v-507h550zM1492 635h-215v-407h215q108 0 168 51.5t60 151.5q0 101 -59.5 152.5t-168.5 51.5z" />
    <glyph glyph-name="Tshecyrillic" unicode="&#x40b;" horiz-adv-x="1595" 
d="M707 760q46 34 131 58t162 24q218 0 336.5 -122t118.5 -345v-375h-290v360q0 248 -228 248q-65 0 -133 -23.5t-108 -59.5v-525h-289v1125h-383v240h1055v-240h-383v-365h11z" />
    <glyph glyph-name="Kjecyrillic" unicode="&#x40c;" horiz-adv-x="1297" 
d="M779 1504h-196l208 294h243zM934 0l-481 587h-12v-587h-290v1365h290v-560h12l492 560h334l-573 -648l577 -717h-349z" />
    <glyph glyph-name="uni040D" unicode="&#x40d;" horiz-adv-x="1432" 
d="M826 1504h-196l-255 294h243zM1001 0v919h-12l-573 -919h-265v1365h280v-917h12l573 917h265v-1365h-280z" />
    <glyph glyph-name="Ushortcyrillic" unicode="&#x40e;" horiz-adv-x="1183" 
d="M779 1773h164q0 -135 -89 -217t-249 -82q-159 0 -248.5 82t-89.5 217h164q0 -73 44 -114.5t130 -41.5t130 41.5t44 114.5zM893 1365h299l-435 -984q-63 -141 -123.5 -224.5t-142.5 -128t-192 -44.5q-93 0 -136 16v236q33 -11 100 -11q63 0 111.5 29.5t90.5 99.5
l-474 1011h316l296 -702h12z" />
    <glyph glyph-name="Dzhecyrillic" unicode="&#x40f;" horiz-adv-x="1422" 
d="M981 1365h290v-1365h-431v-286h-257v286h-432v1365h290v-1126h540v1126z" />
    <glyph glyph-name="Acyrillic" unicode="&#x410;" horiz-adv-x="1293" 
d="M315 0h-291l452 1365h344l450 -1365h-308l-101 339h-444zM647 1093h-13l-160 -541h331z" />
    <glyph glyph-name="Becyrillic" unicode="&#x411;" horiz-adv-x="1240" 
d="M440 1129v-276h259q220 0 345 -118t125 -303q0 -188 -124.5 -310t-342.5 -122h-551v1365h893v-236h-604zM439 228h213q105 0 164 53t59 150q0 96 -59 149.5t-164 53.5h-213v-406z" />
    <glyph glyph-name="Vecyrillic" unicode="&#x412;" horiz-adv-x="1286" 
d="M151 0v1365h581q186 0 297.5 -90t111.5 -245q0 -121 -65.5 -197.5t-171.5 -101.5v-13q129 -12 217 -98t88 -234q0 -180 -132 -283t-343 -103h-583zM438 1153v-351h172q247 0 247 178q0 80 -51 126.5t-143 46.5h-225zM438 606v-393h193q148 0 216 48.5t68 144.5
q0 94 -61 147t-175 53h-241z" />
    <glyph glyph-name="Gecyrillic" unicode="&#x413;" horiz-adv-x="1094" 
d="M441 0h-290v1365h878v-236h-588v-1129z" />
    <glyph glyph-name="Decyrillic" unicode="&#x414;" horiz-adv-x="1467" 
d="M968 239v888h-417l-12 -309q-9 -244 -27.5 -369.5t-71.5 -197.5v-12h528zM285 -286h-257v525h111q78 54 103.5 180.5t34.5 438.5l17 507h958v-1126h170v-525h-257v286h-880v-286z" />
    <glyph glyph-name="Iecyrillic" unicode="&#x415;" horiz-adv-x="1153" 
d="M1042 234v-234h-891v1365h891v-234h-604v-332h568v-218h-568v-347h604z" />
    <glyph glyph-name="Zhecyrillic" unicode="&#x416;" horiz-adv-x="1919" 
d="M1364 717l539 -717h-341l-449 587h-12v-587h-279v587h-12l-449 -587h-335l533 707l-544 658h335l460 -560h12v560h279v-560h12l460 560h328z" />
    <glyph glyph-name="Zecyrillic" unicode="&#x417;" horiz-adv-x="1213" 
d="M432 592v220h169q96 0 154.5 48.5t58.5 129.5q0 80 -60 130t-154 50q-101 0 -164.5 -56t-67.5 -141h-268q6 185 139.5 301.5t365.5 116.5q223 0 357 -104.5t134 -265.5q0 -118 -74.5 -198t-194.5 -99v-15q135 -13 222 -101.5t87 -216.5q0 -191 -145 -304.5t-389 -113.5
q-233 0 -375.5 119t-147.5 308h264q5 -89 76.5 -145.5t185.5 -56.5q112 0 178.5 54t66.5 146q0 93 -67.5 143.5t-183.5 50.5h-167z" />
    <glyph glyph-name="Iicyrillic" unicode="&#x418;" horiz-adv-x="1432" 
d="M1001 0v919h-12l-573 -919h-265v1365h280v-917h12l573 917h265v-1365h-280z" />
    <glyph glyph-name="Iishortcyrillic" unicode="&#x419;" horiz-adv-x="1432" 
d="M379 1782h164q0 -73 44 -114.5t130 -41.5t130 41.5t44 114.5h164q0 -135 -89 -217t-249 -82q-159 0 -248.5 82t-89.5 217zM1001 0v919h-12l-573 -919h-265v1365h280v-917h12l573 917h265v-1365h-280z" />
    <glyph glyph-name="Kacyrillic" unicode="&#x41a;" horiz-adv-x="1297" 
d="M934 0l-481 587h-12v-587h-290v1365h290v-560h12l492 560h334l-573 -648l577 -717h-349z" />
    <glyph glyph-name="Elcyrillic" unicode="&#x41b;" horiz-adv-x="1358" 
d="M264 858l8 507h935v-1365h-290v1127h-381l-9 -312q-4 -157 -13.5 -271t-28 -211t-46.5 -159.5t-69.5 -107t-97.5 -63.5t-131 -19q-71 0 -101 16v249q21 -9 51 -9q99 0 133 134t40 484z" />
    <glyph glyph-name="Emcyrillic" unicode="&#x41c;" horiz-adv-x="1655" 
d="M410 0h-258v1365h296l377 -846h9l377 846h294v-1365h-261v884h-12l-314 -702h-181l-315 702h-12v-884z" />
    <glyph glyph-name="Encyrillic" unicode="&#x41d;" horiz-adv-x="1432" 
d="M1281 0h-290v577h-550v-577h-290v1365h290v-550h550v550h290v-1365z" />
    <glyph glyph-name="Ocyrillic" unicode="&#x41e;" horiz-adv-x="1378" 
d="M391 766v-174q0 -185 81.5 -282t216.5 -97q136 0 217 96.5t81 282.5v174q0 186 -81.5 286t-216.5 100t-216.5 -100.5t-81.5 -285.5zM96 593v170q0 292 158 460t436 168t435 -168.5t157 -459.5v-170q0 -289 -157.5 -454t-436.5 -165q-278 0 -435 165t-157 454z" />
    <glyph glyph-name="Pecyrillic" unicode="&#x41f;" horiz-adv-x="1412" 
d="M1261 0h-290v1127h-530v-1127h-290v1365h1110v-1365z" />
    <glyph glyph-name="Ercyrillic" unicode="&#x420;" horiz-adv-x="1232" 
d="M151 1365h556q218 0 342.5 -130.5t124.5 -330.5q0 -201 -125 -329t-345 -128h-264v-447h-289v1365zM439 1138v-467h153q142 0 215 53t73 180q0 112 -61.5 173t-171.5 61h-208z" />
    <glyph glyph-name="Escyrillic" unicode="&#x421;" horiz-adv-x="1306" 
d="M390 757v-154q0 -186 74.5 -286t211.5 -100q119 0 190 72t73 186h278v-30q0 -208 -153 -339.5t-390 -131.5q-275 0 -426.5 168t-151.5 462v153q0 296 151.5 465t426.5 169q238 0 390.5 -134.5t152.5 -349.5v-29h-278q-2 120 -73 195t-190 75q-137 0 -211.5 -101.5
t-74.5 -289.5z" />
    <glyph glyph-name="Tecyrillic" unicode="&#x422;" horiz-adv-x="1103" 
d="M696 0h-289v1125h-383v240h1055v-240h-383v-1125z" />
    <glyph glyph-name="Ucyrillic" unicode="&#x423;" horiz-adv-x="1183" 
d="M893 1365h299l-435 -984q-63 -141 -123.5 -224.5t-142.5 -128t-192 -44.5q-93 0 -136 16v236q33 -11 100 -11q63 0 111.5 29.5t90.5 99.5l-474 1011h316l296 -702h12z" />
    <glyph glyph-name="Efcyrillic" unicode="&#x424;" horiz-adv-x="1668" 
d="M971 -10h-279v155q-288 10 -445.5 149.5t-157.5 387.5v12q0 249 158 391t445 153v137h279v-138q291 -8 449.5 -148t158.5 -389v-12q0 -251 -159 -392t-449 -152v-154zM371 682q0 -150 83.5 -227.5t242.5 -83.5v641q-158 -8 -242 -88t-84 -230v-12zM1297 700
q0 150 -85 228t-246 83v-641q160 6 245.5 86.5t85.5 231.5v12z" />
    <glyph glyph-name="Xacyrillic" unicode="&#x425;" horiz-adv-x="1217" 
d="M1220 1365l-431 -684l425 -681h-330l-280 472h-13l-280 -472h-313l418 688l-416 677h341l271 -481h13l269 481h326z" />
    <glyph glyph-name="Tsecyrillic" unicode="&#x426;" horiz-adv-x="1481" 
d="M1266 239h170v-525h-258v286h-202h-825v1365h290v-1126h535v1126h290v-1126z" />
    <glyph glyph-name="Checyrillic" unicode="&#x427;" horiz-adv-x="1367" 
d="M1216 0h-290v558h-11q-39 -20 -123.5 -42t-185.5 -22q-231 0 -356.5 124t-125.5 352v395h289v-380q0 -253 253 -253q88 0 161 22.5t99 40.5v570h290v-1365z" />
    <glyph glyph-name="Shacyrillic" unicode="&#x428;" horiz-adv-x="1962" 
d="M151 0v1365h290v-1126h395v1126h290v-1126h395v1126h290v-1365h-1660z" />
    <glyph glyph-name="Shchacyrillic" unicode="&#x429;" horiz-adv-x="2026" 
d="M1981 -286h-258v286h-1572v1365h290v-1126h395v1126h290v-1126h395v1126h290v-1126h170v-525z" />
    <glyph glyph-name="Hardsigncyrillic" unicode="&#x42a;" horiz-adv-x="1406" 
d="M876 0h-556v1126h-296v239h585v-447h264q220 0 345 -128t125 -328q0 -201 -124.5 -331.5t-342.5 -130.5zM816 228q109 0 171 61t62 172t-62 172t-171 61h-210v-466h210z" />
    <glyph glyph-name="Yericyrillic" unicode="&#x42b;" horiz-adv-x="1728" 
d="M1171 462q0 -201 -124 -331.5t-342 -130.5h-554v1365h289v-447h262q219 0 344 -128t125 -328zM645 694h-208v-466h208q109 0 170.5 61t61.5 172t-61.5 172t-170.5 61zM1578 0h-290v1365h290v-1365z" />
    <glyph glyph-name="Softsigncyrillic" unicode="&#x42c;" horiz-adv-x="1237" 
d="M707 0h-556v1365h289v-447h264q220 0 345 -128t125 -328q0 -201 -124.5 -331.5t-342.5 -130.5zM647 228q109 0 171 61t62 172t-62 172t-171 61h-210v-466h210z" />
    <glyph glyph-name="Ereversedcyrillic" unicode="&#x42d;" horiz-adv-x="1303" 
d="M628 -26q-127 0 -232 38.5t-172.5 104t-104.5 150t-37 178.5v10h278q5 -101 72.5 -169.5t190.5 -68.5q130 0 206.5 86t83.5 255v25h-480v216h480v5q-7 168 -84 256t-204 88q-121 0 -189.5 -72.5t-74.5 -172.5h-279v4q0 99 38 187t106.5 154t172.5 104.5t228 38.5
q272 0 426 -167t154 -461v-164q0 -296 -153 -460.5t-426 -164.5z" />
    <glyph glyph-name="IUcyrillic" unicode="&#x42e;" horiz-adv-x="1874" 
d="M1484 592v174q0 185 -79 285.5t-209 100.5q-131 0 -209.5 -100t-78.5 -286v-174q0 -185 78.5 -282t209.5 -97t209.5 97t78.5 282zM441 815h179q14 269 166.5 422.5t410.5 153.5q273 0 427 -168.5t154 -459.5v-170q0 -289 -154.5 -454t-428.5 -165q-267 0 -419 160.5
t-157 442.5h-178v-577h-290v1365h290v-550z" />
    <glyph glyph-name="IAcyrillic" unicode="&#x42f;" horiz-adv-x="1293" 
d="M635 709h222v431h-222q-113 0 -175 -55.5t-62 -159.5q0 -105 62 -160.5t175 -55.5zM853 488h-195l-276 -488h-317l312 537q-129 43 -200.5 145.5t-71.5 240.5q0 194 126.5 318t354.5 124h556v-1365h-289v488z" />
    <glyph glyph-name="acyrillic" unicode="&#x430;" horiz-adv-x="1122" 
d="M718 129q-33 -64 -104 -104.5t-181 -40.5q-157 0 -253.5 87t-96.5 236q0 146 98.5 230t280.5 84h256v94q0 75 -43.5 115.5t-121.5 40.5q-76 0 -120 -37.5t-48 -99.5h-263q3 70 27.5 129.5t73.5 109.5t135 78.5t200 28.5q127 0 223.5 -37.5t155 -121.5t58.5 -206v-715
h-265v129h-12zM526 186q81 0 136.5 45.5t55.5 116.5v110h-189q-81 0 -124 -35.5t-43 -95.5q0 -67 48 -104t116 -37z" />
    <glyph glyph-name="becyrillic" unicode="&#x431;" horiz-adv-x="1181" 
d="M594 807q-103 0 -157 -77.5t-54 -199.5v-51q0 -125 53 -204t158 -79t157.5 79t52.5 204v51q0 123 -53.5 200t-156.5 77zM668 1015q181 0 300.5 -127.5t119.5 -337.5v-68q0 -237 -131.5 -369.5t-362.5 -132.5q-235 0 -365.5 140.5t-130.5 402.5v147q0 157 24 273.5
t81.5 211t161 149.5t254.5 70l103 10q108 10 116 53h226q-10 -119 -75.5 -186t-211.5 -81l-118 -12q-175 -17 -243 -92.5t-81 -244.5h12q80 194 321 194z" />
    <glyph glyph-name="vecyrillic" unicode="&#x432;" horiz-adv-x="1139" 
d="M136 0v1064h526q150 0 242 -72t92 -195q0 -95 -51.5 -153.5t-133.5 -75.5v-10q102 -10 170 -77t68 -180q0 -142 -108.5 -221.5t-276.5 -79.5h-528zM411 883v-250h146q171 0 171 131q0 57 -41 88t-110 31h-166zM411 464v-283h167q195 0 195 140q0 68 -48.5 105.5
t-134.5 37.5h-179z" />
    <glyph glyph-name="gecyrillic" unicode="&#x433;" horiz-adv-x="904" 
d="M849 853h-432v-853h-281v1064h713v-211z" />
    <glyph glyph-name="decyrillic" unicode="&#x434;" horiz-adv-x="1291" 
d="M805 211v642h-315l-8 -187q-9 -203 -23.5 -298.5t-49.5 -145.5v-11h396zM278 -285h-245v496h89q58 34 78.5 130.5t29.5 330.5l13 392h841v-853h155v-496h-245v285h-716v-285z" />
    <glyph glyph-name="iecyrillic" unicode="&#x435;" horiz-adv-x="1139" 
d="M582 -19q-224 0 -356.5 133.5t-132.5 376.5v93q0 234 131.5 366.5t346.5 132.5q219 0 347 -137t128 -368v-105h-677v-32q0 -113 59.5 -180.5t155.5 -67.5q77 0 128.5 35.5t65.5 98.5h259q-7 -52 -27 -101t-58 -94t-88.5 -78t-123 -53t-158.5 -20zM369 645h406v2
q0 100 -56 165t-146 65q-91 0 -147.5 -65.5t-56.5 -164.5v-2z" />
    <glyph glyph-name="zhecyrillic" unicode="&#x436;" horiz-adv-x="1615" 
d="M667 646v418h274v-418h10l316 418h311l-394 -496l421 -568h-323l-331 449h-10v-449h-274v449h-9l-332 -449h-316l416 561l-401 503h316l317 -418h9z" />
    <glyph glyph-name="zecyrillic" unicode="&#x437;" horiz-adv-x="1076" 
d="M532 185q83 0 132.5 36t49.5 97t-50 95.5t-135 34.5h-121v180h122q72 0 114 34t42 91q0 58 -44 91.5t-115 33.5q-82 0 -127.5 -43t-49.5 -110h-261q8 162 124.5 259.5t312.5 97.5q191 0 310 -83t119 -217q0 -84 -55 -145.5t-144 -75.5v-12q100 -11 165 -78t65 -166
q0 -147 -123.5 -236t-330.5 -89q-208 0 -328.5 100t-122.5 251h258q8 -66 55.5 -106t137.5 -40z" />
    <glyph glyph-name="iicyrillic" unicode="&#x438;" horiz-adv-x="1229" 
d="M826 0v661h-12l-418 -661h-260v1064h267v-661h12l419 661h259v-1064h-267z" />
    <glyph glyph-name="iishortcyrillic" unicode="&#x439;" horiz-adv-x="1229" 
d="M293 1515h165q0 -76 38.5 -122t116.5 -46t117 46t39 122h164q0 -135 -84 -224t-236 -89q-151 0 -235.5 89t-84.5 224zM826 0v661h-12l-418 -661h-260v1064h267v-661h12l419 661h259v-1064h-267z" />
    <glyph glyph-name="kacyrillic" unicode="&#x43a;" horiz-adv-x="1129" 
d="M680 563l439 -563h-338l-352 446h-12v-446h-281v1064h281v-416h11l338 416h326z" />
    <glyph glyph-name="elcyrillic" unicode="&#x43b;" horiz-adv-x="1185" 
d="M234 676l8 388h807v-1064h-281v853h-280l-5 -200q-3 -100 -7.5 -170.5t-14 -145.5t-25 -125t-41 -96.5t-60 -73.5t-83 -42.5t-110.5 -15.5q-24 0 -46 4t-32 8l-11 4v240q21 -8 48 -8q22 0 39.5 7t30.5 24t22.5 36t16 52t11 62.5t7 77t4 86t2.5 99.5z" />
    <glyph glyph-name="emcyrillic" unicode="&#x43c;" horiz-adv-x="1494" 
d="M395 654v-654h-259v1064h323l284 -629h12l284 629h319v-1064h-261v654h-12l-252 -532h-173l-253 532h-12z" />
    <glyph glyph-name="encyrillic" unicode="&#x43d;" horiz-adv-x="1219" 
d="M802 0v441h-385v-441h-281v1064h281v-412h385v412h281v-1064h-281z" />
    <glyph glyph-name="ocyrillic" unicode="&#x43e;" horiz-adv-x="1171" 
d="M587 1083q231 0 361 -141t130 -369v-75q0 -239 -128.5 -378t-362.5 -139q-235 0 -364.5 139t-129.5 377v75q0 227 131 369t363 142zM586 868q-104 0 -156 -81.5t-52 -212.5v-82q0 -83 20.5 -147t68.5 -106t119 -42q105 0 156.5 83t51.5 212v82q0 132 -52 213t-156 81z
" />
    <glyph glyph-name="pecyrillic" unicode="&#x43f;" horiz-adv-x="1209" 
d="M792 0v853h-375v-853h-281v1064h937v-1064h-281z" />
    <glyph glyph-name="ercyrillic" unicode="&#x440;" horiz-adv-x="1223" 
d="M729 -13q-104 0 -181.5 45.5t-116.5 123.5h-12v-508h-282v1416h278v-160h12q40 80 119.5 126.5t185.5 46.5q181 0 290 -131.5t109 -368.5v-89q0 -237 -109 -369t-293 -132zM636 209q94 0 150 75t56 215v69q0 137 -55.5 212t-153.5 75t-157 -76.5t-59 -209.5v-70
q0 -135 59 -212.5t160 -77.5z" />
    <glyph glyph-name="escyrillic" unicode="&#x441;" horiz-adv-x="1102" 
d="M93 495v85q0 226 129 364.5t351 138.5q199 0 319.5 -110t125.5 -274h-258q-10 68 -58 115t-117 47q-97 0 -153 -76t-56 -208v-80q0 -137 56.5 -215.5t153.5 -78.5q81 0 125 42.5t53 109.5h258q-15 -182 -135.5 -278t-314.5 -96q-222 0 -350.5 138.5t-128.5 375.5z" />
    <glyph glyph-name="tecyrillic" unicode="&#x442;" horiz-adv-x="992" 
d="M947 853h-310v-853h-281v853h-311v211h902v-211z" />
    <glyph glyph-name="ucyrillic" unicode="&#x443;" horiz-adv-x="1078" 
d="M1066 1064q-338 -1015 -343 -1027l-27 -73q-24 -63 -49 -110.5t-63 -93t-84 -74t-112 -46t-148 -17.5q-95 0 -153 12v200q32 -7 89 -7q94 0 136 34t55 104l8 34l-363 1064h311l214 -816h11l220 816h298z" />
    <glyph glyph-name="efcyrillic" unicode="&#x444;" horiz-adv-x="1537" 
d="M904 -352h-271v335q-250 5 -395 140t-145 379v64q0 230 147.5 369.5t392.5 144.5v257h271v-257q251 -5 395.5 -139.5t144.5 -378.5v-64q0 -230 -147.5 -370t-392.5 -145v-335zM1169 562q0 131 -67 216.5t-203 91.5v-676q133 6 201.5 91t68.5 216v61zM368 501
q0 -130 67 -215.5t203 -91.5v676q-133 -6 -201.5 -91.5t-68.5 -216.5v-61z" />
    <glyph glyph-name="hacyrillic" unicode="&#x445;" horiz-adv-x="1102" 
d="M754 0l-207 354h-8l-205 -354h-299l331 533l-336 531h324l201 -354h8l201 354h309l-345 -531l340 -533h-314z" />
    <glyph glyph-name="tsecyrillic" unicode="&#x446;" horiz-adv-x="1281" 
d="M1228 -285h-245v285h-847v1064h281v-853h375v853h281v-853h155v-496z" />
    <glyph glyph-name="checyrillic" unicode="&#x447;" horiz-adv-x="1177" 
d="M1041 0h-283v413h-14q-28 -22 -99.5 -44t-156.5 -22q-182 0 -275.5 96.5t-93.5 263.5v357h281v-325q0 -80 45 -125.5t129 -45.5q50 0 93.5 11.5t64 23t26.5 19.5v442h283v-1064z" />
    <glyph glyph-name="shacyrillic" unicode="&#x448;" horiz-adv-x="1684" 
d="M136 0v1064h276v-853h292v853h276v-853h292v853h276v-1064h-1412z" />
    <glyph glyph-name="shchacyrillic" unicode="&#x449;" horiz-adv-x="1761" 
d="M1708 -285h-245v285h-1327v1064h276v-853h292v853h276v-853h292v853h276v-853h160v-496z" />
    <glyph glyph-name="hardsigncyrillic" unicode="&#x44a;" horiz-adv-x="1228" 
d="M750 0h-462v853h-243v211h524v-332h181q189 0 301 -99t112 -267q0 -167 -112 -266.5t-301 -99.5zM704 524h-139v-316h140q80 0 128.5 44t48.5 115q0 72 -48.5 114.5t-129.5 42.5z" />
    <glyph glyph-name="yericyrillic" unicode="&#x44b;" horiz-adv-x="1543" 
d="M1126 0v1064h281v-1064h-281zM553 524h-139v-316h139q81 0 129.5 43.5t48.5 115.5t-48.5 114.5t-129.5 42.5zM136 0v1064h281v-332h179q189 0 301 -99t112 -267q0 -167 -112 -266.5t-301 -99.5h-460z" />
    <glyph glyph-name="softsigncyrillic" unicode="&#x44c;" horiz-adv-x="1077" 
d="M553 524h-139v-316h139q81 0 129.5 43.5t48.5 115.5t-48.5 114.5t-129.5 42.5zM136 0v1064h281v-332h181q190 0 301.5 -99t111.5 -267q0 -167 -111.5 -266.5t-301.5 -99.5h-462z" />
    <glyph glyph-name="ereversedcyrillic" unicode="&#x44d;" horiz-adv-x="1106" 
d="M532 -19q-198 0 -317.5 94t-133.5 258h260q27 -130 182 -130q90 0 144 61t60 168v18h-351v171h352v6q-6 109 -59 171t-146 62q-81 0 -124.5 -40.5t-54.5 -96.5h-259q9 155 128 257.5t318 102.5q223 0 352.5 -132.5t129.5 -352.5v-124q0 -233 -130 -363t-351 -130z" />
    <glyph glyph-name="iucyrillic" unicode="&#x44e;" horiz-adv-x="1616" 
d="M1042 -19q-207 0 -334 116t-141 326v18h-150v-441h-281v1064h281v-412h152q17 197 145.5 314t327.5 117q218 0 349.5 -133.5t131.5 -359.5v-110q0 -236 -130 -367.5t-351 -131.5zM1042 867q-97 0 -148 -79.5t-51 -202.5v-106q0 -122 50 -202t149 -80q98 0 147.5 80
t49.5 202v106q0 123 -50.5 202.5t-146.5 79.5z" />
    <glyph glyph-name="iacyrillic" unicode="&#x44f;" horiz-adv-x="1142" 
d="M570 548h155v310h-156q-80 0 -128.5 -42.5t-48.5 -113.5q0 -70 48.5 -112t129.5 -42zM725 0v355h-112l-234 -355h-309l268 403q-106 33 -164 114t-58 197q0 158 112 254t301 96h477v-1064h-281z" />
    <glyph glyph-name="uni0450" unicode="&#x450;" horiz-adv-x="1139" 
d="M681 1189h-196l-254 294h243zM582 -19q-224 0 -356.5 133.5t-132.5 376.5v93q0 234 131.5 366.5t346.5 132.5q219 0 347 -137t128 -368v-105h-677v-32q0 -113 59.5 -180.5t155.5 -67.5q77 0 128.5 35.5t65.5 98.5h259q-7 -52 -27 -101t-58 -94t-88.5 -78t-123 -53
t-158.5 -20zM369 645h406v2q0 100 -56 165t-146 65q-91 0 -147.5 -65.5t-56.5 -164.5v-2z" />
    <glyph glyph-name="iocyrillic" unicode="&#x451;" horiz-adv-x="1139" 
d="M582 -18q-224 0 -356.5 133.5t-132.5 376.5v93q0 234 131.5 366.5t346.5 132.5q219 0 347 -137t128 -368v-105h-677v-32q0 -113 59.5 -180.5t155.5 -67.5q77 0 128.5 35.5t65.5 98.5h259q-7 -52 -27 -101t-58 -94t-88.5 -78t-123 -53t-158.5 -20zM369 646h406v2
q0 100 -56 165t-146 65q-91 0 -147.5 -65.5t-56.5 -164.5v-2zM380 1195q-50 0 -83 33t-33 83q0 52 33 85.5t83 33.5q51 0 84.5 -33.5t33.5 -85.5q0 -50 -33.5 -83t-84.5 -33zM768 1195q-49 0 -81.5 33t-32.5 83q0 52 32 85.5t82 33.5q52 0 86 -33.5t34 -85.5q0 -50 -34 -83
t-86 -33z" />
    <glyph glyph-name="djecyrillic" unicode="&#x452;" horiz-adv-x="1227" 
d="M821 -9v640q0 110 -52 162t-136 52q-96 0 -154 -70t-58 -186v-589h-281v1159h-112v156h123v122h261v-122h235v-156h-226v-282h14q10 32 31.5 64.5t58 65t95.5 53t130 20.5q161 0 256.5 -95.5t95.5 -276.5v-720q0 -178 -96.5 -265t-266.5 -87q-73 0 -111 8v200
q19 -4 57 -4q69 0 102.5 35.5t33.5 115.5z" />
    <glyph glyph-name="gjecyrillic" unicode="&#x453;" horiz-adv-x="912" 
d="M576 1189h-195l207 294h243zM849 853h-432v-853h-281v1064h713v-211z" />
    <glyph glyph-name="ecyrillic" unicode="&#x454;" horiz-adv-x="1106" 
d="M1025 333q-13 -164 -133 -258t-318 -94q-221 0 -351 130t-130 363v124q0 220 129.5 352.5t352.5 132.5q200 0 318.5 -102.5t128.5 -257.5h-260q-11 56 -54.5 96.5t-124.5 40.5q-93 0 -146 -62t-58 -171v-6h352v-171h-352v-18q7 -108 61 -168.5t144 -60.5q156 0 181 130
h260z" />
    <glyph glyph-name="dzecyrillic" unicode="&#x455;" horiz-adv-x="1060" 
d="M102 746q0 86 35 152.5t96.5 106t137.5 59t164 19.5q190 0 301 -87.5t111 -238.5h-248q-6 56 -46.5 95t-123.5 39q-73 0 -116.5 -32.5t-43.5 -86.5q0 -17 5 -31t16.5 -25.5t22.5 -20.5t32 -17t35 -13t41 -10.5t40.5 -8.5t43.5 -8t41 -7q79 -14 136 -34.5t103.5 -54.5
t70.5 -86.5t24 -123.5q0 -165 -121.5 -258t-337.5 -93q-207 0 -324 88t-117 232h273q8 -58 56 -92.5t127 -34.5q83 0 127.5 35t44.5 87q0 16 -4 29.5t-14 24.5t-20 19.5t-28.5 16t-31.5 12.5t-38 11t-39.5 9t-44 8.5t-43.5 8.5q-78 16 -135 38t-106.5 57.5t-75.5 89.5
t-26 126z" />
    <glyph glyph-name="icyrillic" unicode="&#x456;" horiz-adv-x="574" 
d="M147 0v1064h281v-1064h-281zM131 1329q0 63 45 103.5t111 40.5t111.5 -40.5t45.5 -103.5q0 -64 -45.5 -104.5t-111.5 -40.5t-111 40.5t-45 104.5z" />
    <glyph glyph-name="yicyrillic" unicode="&#x457;" horiz-adv-x="574" 
d="M147 0v1064h281v-1064h-281zM110 1189q-59 0 -100.5 39t-41.5 101q0 61 41.5 100t100.5 39q60 0 101 -39t41 -100q0 -62 -41 -101t-101 -39zM464 1189q-59 0 -100 39t-41 101q0 61 41 100t100 39q60 0 101 -39t41 -100q0 -62 -41 -101t-101 -39z" />
    <glyph glyph-name="jecyrillic" unicode="&#x458;" horiz-adv-x="574" 
d="M131 1329q0 63 45 103.5t111 40.5t111.5 -40.5t45.5 -103.5q0 -64 -45.5 -104.5t-111.5 -40.5t-111 40.5t-45 104.5zM427 1064v-1076q0 -178 -96.5 -265t-265.5 -87q-74 0 -112 8v200q19 -4 57 -4q70 0 103.5 35.5t33.5 115.5v1073h280z" />
    <glyph glyph-name="ljecyrillic" unicode="&#x459;" horiz-adv-x="1702" 
d="M142 -16q-24 0 -46 4t-32 8l-11 4v242q21 -8 48 -8q22 0 39 7t30 23.5t22.5 36t16 52t10.5 62.5t6.5 76.5t4 86t2.5 98.5l8 388h802v-332h181q190 0 301.5 -99t111.5 -267q0 -167 -111.5 -266.5t-301.5 -99.5h-462v853h-273l-5 -200q-3 -100 -7.5 -170.5t-14 -145.5
t-25 -125t-41 -96.5t-60 -73.5t-83 -42.5t-110.5 -15.5zM1178 524h-139v-316h140q80 0 128.5 44t48.5 115q0 72 -48.5 114.5t-129.5 42.5z" />
    <glyph glyph-name="njecyrillic" unicode="&#x45a;" horiz-adv-x="1743" 
d="M1235 481h-154v-273h155q73 0 117.5 38t44.5 100t-44.5 98.5t-118.5 36.5zM802 0v471h-385v-471h-281v1064h281v-382h385v382h281v-382h191q185 0 294 -91.5t109 -246.5q0 -158 -109 -251t-294 -93h-472z" />
    <glyph glyph-name="tshecyrillic" unicode="&#x45b;" horiz-adv-x="1226" 
d="M421 618v-618h-281v1152h-112v156h123v129h261v-129h235v-156h-226v-247h12q30 68 107.5 121.5t196.5 53.5q165 0 264.5 -102.5t99.5 -292.5v-685h-281v622q0 113 -55 166.5t-143 53.5q-94 0 -147.5 -61.5t-53.5 -162.5z" />
    <glyph glyph-name="kjecyrillic" unicode="&#x45c;" horiz-adv-x="1129" 
d="M926 1483l-255 -294h-195l207 294h243zM680 563l439 -563h-338l-352 446h-12v-446h-281v1064h281v-416h11l338 416h326z" />
    <glyph glyph-name="uni045D" unicode="&#x45d;" horiz-adv-x="1229" 
d="M726 1189h-196l-254 294h243zM826 0v661h-12l-418 -661h-260v1064h267v-661h12l419 661h259v-1064h-267z" />
    <glyph glyph-name="ushortcyrillic" unicode="&#x45e;" horiz-adv-x="1078" 
d="M225 1516h165q0 -76 38.5 -122t116.5 -46t117 46t39 122h164q0 -135 -84 -224t-236 -89q-151 0 -235.5 89t-84.5 224zM1066 1064q-338 -1015 -343 -1027l-27 -73q-24 -63 -49 -110.5t-63 -93t-84 -74t-112 -46t-148 -17.5q-95 0 -153 12v200q32 -7 89 -7q94 0 136 34
t55 104l8 34l-363 1064h311l214 -816h11l220 816h298z" />
    <glyph glyph-name="dzhecyrillic" unicode="&#x45f;" horiz-adv-x="1209" 
d="M792 1064h281v-1064h-346v-285h-245v285h-346v1064h281v-853h375v853z" />
    <glyph glyph-name="uni0462" unicode="&#x462;" horiz-adv-x="1427" 
d="M627 228h210q110 0 171.5 57t61.5 161t-62 161t-171 57h-210v-436zM630 888h264q220 0 345 -123.5t125 -317.5t-124.5 -320.5t-342.5 -126.5h-556v1031h-290v202h290v172h289v-172h406v-202h-406v-143z" />
    <glyph glyph-name="uni0463" unicode="&#x463;" horiz-adv-x="1271" 
d="M608 208h139q81 0 129.5 43t48.5 113q0 71 -48.5 113t-129.5 42h-139v-311zM611 727h181q190 0 301.5 -98t111.5 -265t-111.5 -265.5t-301.5 -98.5h-462v901h-285v163h285v373h281v-373h345v-163h-345v-174z" />
    <glyph glyph-name="uni0472" unicode="&#x472;" horiz-adv-x="1378" 
d="M987 592v19q-63 -65 -159 -65q-49 0 -94.5 12.5t-74.5 27.5t-68.5 27.5t-77.5 12.5q-90 0 -121 -68q7 -169 87.5 -257t209.5 -88q136 0 217 96.5t81 282.5zM689 1152q-133 0 -214.5 -97.5t-83.5 -278.5q64 66 159 66q61 0 114.5 -20t103 -39.5t98.5 -19.5q85 0 119 64
q-14 157 -93 241t-203 84zM96 593v170q0 292 158 460t436 168t435 -168.5t157 -459.5v-170q0 -289 -157.5 -454t-436.5 -165q-278 0 -435 165t-157 454z" />
    <glyph glyph-name="uni0473" unicode="&#x473;" horiz-adv-x="1171" 
d="M586 197q98 0 149.5 73t57.5 191q-40 -43 -107 -43q-50 0 -117 28t-107 28q-59 0 -81 -38q10 -107 61.5 -173t143.5 -66zM586 868q-97 0 -149 -72t-58 -190q41 46 103 46q50 0 117.5 -26.5t110.5 -26.5q59 0 81 36q-11 107 -62.5 170t-142.5 63zM93 497v75q0 227 131 369
t363 142q231 0 361 -141t130 -369v-75q0 -239 -128.5 -378t-362.5 -139q-235 0 -364.5 139t-129.5 377z" />
    <glyph glyph-name="uni0474" unicode="&#x474;" horiz-adv-x="1380" 
d="M861 1037q28 116 65 181.5t94 107.5q75 57 193 57q60 0 122.5 -16t104.5 -41l-75 -217q-55 21 -90 21q-44 0 -70 -26q-30 -27 -61 -119l-323 -985h-353l-450 1365h335l291 -1053h14z" />
    <glyph glyph-name="uni0475" unicode="&#x475;" horiz-adv-x="1176" 
d="M926 726l-250 -726h-317l-349 1064h306l199 -806h12l143 496q28 110 62 174t84 100q71 53 175 53q119 0 200 -46l-67 -191q-41 18 -81 18q-38 0 -63 -25q-22 -21 -54 -111z" />
    <glyph glyph-name="uni048A" unicode="&#x48a;" horiz-adv-x="1487" 
d="M891 1782h164q0 -135 -89 -217t-249 -82q-159 0 -248.5 82t-89.5 217h164q0 -73 44 -114.5t130 -41.5t130 41.5t44 114.5zM1281 239h181v-63l-121 -461h-252l75 285h-163v239v680h-12l-573 -919h-265v1365h280v-917h12l573 917h265v-1126z" />
    <glyph glyph-name="uni048B" unicode="&#x48b;" horiz-adv-x="1275" 
d="M768 1515h164q0 -135 -84 -224t-236 -89q-151 0 -235.5 89t-84.5 224h165q0 -76 38.5 -122t116.5 -46t117 46t39 122zM1092 211h156v-65l-109 -431h-248l71 285h-136h-1v661h-12l-418 -661h-260v1064h267v-661h12l419 661h259v-853z" />
    <glyph glyph-name="uni048C" unicode="&#x48c;" horiz-adv-x="1427" 
d="M627 228h210q110 0 171.5 57t61.5 161t-62 161t-171 57h-210v-436zM630 888h264q220 0 345 -123.5t125 -317.5t-124.5 -320.5t-342.5 -126.5h-556v1031h-290v202h290v172h289v-172h406v-202h-406v-143z" />
    <glyph glyph-name="uni048D" unicode="&#x48d;" horiz-adv-x="1271" 
d="M608 208h139q81 0 129.5 43t48.5 113q0 71 -48.5 113t-129.5 42h-139v-311zM611 727h181q190 0 301.5 -98t111.5 -265t-111.5 -265.5t-301.5 -98.5h-462v901h-285v163h285v373h281v-373h345v-163h-345v-174z" />
    <glyph glyph-name="uni048E" unicode="&#x48e;" horiz-adv-x="1232" 
d="M439 668h208q22 0 43 3l-90 145l138 89l99 -155q45 61 45 154q0 112 -62.5 173t-172.5 61h-208v-470zM151 1365h556q146 0 253.5 -62.5t160.5 -165.5t53 -233q0 -114 -45 -208.5t-129 -155.5l102 -155l-177 -121l-123 193q-51 -10 -116 -10h-246v-447h-289v1365z" />
    <glyph glyph-name="uni048F" unicode="&#x48f;" horiz-adv-x="1236" 
d="M417 569v-70q0 -135 59 -212.5t160 -77.5q40 0 74 14l-111 173l136 91l87 -132q20 62 20 144v69q0 137 -55.5 212t-153.5 75t-157 -76.5t-59 -209.5zM1131 577v-89q0 -247 -120 -381l114 -173l-176 -120l-119 185q-48 -12 -101 -12q-104 0 -181.5 45.5t-116.5 123.5h-12
v-508h-282v1416h278v-160h12q40 80 119.5 126.5t185.5 46.5q181 0 290 -131.5t109 -368.5z" />
    <glyph glyph-name="Geupturncyrillic" unicode="&#x490;" horiz-adv-x="1094" 
d="M772 1651h257v-286v-236h-588v-1129h-290v1365h621v286z" />
    <glyph glyph-name="geupturncyrillic" unicode="&#x491;" horiz-adv-x="904" 
d="M604 1064v285h245v-496h-432v-853h-281v1064h468z" />
    <glyph glyph-name="uni0492" unicode="&#x492;" horiz-adv-x="1136" 
d="M1071 1129h-588v-333h342v-212h-342v-584h-290v584h-127v212h127v569h878v-236z" />
    <glyph glyph-name="uni0493" unicode="&#x493;" horiz-adv-x="954" 
d="M899 853h-432v-236h242v-161h-242v-456h-281v456h-125v161h125v447h713v-211z" />
    <glyph glyph-name="uni0494" unicode="&#x494;" horiz-adv-x="1285" 
d="M441 760h12q47 33 131.5 57.5t162.5 24.5q215 0 336 -114.5t121 -311.5q0 -196 -118.5 -314.5t-316.5 -118.5q-100 0 -141 17v223q30 -8 98 -8q84 0 136.5 53.5t52.5 139.5q0 96 -59 149.5t-171 53.5q-74 0 -140 -24t-104 -60v-527h-290v1365h859v-236h-569v-369z" />
    <glyph glyph-name="uni0495" unicode="&#x495;" horiz-adv-x="1198" 
d="M417 512h11q103 97 272 97q203 0 321.5 -126t118.5 -326q0 -236 -124.5 -375.5t-334.5 -139.5q-97 0 -147 16v204q39 -10 111 -10q102 0 158 75t56 211q0 109 -58.5 177t-155.5 68q-81 0 -138.5 -38t-89.5 -101v-244h-281v1064h728v-211h-447v-341z" />
    <glyph glyph-name="uni0496" unicode="&#x496;" horiz-adv-x="1966" 
d="M1723 239h231v-525h-257v286h-132h-3l-449 587h-12v-587h-279v587h-12l-449 -587h-335l533 707l-544 658h335l460 -560h12v560h279v-560h12l460 560h328l-537 -648z" />
    <glyph glyph-name="uni0497" unicode="&#x497;" horiz-adv-x="1630" 
d="M1449 211h174v-496h-245v285h-95h-1l-331 449h-10v-449h-274v449h-9l-332 -449h-316l416 561l-401 503h316l317 -418h9v418h274v-418h10l316 418h311l-394 -496z" />
    <glyph glyph-name="uni0498" unicode="&#x498;" horiz-adv-x="1213" 
d="M827 724v-15q135 -13 222 -101.5t87 -216.5q0 -162 -106.5 -270t-292.5 -138v-269h-257v269q-182 30 -289.5 143t-111.5 274h264q5 -89 76.5 -145.5t185.5 -56.5q112 0 178.5 54t66.5 146q0 93 -67.5 143.5t-183.5 50.5h-167v220h169q96 0 154.5 48.5t58.5 129.5
q0 80 -60 130t-154 50q-101 0 -164.5 -56t-67.5 -141h-268q6 185 139.5 301.5t365.5 116.5q223 0 357 -104.5t134 -265.5q0 -118 -74.5 -198t-194.5 -99z" />
    <glyph glyph-name="uni0499" unicode="&#x499;" horiz-adv-x="1076" 
d="M756 561v-12q100 -11 165 -78t65 -166q0 -121 -85 -204t-234 -110v-276h-245v273q-159 26 -249 120t-92 223h258q8 -66 55.5 -106t137.5 -40q83 0 132.5 36t49.5 97t-50 95.5t-135 34.5h-121v180h122q72 0 114 34t42 91q0 58 -44 91.5t-115 33.5q-82 0 -127.5 -43
t-49.5 -110h-261q8 162 124.5 259.5t312.5 97.5q191 0 310 -83t119 -217q0 -84 -55 -145.5t-144 -75.5z" />
    <glyph glyph-name="uni049A" unicode="&#x49a;" horiz-adv-x="1341" 
d="M1091 239h238v-525h-258v286h-132h-5l-481 587h-12v-587h-290v1365h290v-560h12l492 560h334l-573 -648z" />
    <glyph glyph-name="uni049B" unicode="&#x49b;" horiz-adv-x="1150" 
d="M955 211h188v-496h-245v285h-101h-16l-352 446h-12v-446h-281v1064h281v-416h11l338 416h326l-412 -501z" />
    <glyph glyph-name="uni049C" unicode="&#x49c;" horiz-adv-x="1473" 
d="M1035 718l426 -718h-342l-338 587h-48v-285h-185v285h-107v-587h-290v1365h290v-560h107v285h185v-285h48l349 560h328z" />
    <glyph glyph-name="uni049D" unicode="&#x49d;" horiz-adv-x="1323" 
d="M979 571l334 -571h-322l-250 446h-45v-245h-180v245h-99v-446h-281v1064h281v-416h99v250h180v-250h40l240 416h310z" />
    <glyph glyph-name="uni049E" unicode="&#x49e;" horiz-adv-x="1391" 
d="M843 718l536 -718h-348l-449 587h-65v-587h-289v1021h-165v202h165v142h289v-142h160v-202h-160v-216h66l459 560h334z" />
    <glyph glyph-name="uni049F" unicode="&#x49f;" horiz-adv-x="1126" 
d="M709 605l408 -605h-331l-293 445l-71 -84v-361h-281v1159h-113v156h113v122h281v-122h225v-156h-225v-526h13l332 431h324z" />
    <glyph glyph-name="uni04A0" unicode="&#x4a0;" horiz-adv-x="1698" 
d="M1109 717l577 -717h-349l-481 587h-12v-587h-290v1129h-530v236h530h290v-236v-324h12l492 560h334z" />
    <glyph glyph-name="uni04A1" unicode="&#x4a1;" horiz-adv-x="1444" 
d="M995 563l439 -563h-338l-352 446h-12v-446h-281v853h-406v211h406h281v-211v-205h11l338 416h326z" />
    <glyph glyph-name="uni04A2" unicode="&#x4a2;" horiz-adv-x="1496" 
d="M1281 239h170v-525h-258v286h-202v239v338h-550v-577h-290v1365h290v-550h550v550h290v-1126z" />
    <glyph glyph-name="uni04A3" unicode="&#x4a3;" horiz-adv-x="1294" 
d="M1083 211h158v-496h-245v285h-194v211v230h-385v-441h-281v1064h281v-412h385v412h281v-853z" />
    <glyph glyph-name="uni04A4" unicode="&#x4a4;" horiz-adv-x="1926" 
d="M1861 1365v-236h-580v-1129h-290v577h-550v-577h-290v1365h290v-550h550v314v236h290h580z" />
    <glyph glyph-name="uni04A5" unicode="&#x4a5;" horiz-adv-x="1544" 
d="M1489 1064v-211h-406v-853h-281v441h-385v-441h-281v1064h281v-412h385v201v211h281h406z" />
    <glyph glyph-name="uni04A6" unicode="&#x4a6;" horiz-adv-x="2085" 
d="M1241 528v-528h-290v1127h-510v-1127h-290v1365h1090v-604h12q47 33 131.5 57.5t162.5 24.5q215 0 336 -114.5t121 -311.5q0 -196 -118.5 -314.5t-316.5 -118.5q-100 0 -141 17v223q30 -8 98 -8q84 0 136.5 53.5t52.5 139.5q0 96 -59 149.5t-171 53.5q-74 0 -140 -24
t-104 -60z" />
    <glyph glyph-name="uni04A7" unicode="&#x4a7;" horiz-adv-x="1849" 
d="M1068 512h11q103 97 272 97q203 0 321.5 -126t118.5 -326q0 -236 -124.5 -375.5t-334.5 -139.5q-97 0 -147 16v204q39 -10 111 -10q102 0 158 75t56 211q0 109 -58.5 177t-155.5 68q-81 0 -138.5 -38t-89.5 -101v-244h-281v853h-370v-853h-281v1064h932v-552z" />
    <glyph glyph-name="uni04A8" unicode="&#x4a8;" horiz-adv-x="1770" 
d="M954 715v-58q0 -119 44.5 -219t130.5 -160q100 55 153 154.5t53 224.5v58q0 119 -48 188.5t-143 69.5q-94 0 -142 -69.5t-48 -188.5zM1656 261l84 -202q-129 -89 -318 -89q-170 0 -315 68q-150 -66 -320 -66q-335 0 -513 178t-178 486v111q0 132 35.5 243t106.5 197.5
t187 137.5t268 57v-237q-87 -6 -149 -39t-97 -89.5t-50.5 -125t-15.5 -156.5v-93q0 -209 104 -323.5t294 -114.5q26 0 76 2q-186 174 -186 458v59q0 217 128 352t347 135t347.5 -135t128.5 -352v-59q0 -137 -59.5 -260t-163.5 -208q10 -1 30 -1q125 0 229 66z" />
    <glyph glyph-name="uni04A9" unicode="&#x4a9;" horiz-adv-x="1610" 
d="M867 557v-40q0 -91 37.5 -165t111.5 -118q87 41 132.5 115t45.5 168v40q0 87 -41.5 138t-122.5 51t-122 -51t-41 -138zM1486 224l71 -175q-108 -70 -290 -70q-145 0 -270 54q-131 -53 -292 -53q-296 0 -454 139.5t-158 381.5v82q0 104 32 191.5t96 155.5t168.5 108.5
t241.5 45.5v-203q-144 -9 -205 -90t-61 -218v-67q0 -158 89 -242.5t256 -84.5q30 0 45 1q-154 132 -154 342v41q0 175 113.5 280t315.5 105q204 0 319.5 -104t115.5 -281v-41q0 -103 -49 -193.5t-136 -156.5q122 2 206 52z" />
    <glyph glyph-name="uni04AA" unicode="&#x4aa;" horiz-adv-x="1306" 
d="M649 -482q-87 0 -136 15v126q49 -14 111 -14q109 0 109 59q0 32 -26.5 46t-101.5 14h-55v105l41 109q-237 26 -366 191t-129 435v153q0 296 151.5 465t426.5 169q238 0 390.5 -134.5t152.5 -349.5v-29h-278q-2 120 -73 195t-190 75q-137 0 -211.5 -101.5t-74.5 -289.5
v-154q0 -186 74.5 -286t211.5 -100q119 0 190 72t73 186h278v-30q0 -189 -129 -317t-335 -149l-38 -96q91 0 141.5 -45.5t50.5 -123.5q0 -97 -67.5 -146.5t-190.5 -49.5z" />
    </font>
</defs>
</svg>
